/* XPM */
static char *column[] = {
/* columns rows colors chars-per-pixel */
"64 64 163 2 ",
"   c #0A0603",
".  c #0D0906",
"X  c #130D07",
"o  c #180F06",
"O  c #150F08",
"+  c #180F08",
"@  c #1B1007",
"#  c #17110B",
"$  c #1C130A",
"%  c #1E1712",
"&  c #22160B",
"*  c #25190C",
"=  c #2B1C0D",
"-  c #311E0C",
";  c #231B13",
":  c #2A1E12",
">  c #261E19",
",  c #34210D",
"<  c #3B240E",
"1  c #2D2115",
"2  c #2C221A",
"3  c #342312",
"4  c #3A2612",
"5  c #372817",
"6  c #3D2914",
"7  c #32261A",
"8  c #35291C",
"9  c #3B2B1A",
"0  c #352B21",
"q  c #3B2E21",
"w  c #3D3123",
"e  c #3F3529",
"r  c #40270E",
"t  c #43290F",
"y  c #432C14",
"u  c #4B2F12",
"i  c #422E19",
"p  c #463017",
"a  c #4B3115",
"s  c #45321C",
"d  c #4C341B",
"f  c #4F391D",
"g  c #543514",
"h  c #593713",
"j  c #563816",
"k  c #5B3A16",
"l  c #51371A",
"z  c #543A1C",
"x  c #5B3D1C",
"c  c #623D16",
"v  c #633F18",
"b  c #433422",
"n  c #4A3621",
"m  c #473825",
"M  c #4D3A23",
"N  c #4C3C28",
"B  c #533E24",
"V  c #593F20",
"C  c #503F29",
"Z  c #5D411E",
"A  c #664016",
"S  c #63421D",
"D  c #6B451B",
"F  c #6D481E",
"G  c #704718",
"H  c #734B1E",
"J  c #794D1B",
"K  c #7C511E",
"L  c #564023",
"P  c #5B4223",
"I  c #54432C",
"U  c #5C4528",
"Y  c #5C4A2E",
"T  c #564935",
"R  c #584932",
"E  c #634521",
"W  c #694721",
"Q  c #654924",
"!  c #6C4B23",
"~  c #634B2B",
"^  c #694C28",
"/  c #724E22",
"(  c #6D512B",
")  c #745124",
"_  c #7B5425",
"`  c #7E5827",
"'  c #73542A",
"]  c #7A5629",
"[  c #7D5A2B",
"{  c #614F31",
"}  c #6F5530",
"|  c #755D33",
" . c #7B5D32",
".. c #745D38",
"X. c #7B6034",
"o. c #825623",
"O. c #825925",
"+. c #8A5C24",
"@. c #825D2B",
"#. c #885F2B",
"$. c #86612E",
"%. c #8A622B",
"&. c #966425",
"*. c #996727",
"=. c #93662C",
"-. c #94692E",
";. c #9C6B2A",
":. c #846332",
">. c #8B6632",
",. c #8E6934",
"<. c #80683E",
"1. c #886C3D",
"2. c #946C33",
"3. c #986D32",
"4. c #916E39",
"5. c #9B7135",
"6. c #93703A",
"7. c #9A753A",
"8. c #A3712E",
"9. c #A47633",
"0. c #A97630",
"q. c #A47835",
"w. c #AA7A35",
"e. c #A0773B",
"r. c #A37B3B",
"t. c #886F40",
"y. c #8E7341",
"u. c #937440",
"i. c #997A42",
"p. c #AF843F",
"a. c #B78437",
"s. c #B3843C",
"d. c #BB8A3C",
"f. c #A78344",
"g. c #AC8341",
"h. c #A48348",
"j. c #B48B44",
"k. c #B88E44",
"l. c #B7904D",
"z. c #BB944C",
"x. c #B89450",
"c. c #BE9B54",
"v. c #C08E40",
"b. c #C09244",
"n. c #C4994D",
"m. c #CC9E4D",
"M. c #C79D50",
"N. c #C99F50",
"B. c #CFA14E",
"V. c #C6A055",
"C. c #C6A45C",
"Z. c #D4A751",
"A. c #D8AE5B",
"S. c #DDB35E",
"D. c #E1B75F",
"F. c #D0B065",
"G. c #DDB765",
"H. c #DFB863",
"J. c #E5BD64",
"K. c #E3BD68",
"L. c #E7C16C",
"P. c #E9C46E",
"I. c None",
/* pixels */
"I.I.I.I.I.I.I.I.I.I.I.I.I.I.I.I.I.I.I.I.I.I.I.I.I.I.I.I.I.I.I.I.I.I.I.I.I.I.I.I.I.I.I.I.I.I.I.I.I.I.I.I.I.I.I.I.I.I.I.I.I.I.I.I.",
"I.I.I.I.I.I.I.I.I.I.I.I.I.I.I.I.I.I.I.I.I.I.I.I.I.I.I.I.I.I.I.I.I.I.I.I.I.I.I.I.I.I.I.I.I.I.I.I.I.I.I.I.I.I.I.I.I.I.I.I.I.I.I.I.",
"I.I.I.I.I.I.I.I.I.I.I.I.I.I.I.I.I.I.I.I.I.I.I.I.I.I.I.I.I.I.I.I.I.I.I.I.I.I.I.I.I.I.I.I.I.I.I.I.I.I.I.I.I.I.I.I.I.I.I.I.I.I.I.I.",
"I.I.I.I.I.I.I.I.I.I.I.I.I.I.I.I.I.I.I.I.I.I.I.I.I.I.I.I.I.I.I.I.} I.I.I.I.I.I.I.I.I.I.I.I.I.I.I.I.I.I.I.I.I.I.I.I.I.I.I.I.I.I.I.",
"I.I.I.I.I.I.I.I.I.I.I.I.I.I.I.I.I.I.I.I.I.I.I.I.I.I.I.I.I.I.: $.l.) 3 I.I.I.I.I.I.I.I.I.I.I.I.I.I.I.I.I.I.I.I.I.I.I.I.I.I.I.I.I.",
"I.I.I.I.I.I.I.I.I.I.I.I.I.I.I.I.I.I.I.I.I.I.I.I.I.I.I.s l > 3 l k u 4 7 z I.I.I.I.I.I.I.I.I.I.I.I.I.I.I.I.I.I.I.I.I.I.I.I.I.I.I.",
"I.I.I.I.I.I.I.I.I.I.I.I.I.I.I.I.I.I.I.I.I.I.I.I.I.s 8 n >.q z 4 & 4 6 I  .7 s I.I.I.I.I.I.I.I.I.I.I.I.I.I.I.I.I.I.I.I.I.I.I.I.I.",
"I.I.I.I.I.I.I.I.I.I.I.I.I.I.I.I.I.I.I.I.I.I.I.I.> ( 1.e f.{ V V 3 x 9 1...R [ 2 7 I.I.I.I.I.I.I.I.I.I.I.I.I.I.I.I.I.I.I.I.I.I.I.",
"I.I.I.I.I.I.I.I.I.I.I.I.I.I.I.I.I.I.I.I.I.I.I.i L I x.{ 1.1.s ` ! x 8 h.R 6.{ U Z : I.I.I.I.I.I.I.I.I.I.I.I.I.I.I.I.I.I.I.I.I.I.",
"I.I.I.I.I.I.I.I.I.I.I.I.I.I.I.I.I.I.I.I.I.I.# $ U I h.X.Y f.q Q ^ 4 w 6.I 6.I ( & # * I.I.I.I.I.I.I.I.I.I.I.I.I.I.I.I.I.I.I.I.I.",
"I.I.I.I.I.I.I.I.I.I.I.I.I.I.I.I.I.I.I.I.I.I.p 3 $ L U X.I 6.L 9 | z | ..L U s = * p 9 I.I.I.I.I.I.I.I.I.I.I.I.I.I.I.I.I.I.I.I.I.",
"I.I.I.I.I.I.I.I.I.I.I.I.I.I.I.I.I.I.I.I.I.5 P j $ : L f.C.F.2.4 3 F z.V.9.Z = o 4 P z I.I.I.I.I.I.I.I.I.I.I.I.I.I.I.I.I.I.I.I.I.",
"I.I.I.I.I.I.I.I.I.I.I.I.I.I.I.I.I.I.I.I.I.1 9 1 # - h %.3.p.k.h.:.z.c.r.O.A , . $ 8 9 > I.I.I.I.I.I.I.I.I.I.I.I.I.I.I.I.I.I.I.I.",
"I.I.I.I.I.I.I.I.I.I.I.I.I.I.I.I.I.I.I.I.I.) $.Z = & t A ,.p.;.A.P.5.7.g.D t $ + y ) #.V I.I.I.I.I.I.I.I.I.I.I.I.I.I.I.I.I.I.I.I.",
"I.I.I.I.I.I.I.I.I.I.I.I.I.I.I.I.I.I.I.I.1 s s 1 = $ , g [ ,.j -.V.h ) :.j * o $ % 8 q 2 I.I.I.I.I.I.I.I.I.I.I.I.I.I.I.I.I.I.I.I.",
"I.I.I.I.I.I.I.I.I.I.I.I.I.I.I.I.I.I.I.I.8 m w : 3 p = , s 1 , ' z.y 9 6 4 @ 4 4 & 8 M i : I.I.I.I.I.I.I.I.I.I.I.I.I.I.I.I.I.I.I.",
"I.I.I.I.I.I.I.I.I.I.I.I.I.I.I.I.I.I.I.I./ 3.@.l 4 1 < ) 6.X.) -.n.o.>.,.O.u - - 3 / 2._ l I.I.I.I.I.I.I.I.I.I.I.I.I.I.I.I.I.I.I.",
"I.I.I.I.I.I.I.I.I.I.I.I.I.I.I.I.I.I.I.; q b q : = 4 < ;.K.H.0.j.G.;.M.J.w.u = = + 7 q 0 > I.I.I.I.I.I.I.I.I.I.I.I.I.I.I.I.I.I.I.",
"I.I.I.I.I.I.I.I.I.I.I.I.I.I.I.I.I.I.I.9 U ~ U i * d y K A.P.,.[ 6.o.n.S.*.t y * 4 B ~ ~ d I.I.I.I.I.I.I.I.I.I.I.I.I.I.I.I.I.I.I.",
"I.I.I.I.I.I.I.I.I.I.I.I.I.I.I.I.I.I.I./ 3.5.%.! 4 3 4 h a.S.p.` $.r.m.v.o.< < * z [ :.@.W y I.I.I.I.I.I.I.I.I.I.I.I.I.I.I.I.I.I.",
"I.I.I.I.I.I.I.I.I.I.I.I.I.I.I.I.I.I.; 0 e q 0 > % X X - +.w.%.>.4.4.q.*.h @ . # > 0 0 0 2 ; I.I.I.I.I.I.I.I.I.I.I.I.I.I.I.I.I.I.",
"I.I.I.I.I.I.I.I.I.I.I.I.I.I.I.I.I.I.9 E }  .@.' x 4 $ $ h K x ] $.v / G - @ , S ] $.>.:.^ z I.I.I.I.I.I.I.I.I.I.I.I.I.I.I.I.I.I.",
"I.I.I.I.I.I.I.I.I.I.I.I.I.I.I.I.I.I.z @.,.1.>.] P 6 * X = u h 3.q.h t - @ $ 6 V ^ ' | ] ^ z I.I.I.I.I.I.I.I.I.I.I.I.I.I.I.I.I.I.",
"I.I.I.I.I.I.I.I.I.I.I.I.I.I.I.I.I.I.; 0 m N N b 8 1 & + o @ 6 ` / - o @ X & 7 s M C C C 9 > I.I.I.I.I.I.I.I.I.I.I.I.I.I.I.I.I.I.",
"I.I.I.I.I.I.I.I.I.I.I.I.I.I.I.I.I.I.I.: ! 5.5.2.O.E u : * & $ i = o X o & p ! o.$.,.,.@.i # I.I.I.I.I.I.I.I.I.I.I.I.I.I.I.I.I.I.",
"I.I.I.I.I.I.I.I.I.I.I.I.I.I.I.I.I.I.I.. ; M I B n 8 : $ * = ; 9 1 & $ & & 9 n B U U P 7 . I.I.I.I.I.I.I.I.I.I.I.I.I.I.I.I.I.I.I.",
"I.I.I.I.I.I.I.I.I.I.I.I.I.I.I.I.I.I.: : $ a $.>.@.! V 4 : : $ 9 3 o & : 3 B ^ ] [ [ Z $ $ * I.I.I.I.I.I.I.I.I.I.I.I.I.I.I.I.I.I.",
"I.I.I.I.I.I.I.I.I.I.I.I.I.I.I.I.I.I.a ! l : 9 N M n 9 ; ; : $ 4 3 o = 4 1 7 m  .| M $ , z i I.I.I.I.I.I.I.I.I.I.I.I.I.I.I.I.I.I.",
"I.I.I.I.I.I.I.I.I.I.I.I.I.I.I.I.I.4 E =.o.6 b :.:.} 9 9 5 i ; : : + 3 y l } :.V d / p x ) v 4 I.I.I.I.I.I.I.I.I.I.I.I.I.I.I.I.I.",
"I.I.I.I.I.I.I.I.I.I.I.I.I.I.I.I.I.y / ] E S v d : W ' : : 4 $ : * O 4 d ~ ) 3 u 4 a x i W ! y I.I.I.I.I.I.I.I.I.I.I.I.I.I.I.I.I.",
"I.I.I.I.I.I.I.I.I.I.I.I.I.I.I.I.I.i / ' m W z V 9 : x Q 3 d & V ' & 9 E ! & : y 2 z y : ^ / y I.I.I.I.I.I.I.I.I.I.I.I.I.I.I.I.I.",
"I.I.I.I.I.I.I.I.I.I.I.I.I.I.I.I.I.a / 2.b P 4 )  .a : S M : * u g $ 9 P * & 6 B ^ j : 7 ] / l I.I.I.I.I.I.I.I.I.I.I.I.I.I.I.I.I.",
"I.I.I.I.I.I.I.I.I.I.I.I.I.I.I.I.I.a ) 2.I 9 p ! 5 2 1 = ! p * * $ ; ~ 6 & : 2 9 6 $ 1 q %.F d I.I.I.I.I.I.I.I.I.I.I.I.I.I.I.I.I.",
"I.I.I.I.I.I.I.I.I.I.I.I.I.I.I.I.I.p @.$.X.2 = ! P Q d $ 1 ! 6 : = V a O 6 E E f i * ; ( ` ` a I.I.I.I.I.I.I.I.I.I.I.I.I.I.I.I.I.",
"I.I.I.I.I.I.I.I.I.I.I.I.I.I.I.I.I.a / 6.$.L # a Q i 3 $ X 6 S * a l $ $ a d s S 3 X d ] $.! a I.I.I.I.I.I.I.I.I.I.I.I.I.I.I.I.I.",
"I.I.I.I.I.I.I.I.I.I.I.I.I.I.I.I.I.i S $.6.) 6 # i p 6 < = * - a d $ = - a 7 6 4 . 4 ! @.] F p I.I.I.I.I.I.I.I.I.I.I.I.I.I.I.I.I.",
"I.I.I.I.I.I.I.I.I.I.I.I.I.I.I.I.I.4 S ] $.[ l , = _ d.s.S - & < * = t *.z.8.a @ = a ( ` ) S 6 I.I.I.I.I.I.I.I.I.I.I.I.I.I.I.I.I.",
"I.I.I.I.I.I.I.I.I.I.I.I.I.I.I.I.I.u z ! $.[ Z = y 8.Z.J.s.k & @ - y ;.D.J.d.A * 3 x ! ] ! v 6 I.I.I.I.I.I.I.I.I.I.I.I.I.I.I.I.I.",
"I.I.I.I.I.I.I.I.I.I.I.I.I.I.I.I.I.* y / @.` Z = c ;.a.d.8.G - & < -.m.B.d.8.J , 3 W ` ` ! a = I.I.I.I.I.I.I.I.I.I.I.I.I.I.I.I.I.",
"I.I.I.I.I.I.I.I.I.I.I.I.I.I.I.I.I.3 4 a Z / z * h &.*.o.c < : 3 [ s.0.*.&.+.G - 4 ) ) x x a 3 I.I.I.I.I.I.I.I.I.I.I.I.I.I.I.I.I.",
"I.I.I.I.I.I.I.I.I.I.I.I.I.I.I.I.I.3 l / ) ' [ B y h h y = 3 i P ` J J J G h < - z V W ) / g = I.I.I.I.I.I.I.I.I.I.I.I.I.I.I.I.I.",
"I.I.I.I.I.I.I.I.I.I.I.I.I.I.I.I.I.< g F %.2.j.2.( a 4 6 9 s P z 6 < < < - $ * l @.#.@.` D u = I.I.I.I.I.I.I.I.I.I.I.I.I.I.I.I.I.",
"I.I.I.I.I.I.I.I.I.I.I.I.I.I.I.I.I., a F O.2.g.5.e.%.[ ' E d l 3 & @ @ $ O $ x ) ` _ F v h 6 I.I.I.I.I.I.I.I.I.I.I.I.I.I.I.I.I.I.",
"I.I.I.I.I.I.I.I.I.I.I.I.I.I.I.I.I.I.y h v _ O._ %._ _ H x r * $   . = < 4 r H D v c h u t - I.I.I.I.I.I.I.I.I.I.I.I.I.I.I.I.I.I.",
"I.I.I.I.I.I.I.I.I.I.I.I.I.I.I.I.I.I.- r u g h k c h h t , $ . . + + @ * < u g g u u u < - * I.I.I.I.I.I.I.I.I.I.I.I.I.I.I.I.I.I.",
"I.I.I.I.I.I.I.I.I.I.I.I.I.I.I.I.I.I.o & - < < r , , = & $ = 6 3 < p 4 & & & = - - = = & o o I.I.I.I.I.I.I.I.I.I.I.I.I.I.I.I.I.I.",
"I.I.I.I.I.I.I.I.I.I.I.I.I.I.I.I.I.I.+ & & & & & $ & & = p D F 3 6 H D y = = = $ $ o & & & o I.I.I.I.I.I.I.I.I.I.I.I.I.I.I.I.I.I.",
"I.I.I.I.I.I.I.I.I.I.I.I.I.I.I.I.I.I.o = 4 4 y y 6 y a x F O.F s f ) K D k y y y y 3 - - & I.I.I.I.I.I.I.I.I.I.I.I.I.I.I.I.I.I.I.",
"I.I.I.I.I.I.I.I.I.I.I.I.I.I.I.I.I.I.I.= u a 6 3 i i 6 d d z F F ! Z l z d 6 y i : y < < * I.I.I.I.I.I.I.I.I.I.I.I.I.I.I.I.I.I.I.",
"I.I.I.I.I.I.I.I.I.I.I.I.I.I.I.I.I.I.I.= u g z 6 6 i p z z P Q 5 9 S f z i a s 3 p g y < & I.I.I.I.I.I.I.I.I.I.I.I.I.I.I.I.I.I.I.",
"I.I.I.I.I.I.I.I.I.I.I.I.I.I.I.I.I.I.I.& y c x P 9 s z b s Q z 5 9 Z z 9 6 9 6 s Z g u - & I.I.I.I.I.I.I.I.I.I.I.I.I.I.I.I.I.I.I.",
"I.I.I.I.I.I.I.I.I.I.I.I.I.I.I.I.I.I.I.& 6 c H x x z d B n Z d 5 7 Z a d s p M Z a h y - I.I.I.I.I.I.I.I.I.I.I.I.I.I.I.I.I.I.I.I.",
"I.I.I.I.I.I.I.I.I.I.I.I.I.I.I.I.I.I.I.I.6 k D F z P E E f f z 8 8 z f z x Z z j F k y & I.I.I.I.I.I.I.I.I.I.I.I.I.I.I.I.I.I.I.I.",
"I.I.I.I.I.I.I.I.I.I.I.I.I.I.I.I.I.I.I.I.- l v _ / @.E S x p d P z 9 Z S ! S F S F x , & I.I.I.I.I.I.I.I.I.I.I.I.I.I.I.I.I.I.I.I.",
"I.I.I.I.I.I.I.I.I.I.I.I.I.I.I.I.I.I.I.I.& y Z ! ! -.] =.) Q z 9 5 P ( ) -.) ! x Z y - @ I.I.I.I.I.I.I.I.I.I.I.I.I.I.I.I.I.I.I.I.",
"I.I.I.I.I.I.I.I.I.I.I.I.I.I.I.I.I.I.I.I.& < g ! ! -.] %.) ! d 9 s Z ` ` #./ S x a t - I.I.I.I.I.I.I.I.I.I.I.I.I.I.I.I.I.I.I.I.I.",
"I.I.I.I.I.I.I.I.I.I.I.I.I.I.I.I.I.I.I.I.$ , h k x +.] %./ %.W V Z $.%.) ` F Z j c t * I.I.I.I.I.I.I.I.I.I.I.I.I.I.I.I.I.I.I.I.I.",
"I.I.I.I.I.I.I.I.I.I.I.I.I.I.I.I.I.I.I.I.I.= a c x _ / O./ %.x P Z [ ` ) ` F j S h < & I.I.I.I.I.I.I.I.I.I.I.I.I.I.I.I.I.I.I.I.I.",
"I.I.I.I.I.I.I.I.I.I.I.I.I.I.I.I.I.I.I.I.I.$ , h j F ! / ! O.E Q P ` J F F A a h r = $ I.I.I.I.I.I.I.I.I.I.I.I.I.I.I.I.I.I.I.I.I.",
"I.I.I.I.I.I.I.I.I.I.I.I.I.I.I.I.I.I.I.I.I.X $ = , g k S v H j 3 6 F F S S h , = & $ X I.I.I.I.I.I.I.I.I.I.I.I.I.I.I.I.I.I.I.I.I.",
"I.I.I.I.I.I.I.I.I.I.I.I.I.I.I.I.I.I.I.I.I.$ $ $ $ , y a g k g g a c k h a < & & & $ I.I.I.I.I.I.I.I.I.I.I.I.I.I.I.I.I.I.I.I.I.I.",
"I.I.I.I.I.I.I.I.I.I.I.I.I.I.I.I.I.I.I.I.I.I.$ = = , - , < t , y 6 u < < , = = = $ I.I.I.I.I.I.I.I.I.I.I.I.I.I.I.I.I.I.I.I.I.I.I.",
"I.I.I.I.I.I.I.I.I.I.I.I.I.I.I.I.I.I.I.I.I.I.I.I.I.I.I.$ $ & & & & & * * $ I.I.I.I.I.I.I.I.I.I.I.I.I.I.I.I.I.I.I.I.I.I.I.I.I.I.I.",
"I.I.I.I.I.I.I.I.I.I.I.I.I.I.I.I.I.I.I.I.I.I.I.I.I.I.I.I.I.I.I.I.I.I.I.I.I.I.I.I.I.I.I.I.I.I.I.I.I.I.I.I.I.I.I.I.I.I.I.I.I.I.I.I."
};
