/* XPM */
static char *_110766e0d9c4076d0dbc5ca00d51572JWQRvm9EsWGRK81G[] = {
/* columns rows colors chars-per-pixel */
"64 64 171 2 ",
"   c #4B2407",
".  c #4A260C",
"X  c #4E290D",
"o  c #502D0F",
"O  c #4D2913",
"+  c #502C16",
"@  c #563317",
"#  c #5E3217",
"$  c #5B361B",
"%  c #5E3A1E",
"&  c #633B1E",
"*  c #5E3A21",
"=  c #623D23",
"-  c #654126",
";  c #6A4226",
":  c #674229",
">  c #6B452A",
",  c #6E492E",
"<  c #70472B",
"1  c #724B2E",
"2  c #6B4731",
"3  c #6E4A31",
"4  c #724D32",
"5  c #794E34",
"6  c #724E38",
"7  c #765135",
"8  c #7B5235",
"9  c #765239",
"0  c #7B553A",
"q  c #7D593D",
"w  c #7C5640",
"e  c #7E5A41",
"r  c #815236",
"t  c #81573B",
"y  c #835B3D",
"u  c #885C3F",
"i  c #805741",
"p  c #835D42",
"a  c #895E42",
"s  c #835E48",
"d  c #856145",
"f  c #8A6346",
"g  c #866349",
"h  c #8B654A",
"j  c #8D694D",
"k  c #916545",
"l  c #91664B",
"z  c #936B4E",
"x  c #996D4D",
"c  c #9A714E",
"v  c #8C6750",
"b  c #8F6A51",
"n  c #936D52",
"m  c #996E53",
"M  c #946F58",
"N  c #957155",
"B  c #9B7255",
"V  c #96735A",
"C  c #9B755A",
"Z  c #9D795D",
"A  c #A17555",
"S  c #A47957",
"D  c #A1775B",
"F  c #A37A5D",
"G  c #A87B5E",
"H  c #9B7760",
"J  c #9E7B61",
"K  c #A37D62",
"L  c #A97E61",
"P  c #A97E63",
"I  c #A47F6C",
"U  c #A9815E",
"Y  c #9F8061",
"T  c #A38062",
"R  c #A58065",
"E  c #A48364",
"W  c #A68166",
"Q  c #A78267",
"!  c #A58465",
"~  c #A58165",
"^  c #A88162",
"/  c #A98164",
"(  c #A98265",
")  c #AA8364",
"_  c #AD8164",
"`  c #AF8064",
"'  c #AF8366",
"]  c #AE8265",
"[  c #AD8466",
"{  c #AA8365",
"}  c #AC8A66",
"|  c #A58169",
" . c #A68369",
".. c #A88368",
"X. c #A98469",
"o. c #A98668",
"O. c #AA856A",
"+. c #AB866B",
"@. c #A9856D",
"#. c #AC876C",
"$. c #AB856A",
"%. c #AA896A",
"&. c #AF8869",
"*. c #AC896B",
"=. c #AD886D",
"-. c #AD8B6C",
";. c #AE896E",
":. c #AF8A6F",
">. c #AD896D",
",. c #B08366",
"<. c #B28565",
"1. c #B38966",
"2. c #B18568",
"3. c #B28669",
"4. c #B1866B",
"5. c #B1886A",
"6. c #B18A6B",
"7. c #B78A6D",
"8. c #B78B6E",
"9. c #B38C6D",
"0. c #B28B6D",
"q. c #B88B6E",
"w. c #B98D6A",
"e. c #B5936E",
"r. c #BA926F",
"t. c #AB8670",
"y. c #AF8B71",
"u. c #B08B70",
"i. c #B18C71",
"p. c #B38E73",
"a. c #B48F74",
"s. c #B38D72",
"d. c #BB8E71",
"f. c #B98F73",
"g. c #B59075",
"h. c #B69375",
"j. c #B69176",
"k. c #B69275",
"l. c #B99273",
"z. c #BA9374",
"x. c #BA9275",
"c. c #B69278",
"v. c #BA957A",
"b. c #BB967B",
"n. c #BE9778",
"m. c #BB957A",
"M. c #BD987D",
"N. c #BD997C",
"B. c #C09376",
"V. c #C09376",
"C. c #C0977A",
"Z. c #C0997A",
"A. c #C19A7B",
"S. c #C19B7D",
"D. c #BA9681",
"F. c #BD9981",
"G. c #C09781",
"H. c #C29D82",
"J. c #C89F82",
"K. c #C5A285",
"L. c #C8A182",
"P. c #CAA285",
"I. c #C6A289",
"U. c #CBA689",
"Y. c #CEAA8E",
"T. c #D0A78B",
"R. c #D2AF8F",
"E. c #D1AE91",
"W. c #D5B196",
"Q. c #D9B59A",
"!. c #DCBB9C",
/* pixels */
"A.6.B z D G D P B m D B B G x m A x A B A S x S z B m B B z f m m C C m z B C B D m F ) C N N N Z n V C n n N n C n n C Z n n V ",
"L.z.F m m k y t y 8 y 8 t f y a S x A A A A k x z z z m C z k B z B B B m m B m m k B F N N C N N n m N n n N m N h d m C m n C ",
"9.) C B D L G S G m A m B D k k x k x x x B k x m z h z B h f m B m B C F B m m m k N F B C W W >.>.>.>.>.i.i.i.$.N j C K V n N ",
"n.6.G B A ,.7.` 4.G 4.` ` L f a D x F B B B z D C m n B K m z K F B B G L D B C B z B C C F &.%.$.>.>.$.i.a.u.u.m.K N K $.K C Z ",
"l.) F m z L ,.x G m G G G A y y z u a 8 < 1 ; 8 3 , > 9 p 7 7 h K B m D G C C F C m B B N Z $.W Z $.W K >.>.K K >.n h Z $.K K W ",
"^ B D D D d.d.k 7.G ` L D B u k ^ B G m k z f B n n n C C d p C C m m B B B B C F B B C B T >.Q $.m.>.K h.h...$.#.n g Z $.K Z K ",
"A.&.6.[ L B.q.r d.` q.4.G z 8 u B m ) ) K K B K K | | @.J e 9 n z m B m m B B B C B C C C &.h.>.$.N.W m #.i.W >.i.N j K #.Z N K ",
"A.) ^ G D B.d.r L G x.C.7.B t a f l [ 0.&.) m B V J K @.H q 9 N h B F B m C C m m z B B C >.h.>.#.N.K h K >.W i.W h h K #.Z V K ",
"N.$.9.T n z.S.p B C n.4.H.) h a h p i.$.$.B T 9.i.i.$.Z K h , N j b b j m V B m B x m l z u.H.K J i.K V m.K f.d.4.C p 4.L C Z K ",
"n.$.i...C N.H.p f B z.+.0.D y y C m N.>.T B W 0.$.i.N.p.J q 7 Q j n N N C F C m F z m B B $.m.$.J i.#.i.M.K $.m C m f d.K K K L ",
"N.>.i.+.K S.N.p z C 0.p.7.z.z y N n h.K z N $.0.Z J F.F.Z 7 7 W g j N N C Z V m A k z B F W i.>.K #.i.K.u.+.L p p m m d.K L L L ",
"S.p.i.$.T N.m.d 0 f C +.C 4.f y h h >.C q j W $.C n m.H.J q 4 n g j n n m B m l A x z B ) i.i...W T >.I.F u.$.g 5 F F u.K K K L ",
"H.x.i.W ) H.S.C > 8 B ) a m t y j h 0.K 7 j W ) Z Z K.Y.W e 4 g j n N n n m m m B A m z +.H.a.C $.K h.I.V z.z.V 4 K F $.F K F P ",
"S.N.p.) &.K.U.p.z 5 f D m C y < f p ..$.4 j $.9.N >.W.I.Z 0 , j j n N n z m m m x D x f W m.K d >.W K.I.Z z.n.K 4 P C L Z K F ..",
"N.N.h...>.K.U.N.4.4 a C G B f < z y W 0.> d T i.h >.K.%.n e 4 N b V C C C Z F C B _ A z ) $.j e >.W E.h.C +.m.#.0 $.m F F K m L ",
"n.H.x...$.n.S.z.d.k C.J.7.z F ) 0.N i.m.- 0 m K h W $.j N N p Z V K #.>.4.u.u.4.1.l.4.[ z.W h j >.W Y.K n F z.f.p :.m F L Z h C ",
"S.8.A.L B U.U.B B C x.0.d.B C C.>.$.>.Z Z 4 > g j B W a f ..K h.C q N %.%.g.>.$.i.K K >.p.p.9 n $...N.a.j Z m.>.7 H.d W N N C N ",
"L.d.S.[ F P.P.F 1 B p.a z B F ` K K >.K K V V #.Z Z z B &.>.$.) K p B $.$.i.>.%.p.K C $.b.c.4 N C ..m.K p W H.K p U.j >.Z C C n ",
"x.G 8.` F J.P.[ 1 m ` f ` ) C ) ..K >.K n W W u.$.i.h N $.K 0.C K q N Q Q 9.%.$.n Z | p.m.$.4 h.C $.m...m $.i.h p m.h $.K Z Z C ",
"^ f F F B l.A.` y m F a p.p.F ) u.C >.K p m N W d p.T j m K >.N C 7 j T W &.W T d Z @.h.c.K > i.h...>.i.$.$...C h #.p K Z C K K ",
"K a m z f L [ m > m C & a K K C ..d W Z p g h #.7 C h.C C 0.Z B B 8 m +...) C C @.W J @.b.>.= p H.$.K K W >.h.m.W >.h K Z N Z K ",
"G y l f a K ^ f = t K a k m F ) Z 4 W j j p p $.$.Z >.Z T $.j K F y F z.&.T B C >.W | >.>.y.3 e $.i.>.K $.h.i.W >.Z d Z K N K K ",
"G u k f u ` ) a h 1 F 7.d.D K p.n 4 $.0 Z h p Z m.&.T W $.Z z K G a L S.0.K C ) K J c.p.V >.b K Z u.i.>.>.$.Z n >.n p Z W C K K ",
"4.l m f y ^ F 4 7.0 z z G 0.n.K h 4 i.4 i.K j Z 0 W W x.n.K K n D u L C.0.K K 8.y.K h.>.n m.W K >.W Z W ..N N i.M.N n $.>.C Z Z ",
"K h f z B +.K # F 8 j f N K i.W C > K = j K p K N 0 V s G.#.F B F 0 K 7.l.c F z.1.<.p.C 3 u.+.x F G K ) F F L p.m.K 4 n a.K Z h ",
"F f f k h K D & F = h j n C K +.n d Z - N n 0 N V 9 V s a.K B c C 0 K ^ F x G <.1.[ x.e 9 Z 0.,.) +.4.+.F m B K H.#.N h V C j C ",
"G h z z h K F ; $.% h j n K ..W p T n - T q q j n 9 V e t...B U C t ) ^ x S r.1.1.U H.> h h G d.K +.z.0.F h z B H.i.u.g g Z h Z ",
"K f z z h ) D > i.1 y h j B p.C q N.d - h.7 d V C q V w K a.F [ K 0 K ` f B 1.F 1.[ H.> K h a ,.C ) C.0.K f m B h.h.>.j n ..m n ",
"F t h f f +.m = g.0 7 B j ; K F g Y.q - H.9 d T #.b K 6 m z.x B l.f ^ x.z F 1.U w.[ 0.3 | K > S F +.J.+.K a z m $.N.W C Z Z K m ",
"K 0 k a a 4.m ; n.0 8 h.)   0 0.K Y.e - U.e 7 W  .V | : i M.x B ^ t m 6.z [ r.l.w.^ C > K a.; D +.d.T.) K 0 h f K N...$.K d K K ",
") 0 z y 0 +.m 1 H.4 d g.H.4 $ C h.m.d - Y.j = K C Z p.= , H.A F h 8 0 f 8 F [ 6.w.S N = K H.> B 0.p.U.F F 0 k f K ....a.>.n n W ",
"K 8 z 8 1 G z 8 H.> h N Y.0.X ; N.W d - E.N @ J Z >.H.= = C.B F 4.K B l t 1.6.6.1.c C = $.H.< k ) +.H.B F t m k W h K c.H.#.p Z ",
"W N >.K 0 K n p H.> >.n N.K n j e.} f 4 R.N - i.T &.P.5 # z.x.K x.m m z B 4.4.p.W h.p = i.h.4 Z >.i.Y.h Z d 0 h B j Z a.a.H.C K ",
"W n $.K q K j p i., >.K K.#.K W e.-.j 1 Y.j - :.Q C S.z & ; Y.%.K C T f y F 0.+.$.i.p > i.$.: N Z K H.d N p 0 j C N F i.$.p.n H ",
"K h Z K d K p p C 7 K $.h.n g j &.o.N 7 W.h -  .K n S.L 5   :.Y.W T m.Q N g.m.9.$.>.q 4 a.Z % j C Z K.g n 0 7 d T F W h.| >.M K ",
"Z p m Z h Z 0 q C h ..m.m.h 0 q C Z Z y Q.j > | Z ..K.G a 1 % K.K.Z %.i.T >.:.>.i.$.7 q m.N % g K K Y.n n 0 0 d z z n W C J v C ",
"Z p h N j Z 4 q h q C a.H.N q p C C W p Q.b e c.Q b.U.F B j o d !.T %.%.N T h.h.h.W , p H.V - h K Z Y.N n p h n j j d W C Z n n ",
"Z p d j j K 4 p 7 = h V H.m 4 7 K C $.9 Y.d v I.%.i.U.4.7.j C % W N N.h.n :.U.N.h.W , d N.V 7 n $.Z Y.V n p j n z N d W Z Z n n ",
"K h d d j W 0 d d = Z n U.Z , 0 Z N $.3 H.0 d D.Z Z P.d.d.m h.g 8 , ..g.z +.S.0.u...4 h h.n p C i.Z Y.N j p n j d z 0 C j h h h ",
"W n g p j >.p h h % ..h Y.Z , q b h  .3 F.3 9 I N Z H.4.G F q h.L 1 B d.m G x.d.$.#.7 h >.h d K $.m K.N n j K Z z C f W N n H K ",
">.h Z Z j W d Z K $ N z K.K 4 9 b p y.4 W.h 4 $.J V >.N.n h 5 5 T h C 4.k ) &.g.p.C z F h p C C E T K.d j p K ..Z n n C K d d K ",
"W d N K n W 0 p C $ N N N.C , 9 n d C , b.j 4 W Z n  .c.m m 0 4 N h C 7.z B z W F 4 1 m j 4 n T N Y K.N d 4 z ..Z g 0 Z >.K n C ",
"K p h V j Z , > n $ n N g.z > 9 n d s = C h 3 C J n W a.m F p 4 N n C $.m j q %.$.0 a V Z 4 C W N T K.>.f 0 a C K h 4 K #.m.K $.",
"#.h d b d V 7 3 v % h B 9.j : 9 n s d = b e 9 n Z n K i.m F p 4 N N h C m j 0 h.f.F 0.F Z 9 $.J C T m.b.N F j h Z j 0 $.N i...H.",
"y.V j N d C d p b = a C 9.z > 9 b p V 7 C 9 d N h e N >.n B 0 4 z j 0 k B z 7 i.$.C p.C n , W J g N 9.N.m p.F l N g 0 $.j #.$.H.",
"K N h V g N j d v > y F 9.n , 9 j q J d C , b V 0 : p W z z 5 9 j h 0 z G F 7 K #.m K K n * N #., q $.n.h ) L G C p 0 $.Z m.h.u.",
"C N d N d N j p g , y ..-.j , 9 n p V C n 4 n K q % 7 W m h 4 5 j f y z D K p Z d.C Z +.n 4 J h.p 4 F n.z B G L K q p W W h.c.K ",
"W Z p b d V C h s 4 p &.o.f , e K b n y.n p Z p.j * 4 $.C z , 4 h p 8 a l F h T F C B F d j h.c.$.4 B C.L m B D W q d C m Z >.Z ",
"Z j g y 0 z F a V : B 6.T j : 3 z p C N 9 4 t.C 9 9 $ t.J 0 e 3 d 1 , 7 y 1 & z C C N C d a z.i.K , N K.i.Z $.>.Z h 4 C g Z H.m.",
"N d d d a B K h b = m &.F m > 4 j p Z C 9 4 @.V s 6 O I t.w 6 9 j y f j N N j T >.>.W &.d n m.$.Z > j N...B +.h.#.W N h.Z Z $.K ",
"g q d h h F ) z h % n ..C C > 4 d q Z C 9 3 @.V V w . V D.g 3 s C z K C B C N N C F C +.8 K S.T C > d x.C j ..h.N Z n >.C n n n ",
"h q d j f C K k b = N ..N K - 4 q 0 V V 9 3 t.H J s + e D.H 2 s W j W C z f d 0 p j j F > >.N.C C 4 y m.n a K 9.n N d C C Z V $.",
"h q p h d m F z n = N T j $.- 9 h q C V 9 3 t.H V v * * @.| 2 6 | p Z m n q p q f n n C , h.g.n C 8 q S.z p K >.C n q h n K m ..",
"h 0 q f a m F m b = n C d g.> e B h Z C 9 3 t.V n b 9 O V t.4 2 K e C h N 9 q p h N N z 0 N.>.N B 0 7 K.n f ) 0.n e 0 h h K j C ",
"h 0 q h d z F m n = n B q z.: e C g Z C e 9 t.M M b h O b t.6 3 M s C 9 n 9 9 9 p j z q h N.$.C C y , K.n h $.>.C q g Z n #.Z K ",
"j q d j f z C z V - n N 7 h.= 9 j q N V e 9 t.n M g b O d K 3 2 e p V > n p w 0 f z n 4 N m.F C W f , K.j f ..$.N 4 d C q Z N C ",
"j 7 p n h C $.n Z % N Z X H.4 , N z j n d > | d g j b , - W 7 - 4 0 p h n n p 4 j d n 7 N.W N N ) z 1 P.m f C ) n p h j N V d g ",
"n 7 p j p n K j N - p W : $.n h N z j j 0 : y.C h h h - $ V q p = = % - 7 d p 9 n j C q N.$.C C K z 0 P.K z L L h 0 d j Z $.K $.",
"n q p h p n Z j m 4 7 >.g n $.K N C C N p 4 y.@.h h j 4 > C n W h p 7 0 h C C n N n K h m.$.Z K T B z n.[ l F h d 7 q q h C N K ",
"V h j N n C K C Z d p $.Z h >.K N F T  .n s K J i.#.u.N p h 0 p Z C m n Z K K N C N W n i.$.J W n.9.g.H.P.[ m.C >.Z K Z K #.W >.",
"p 0 0 q q p p 0 p , 9 q p 0 q 7 7 q q d 7 3 9 3 > > 0 0 p p 0 q 7 0 0 0 q p p p e 0 h q j j d h y 0 d a C f C p j d j g h V n C ",
"j j h h h h p q h q h 0 d n 0 0 d g q g q d e e h g j d j p p 0 d h j d p h n N n g N j N C b N C N Z N %.T &.K Z Z $.K K i.$.i.",
"p d q q p q 7 9 9 q 9 4 0 p , q q y 7 q 7 d 7 e 4 7 q 7 d q j p q q q 7 4 9 0 q h q g d p j d d f g h q j g g h d d n p p j d j ",
"C Z C N Z Z C K m W h N N m j W N Z N Z N W h V j C K n Z j K n N C C C Z K K C W N J Z C  .Z Z C Z T Z Q Q Z :.>.>.m.$.W i.>.h."
};
