/* XPM */
static char *mummy_1[] = {
/* columns rows colors chars-per-pixel */
"64 64 69 1 ",
"  c #170E07",
". c #180F07",
"X c #180F08",
"o c #181007",
"O c #1C1209",
"+ c #22160B",
"@ c #26180C",
"# c #2B1B0D",
"$ c #311F0F",
"% c #311F10",
"& c #33200F",
"* c #352211",
"= c #3B2512",
"- c #3D2813",
"; c #432B15",
": c #4A2E16",
"> c #4C3017",
", c #45321A",
"< c #4D3118",
"1 c #503217",
"2 c #533419",
"3 c #58371A",
"4 c #55391B",
"5 c #5C3A1B",
"6 c #633E1D",
"7 c #5F411E",
"8 c #65401E",
"9 c #6A421F",
"0 c #594222",
"q c #644621",
"w c #6D4520",
"e c #644823",
"r c #6A4D27",
"t c #714720",
"y c #744A22",
"u c #7A4D23",
"i c #704F28",
"p c #7D5125",
"a c #7F5428",
"s c #835426",
"d c #885727",
"f c #885827",
"g c #845628",
"h c #885728",
"j c #865829",
"k c #8C5C2A",
"l c #905F2B",
"z c #8E612F",
"x c #94632E",
"c c #99662F",
"v c #946530",
"b c #996730",
"n c #9C6A32",
"m c #A16E33",
"M c #A57136",
"N c #A97537",
"B c #A57439",
"V c #AA7639",
"C c #AD7A3B",
"Z c #B17D3D",
"A c #B3803F",
"S c #B68241",
"D c #BA8643",
"F c #BD8A46",
"G c #BE8D49",
"H c #C08C47",
"J c #C18E49",
"K c #C4914B",
"L c None",
/* pixels */
"LLLLLLLLLLLLLLLLLLLLLLLLLLLLLLLLLLLLLLLLLLLLLLLLLLLLLLLLLLLLLLLL",
"LLLLLLLLLLLLLLLLLLLLLLLLLLLLLLLLLLLLLLLLLLLLLLLLLLLLLLLLLLLLLLLL",
"LLLLLLLLLLLLLLLLLLLLLLLLLLLLLLLLLLLLLLLLLLLLLLLLLLLLLLLLLLLLLLLL",
"LLLLLLLLLLLLLLLLLLLLLLLLLLLLLLLLLLLLLLLLLLLLLLLLLLLLLLLLLLLLLLLL",
"LLLLLLLLLLLLLLLLLLLLLLLLLL          o LLLLLLLLLLLLLLLLLLLLLLLLLL",
"LLLLLLLLLLLLLLLLLLLLLLLLL@%=-,,,,,-=*#LLLLLLLLLLLLLLLLLLLLLLLLLL",
"LLLLLLLLLLLLLLLLLLLLLLLLo*wxCGGGFZBku5@oLLLLLLLLLLLLLLLLLLLLLLLL",
"LLLLLLLLLLLLLLLLLLLLLLL+2uBSFKSCnnnBmv8;XLLLLLLLLLLLLLLLLLLLLLLL",
"LLLLLLLLLLLLLLLLLLLLLL+&ynFADFVmzlcDANf5@LLLLLLLLLLLLLLLLLLLLLLL",
"LLLLLLLLLLLLLLLLLLLLLO;8znndzNAJGFFJNfs9;@oLLLLLLLLLLLLLLLLLLLLL",
"LLLLLLLLLLLLLLLLLLLLLO-5uvANVAJKKFSCxp854#oLLLLLLLLLLLLLLLLLLLLL",
"LLLLLLLLLLLLLLLLLLLLLO-59vGDDGGFFACcku246#oLLLLLLLLLLLLLLLLLLLLL",
"LLLLLLLLLLLLLLLLLLLLLo7xnNVcnCMnmZHZCNs8:@oLLLLLLLLLLLLLLLLLLLLL",
"LLLLLLLLLLLLLLLLLLLLLo:987775q745eree81<2#.LLLLLLLLLLLLLLLLLLLLL",
"LLLLLLLLLLLLLLLLLLLLLO&;+OoOO+++OOOOOOO=5#.LLLLLLLLLLLLLLLLLLLLL",
"LLLLLLLLLLLLLLLLLLLLLO;5#OO$**85+OOOOOO=5$.LLLLLLLLLLLLLLLLLLLLL",
"LLLLLLLLLLLLLLLLLLLLLO:8**;5qivk2:;*#+=:4#oLLLLLLLLLLLLLLLLLLLLL",
"LLLLLLLLLLLLLLLLLLLLLO:8;5pxCKJDMxsw;#t8:@oLLLLLLLLLLLLLLLLLLLLL",
"LLLLLLLLLLLLLLLLLLLLLO*2wxSDFKVBDSCxs63;@+oLLLLLLLLLLLLLLLLLLLLL",
"LLLLLLLLLLLLLLLLLLLLLX#=qjCGKKCVJFZcku5;OXLLLLLLLLLLLLLLLLLLLLLL",
"LLLLLLLLLLLLLLLLLLLLLLO@>6pSJJGJJZmsuut:+LLLLLLLLLLLLLLLLLLLLLLL",
"LLLLLLLLLLLLLLLLLLL.XXOO#4sjzmCZZVmxy4=#OXXXoLLLLLLLLLLLLLLLLLLL",
"LLLLLLLLLLLLLLLLLL#$***&O;wtsnCZCMck6*+@#$**&#LLLLLLLLLLLLLLLLLL",
"LLLLLLLLLLLLLLLLLO:6yyy8$O#pMKGKHny1*OO$:8ty8;oLLLLLLLLLLLLLLLLL",
"LLLLLLLLLLLLLLLL#;wklspk5=+;<0007,-%@O*,9dxxu6;+LLLLLLLLLLLLLLLL",
"LLLLLLLLLLLLLLLo#5gbxpucs5*$#++++@++@*2wdcMNxu6+XLLLLLLLLLLLLLLL",
"LLLLLLLLLLLLLLLO*usu86wknnxp7;;;;;;-26kxxcVDDnp#.LLLLLLLLLLLLLLL",
"LLLLLLLLLLLLLLLo&9xbs4;tvVCBzy6559yupklsy8pvnkt#.LLLLLLLLLLLLLLL",
"LLLLLLLLLLLLLLLO&9mAm>@2jVFFZnsuulccbxsw2;4tsu6@XLLLLLLLLLLLLLLL",
"LLLLLLLLLLLLLLLo-xZDM,O@4gMmVACVNNNkut3;#3ulckt#.LLLLLLLLLLLLLLL",
"LLLLLLLLLLLLLLLo-nNMs4=+*4ujxnzjlkgw4;*=:pxmxs6@.LLLLLLLLLLLLLLL",
"LLLLLLLLLLLLLLLo-kxx9t8%@#;wtt55663:$O+;tmZCky5@.LLLLLLLLLLLLLLL",
"LLLLLLLLLLLLLLLO%6ydbCZk6=+@@@@@@@@+X+;wkZDHSx9@XLLLLLLLLLLLLLLL",
"LLLLLLLLLLLLLLLO%wzMZFDbzi155>;%$@@;25ypknCDCh6@XLLLLLLLLLLLLLLL",
"LLLLLLLLLLLLLLLO%kCHJHSlZVfMbs63;#$ylnbkdunSlt2+XLLLLLLLLLLLLLLL",
"LLLLLLLLLLLLLLLO%yzVHVbjZSVs92%@@=3bmbukNMmby5:+oLLLLLLLLLLLLLLL",
"LLLLLLLLLLLLLLLL%1ufbzjuvmz3;%%$$1wlxxyhmmnxy2*OLLLLLLLLLLLLLLLL",
"LLLLLLLLLLLLLLLLL+2w6yu6yt5#X+;>:566slysluhcs:oLLLLLLLLLLLLLLLLL",
"LLLLLLLLLLLLLLLLLL#%<34:=%#+#;;;;*#$%;16y355=#LLLLLLLLLLLLLLLLLL",
"LLLLLLLLLLLLLLLLLLL+%===@###%::11;%@@@*;2==*OLLLLLLLLLLLLLLLLLLL",
"LLLLLLLLLLLLLLLLLLLL+O++=:3656yuut6;;=+X+++XLLLLLLLLLLLLLLLLLLLL",
"LLLLLLLLLLLLLLLLLLLLLX+=:6yghkxbbdut63;;%@XLLLLLLLLLLLLLLLLLLLLL",
"LLLLLLLLLLLLLLLLLLLLLX#36wygspjzlsu69632:#XLLLLLLLLLLLLLLLLLLLLL",
"LLLLLLLLLLLLLLLLLLLLLX*ssy631;36t6613tut8#XLLLLLLLLLLLLLLLLLLLLL",
"LLLLLLLLLLLLLLLLLLLLLX-nmmngt62:2236pvnp:#oLLLLLLLLLLLLLLLLLLLLL",
"LLLLLLLLLLLLLLLLLLLLLX=bNMnsy65369ygklbp2#oLLLLLLLLLLLLLLLLLLLLL",
"LLLLLLLLLLLLLLLLLLLLLX*uxly336ysnmmmkyuut%XLLLLLLLLLLLLLLLLLLLLL",
"LLLLLLLLLLLLLLLLLLLLL -nCVms6:;=;3wlnnnf8#XLLLLLLLLLLLLLLLLLLLLL",
"LLLLLLLLLLLLLLLLLLLLL.;VZCMkt:@OX%3gvnbs3#oLLLLLLLLLLLLLLLLLLLLL",
"LLLLLLLLLLLLLLLLLLLLL.-nBxuy85#OO;6tyy62;@oLLLLLLLLLLLLLLLLLLLLL",
"LLLLLLLLLLLLLLLLLLLLL.=kCCnt1$@LL#%5ulls8#.LLLLLLLLLLLLLLLLLLLLL",
"LLLLLLLLLLLLLLLLLLLLLo*kZCnt:OLLLX+:ylxs8$oLLLLLLLLLLLLLLLLLLLLL",
"LLLLLLLLLLLLLLLLLLLLL.-mVbuu5+LLLO@=16y6:@.LLLLLLLLLLLLLLLLLLLLL",
"LLLLLLLLLLLLLLLLLLLLLo$9au95;OLLLO@2wsfu5#.LLLLLLLLLLLLLLLLLLLLL",
"LLLLLLLLLLLLLLLLLLLLLo#5yyt3;+LLLX@2tsdu8#.LLLLLLLLLLLLLLLLLLLLL",
"LLLLLLLLLLLLLLLLLLLLLo*snbhy1XLLLX+=16tuu$.LLLLLLLLLLLLLLLLLLLLL",
"LLLLLLLLLLLLLLLLLLLLLo&udu65;OLLLO@:6usy5#.LLLLLLLLLLLLLLLLLLLLL",
"LLLLLLLLLLLLLLLLLLLLLo$yu954;OLLLX@3ysdt2#.LLLLLLLLLLLLLLLLLLLLL",
"LLLLLLLLLLLLLLLLLLLLLo=xxxfy<OLLLO@;6ywyy#oLLLLLLLLLLLLLLLLLLLLL",
"LLLLLLLLLLLLLLLLLLLLX:8sut64;OLLLO@29sflk5= LLLLLLLLLLLLLLLLLLLL",
"LLLLLLLLLLLLLLLLLLLL#8ss62::*+LLL.@5yslccs2$LLLLLLLLLLLLLLLLLLLL",
"LLLLLLLLLLLLLLLLLLo$6sxls965;+LLL.@;159sknf8#XLLLLLLLLLLLLLLLLLL",
"LLLLLLLLLLLLLLLLLLO@;:42:;*=$OLLLO+@$*;;<42;+oLLLLLLLLLLLLLLLLLL",
"LLLLLLLLLLLLLLLLLLO+OOOOOOX+OOLLLO+O+X+XOOoOOoLLLLLLLLLLLLLLLLLL"
};
