/* XPM */
static char *mummy_2[] = {
/* columns rows colors chars-per-pixel */
"64 64 113 2 ",
"   c #170F07",
".  c #170F08",
"X  c #180F08",
"o  c #1D1309",
"O  c #21160A",
"+  c #26180B",
"@  c #2B1C0C",
"#  c #311F0D",
"$  c #24200A",
"%  c #262B0A",
"&  c #35210E",
"*  c #39240F",
"=  c #3B290F",
"-  c #27310A",
";  c #2A340A",
":  c #30370C",
">  c #373B0C",
",  c #372310",
"<  c #3C2610",
"1  c #3F2811",
"2  c #422711",
"3  c #442A12",
"4  c #4A2E13",
"5  c #4E3114",
"6  c #483F13",
"7  c #4E3519",
"8  c #533415",
"9  c #593717",
"0  c #5B3917",
"q  c #533718",
"w  c #523A1C",
"e  c #5E3B18",
"r  c #633D19",
"t  c #364E0D",
"y  c #3E570E",
"u  c #3A5B0E",
"i  c #3C750D",
"p  c #4C4B13",
"a  c #584515",
"s  c #584F15",
"d  c #435110",
"f  c #475811",
"g  c #4D5E10",
"h  c #535E13",
"j  c #66411B",
"k  c #6C431C",
"l  c #624919",
"z  c #72471C",
"x  c #75491E",
"c  c #7B4C1F",
"v  c #68561A",
"b  c #457D0E",
"n  c #516912",
"m  c #5F7717",
"M  c #754C21",
"N  c #7B4E20",
"B  c #7D5122",
"V  c #7B5E22",
"C  c #835423",
"Z  c #885724",
"A  c #875926",
"S  c #8C5A26",
"D  c #8D5D28",
"F  c #905D27",
"G  c #925F28",
"H  c #8F602A",
"J  c #956129",
"K  c #9A652C",
"L  c #9D692D",
"P  c #9C6B31",
"I  c #A16B2F",
"U  c #A46F31",
"Y  c #A67132",
"T  c #AB7535",
"R  c #B07937",
"E  c #B47D3A",
"W  c #46870E",
"Q  c #4A930F",
"!  c #4D8511",
"~  c #4B8A10",
"^  c #588910",
"/  c #579B11",
"(  c #649312",
")  c #659019",
"_  c #72941E",
"`  c #72981E",
"'  c #4CAB0F",
"]  c #4FB90F",
"[  c #57BD0F",
"{  c #5CB90F",
"}  c #4FAE10",
"|  c #55A411",
" . c #56B812",
".. c #5BBA11",
"X. c #78B413",
"o. c #788320",
"O. c #57C10F",
"+. c #58C310",
"@. c #60C70F",
"#. c #77C715",
"$. c #74D615",
"%. c #7CD713",
"&. c #7FD815",
"*. c #B7803D",
"=. c #BA823D",
"-. c #8BD914",
";. c #8CE515",
":. c #8FE816",
">. c #91E915",
",. c #BF8741",
"<. c #C08741",
"1. c #C28A43",
"2. c None",
/* pixels */
"2.2.2.2.2.2.2.2.2.2.2.2.2.2.2.2.2.2.2.2.2.2.2.2.2.2.2.2.2.2.2.2.2.2.2.2.2.2.2.2.2.2.2.2.2.2.2.2.2.2.2.2.2.2.2.2.2.2.2.2.2.2.2.2.",
"2.2.2.2.2.2.2.2.2.2.2.2.2.2.2.2.2.2.2.2.2.2.2.2.2.2.2.2.2.2.2.2.2.2.2.2.2.2.2.2.2.2.2.2.2.2.2.2.2.2.2.2.2.2.2.2.2.2.2.2.2.2.2.2.",
"2.2.2.2.2.2.2.2.2.2.2.2.2.2.2.2.2.2.2.2.2.2.2.2.2.2.2.2.2.2.2.2.2.2.2.2.2.2.2.2.2.2.2.2.2.2.2.2.2.2.2.2.2.2.2.2.2.2.2.2.2.2.2.2.",
"2.2.2.2.2.2.2.2.2.2.2.2.2.2.2.2.2.2.2.2.2.2.2.2.2.2.2.2.2.2.2.2.2.2.2.2.2.2.2.2.2.2.2.2.2.2.2.2.2.2.2.2.2.2.2.2.2.2.2.2.2.2.2.2.",
"2.2.2.2.2.2.2.2.2.2.2.2.2.2.2.2.2.2.2.2.2.2.2.2.2.2.X o X X . . X X X o o X o 2.2.2.2.2.2.2.2.2.2.2.2.2.2.2.2.2.2.2.2.2.2.2.2.2.",
"2.2.2.2.2.2.2.2.2.2.2.2.2.2.2.2.2.2.2.2.2.2.2.2.2.@ < < 1 4 w w w 7 4 1 , # # 2.2.2.2.2.2.2.2.2.2.2.2.2.2.2.2.2.2.2.2.2.2.2.2.2.",
"2.2.2.2.2.2.2.2.2.2.2.2.2.2.2.2.2.2.2.2.2.2.2.2.o , j k B P ,.,.,.R K N r 8 7 @ o 2.2.2.2.2.2.2.2.2.2.2.2.2.2.2.2.2.2.2.2.2.2.2.",
"2.2.2.2.2.2.2.2.2.2.2.2.2.2.2.2.2.2.2.2.2.2.2.o 4 k P P T E R R R E E T K A M q 2 O 2.2.2.2.2.2.2.2.2.2.2.2.2.2.2.2.2.2.2.2.2.2.",
"2.2.2.2.2.2.2.2.2.2.2.2.2.2.2.2.2.2.2.2.2.2.@ , k S *.,.1.1.E T R *.,.,.R Y F c 9 O 2.2.2.2.2.2.2.2.2.2.2.2.2.2.2.2.2.2.2.2.2.2.",
"2.2.2.2.2.2.2.2.2.2.2.2.2.2.2.2.2.2.2.2.2.o 1 x H L L *.1.1.1.<.,.,.*.U Y T Y S j + 2.2.2.2.2.2.2.2.2.2.2.2.2.2.2.2.2.2.2.2.2.2.",
"2.2.2.2.2.2.2.2.2.2.2.2.2.2.2.2.2.2.2.2.2.o , 0 x B B L T E *.*.E R U D B B A M e O 2.2.2.2.2.2.2.2.2.2.2.2.2.2.2.2.2.2.2.2.2.2.",
"2.2.2.2.2.2.2.2.2.2.2.2.2.2.2.2.2.2.2.2.2.o & 5 j x c H L Y T T U K D D B x c j 8 + 2.2.2.2.2.2.2.2.2.2.2.2.2.2.2.2.2.2.2.2.2.2.",
"2.2.2.2.2.2.2.2.2.2.2.2.2.2.2.2.2.2.2.2.2.o < j A L Y T E E U K A N M P U I L j * O 2.2.2.2.2.2.2.2.2.2.2.2.2.2.2.2.2.2.2.2.2.2.",
"2.2.2.2.2.2.2.2.2.2.2.2.2.2.2.2.2.2.2.2.2.o @ 1 8 0 j D U Y J S G S D G M e w < @ O 2.2.2.2.2.2.2.2.2.2.2.2.2.2.2.2.2.2.2.2.2.2.",
"2.2.2.2.2.2.2.2.2.2.2.2.2.2.2.2.2.2.2.2.2.o + + % ; > s B A x x D A C M 6 ; - + O O 2.2.2.2.2.2.2.2.2.2.2.2.2.2.2.2.2.2.2.2.2.2.",
"2.2.2.2.2.2.2.2.2.2.2.2.2.2.2.2.2.2.2.2.2.o @ < ! ..-.g + @ @ @ @ @ @ + !  .' t @ O 2.2.2.2.2.2.2.2.2.2.2.2.2.2.2.2.2.2.2.2.2.2.",
"2.2.2.2.2.2.2.2.2.2.2.2.2.2.2.2.2.2.2.2.2.o @ 4 Q @.>.X.^ i ; # * y b / #.$.] u , O 2.2.2.2.2.2.2.2.2.2.2.2.2.2.2.2.2.2.2.2.2.2.",
"2.2.2.2.2.2.2.2.2.2.2.2.2.2.2.2.2.2.2.2.2.o & 5 ~ { ;.>.%.' d 2 9 ! ..:.:.-.' f 2 O 2.2.2.2.2.2.2.2.2.2.2.2.2.2.2.2.2.2.2.2.2.2.",
"2.2.2.2.2.2.2.2.2.2.2.2.2.2.2.2.2.2.2.2.2.o = z a n [ O./ s V Z B l h  .O.| p 0 9 + 2.2.2.2.2.2.2.2.2.2.2.2.2.2.2.2.2.2.2.2.2.2.",
"2.2.2.2.2.2.2.2.2.2.2.2.2.2.2.2.2.2.2.2.2.o & j r v _ ` o.C K I K Z V _ ) m r 9 4 O 2.2.2.2.2.2.2.2.2.2.2.2.2.2.2.2.2.2.2.2.2.2.",
"2.2.2.2.2.2.2.2.2.2.2.2.2.2.2.2.2.2.2.2.o o @ 2 j B L L L P P P L P P K Z x k 5 , O o X X 2.2.2.2.2.2.2.2.2.2.2.2.2.2.2.2.2.2.2.",
"2.2.2.2.2.2.2.2.2.2.2.2.2.2.2.2.2.2.2.@ & @ + + 3 0 x C k , $ # & @ 1 N x j 4 # + @ # # , @ 2.2.2.2.2.2.2.2.2.2.2.2.2.2.2.2.2.2.",
"2.2.2.2.2.2.2.2.2.2.2.2.2.2.2.2.2.2.o 0 k 9 * + 3 e k 0 3 o o o o o @ 7 x x 8 # + 4 r x C 9 o 2.2.2.2.2.2.2.2.2.2.2.2.2.2.2.2.2.",
"2.2.2.2.2.2.2.2.2.2.2.2.2.2.2.2.2.& 9 B Z k q & 8 r e , o + + o O O o O x F r & @ r Z G G x 8 @ 2.2.2.2.2.2.2.2.2.2.2.2.2.2.2.2.",
"2.2.2.2.2.2.2.2.2.2.2.2.2.2.2.2.o 1 k D J C j @ 2 8 e & o o + o o O o O j x 9 @ # x J I J C k & o 2.2.2.2.2.2.2.2.2.2.2.2.2.2.2.",
"2.2.2.2.2.2.2.2.2.2.2.2.2.2.2.o o + @ k Z J C 4 * 3 j 2 + o @ , = @ O O 5 0 * * 8 G K G x 8 @ + o o 2.2.2.2.2.2.2.2.2.2.2.2.2.2.",
"2.2.2.2.2.2.2.2.2.2.2.2.2.2.1 9 j 7 + 2 e Z S C * & z 8 , + 4 r z 1 + O 2 3 + j F F C z 8 # O q e 5 & 2.2.2.2.2.2.2.2.2.2.2.2.2.",
"2.2.2.2.2.2.2.2.2.2.2.2.2.o 4 B P B + + & j Z F j 8 = q z M x B S k 5 = & 1 e Z J c 0 3 + O @ C D k & o 2.2.2.2.2.2.2.2.2.2.2.2.",
"2.2.2.2.2.2.2.2.2.2.2.o o o 4 B T L z & + & e B G z @ 8 M D M x C z e 3 & 5 J L F 5 * + O 4 M L K j < o o o 2.2.2.2.2.2.2.2.2.2.",
"2.2.2.2.2.2.2.2.2.2.< 3 2 O * e L K c 2 + o 3 j K Z x 2 + @ + + + + @ + z D L S x * + O + 8 C K D 5 @ @ 3 2 & 2.2.2.2.2.2.2.2.2.",
"2.2.2.2.2.2.2.2.2.o 8 C k @ @ < B C j 3 & + o 1 K L K r 3 4 3 3 3 3 5 8 H Y L z 4 O + + # 5 r C k @ + * M z 3 O 2.2.2.2.2.2.2.2.",
"2.2.2.2.2.2.2.2.+ < k L J r 2 + , , & & * 1 @ & N G K S D Z D A A D S J S B k j r + 3 9 * # # & # + 4 k J J z 4 @ 2.2.2.2.2.2.2.",
"2.2.2.2.2.2.2.o @ 3 k K L Z 8 o + @ @ * 3 8 # # r Z G I I G G G K J H H C k r r 9 + 8 j 2 # @ + + O r Z K J M 9 @ o 2.2.2.2.2.2.",
"2.2.2.2.2.2.2.o @ 4 j C K K e O # 3 8 4 5 r # @ 9 r c G F c c Z L x j e 0 r x 9 2 O 0 x 3 3 4 * # + x I K x k 9 + o 2.2.2.2.2.2.",
"2.2.2.2.2.2.2.o + < 9 z S A 9 O 4 8 r # * 8 # + 5 9 r C Z F Z G L Z A C C C F k 4 + 4 9 # 2 8 4 * O j Z C r 8 2 + o 2.2.2.2.2.2.",
"2.2.2.2.2.2.2.o O @ 3 r x z 5 @ 4 9 r # + 2 @ @ 8 9 r r C K I G K K L I L K J z 8 O * = + * 8 8 3 + 8 z r 4 < @ O o 2.2.2.2.2.2.",
"2.2.2.2.2.2.2.2.2.O + @ @ @ & & 2 4 8 @ O + O # r z x c c C Z C z C F I Z N r 8 2 + + + @ < 5 < & @ @ @ @ @ + O 2.2.2.2.2.2.2.2.",
"2.2.2.2.2.2.2.2.2.2.o + 2 2 < @ @ # 2 + O o O @ r r z C A S S Z C Z F J N k e 5 2 O X o @ & < @ @ + * 2 < + o 2.2.2.2.2.2.2.2.2.",
"2.2.2.2.2.2.2.2.2.2.o @ r r 3 o O O O o O 2.o @ 4 9 r F K J K K K K G C r r r 9 2 O 2.2.o O O o O O 5 r 9 + 2.2.2.2.2.2.2.2.2.2.",
"2.2.2.2.2.2.2.2.2.2.2.2.@ @ @ 2.2.2.2.2.2.2.o + 4 4 5 r r k r k z x x r k N G x 9 + 2.2.2.2.2.2.2.2.@ @ + 2.2.2.2.2.2.2.2.2.2.2.",
"2.2.2.2.2.2.2.2.2.2.2.2.o o 2.2.2.2.2.2.2.2.@ & 8 r 0 r r r r z z N x z C Z G M 8 + 2.2.2.2.2.2.2.2.2.o o 2.2.2.2.2.2.2.2.2.2.2.",
"2.2.2.2.2.2.2.2.2.2.2.2.2.2.2.2.2.2.2.2.2.o < e z F K J A z F I K K J G G G C 8 * O 2.2.2.2.2.2.2.2.2.2.2.2.2.2.2.2.2.2.2.2.2.2.",
"2.2.2.2.2.2.2.2.2.2.2.2.2.2.2.2.2.2.2.2.2.o 8 B G S C k k c C G I Z C r r e r 0 9 r 2 o 2.2.2.2.2.2.2.2.2.2.2.2.2.2.2.2.2.2.2.2.",
"2.2.2.2.2.2.2.2.2.2.2.2.2.2.2.2.2.2.2.2.2.# r G I F c r r z z x Z N z 0 3 3 9 r z c 3 o 2.2.2.2.2.2.2.2.2.2.2.2.2.2.2.2.2.2.2.2.",
"2.2.2.2.2.2.2.2.2.2.2.2.2.2.2.2.2.2.2.X @ j S I I K J x 0 3 2 3 4 r r c r r C S K c 3 O 2.2.2.2.2.2.2.2.2.2.2.2.2.2.2.2.2.2.2.2.",
"2.2.2.2.2.2.2.2.2.2.2.2.2.2.2.2.2.2.2.o # z C Z M C S S z 3 & @ # , 8 x N Z G K I G k 4 + 2.2.2.2.2.2.2.2.2.2.2.2.2.2.2.2.2.2.2.",
"2.2.2.2.2.2.2.2.2.2.2.2.2.2.2.2.2.2.2.+ * x c x j k c S x 3 @ o O X < r S K I I K K C r + 2.2.2.2.2.2.2.2.2.2.2.2.2.2.2.2.2.2.2.",
"2.2.2.2.2.2.2.2.2.2.2.2.2.2.2.2.2.2.O 8 x J K J J k 9 5 3 & O O O O # 4 z Z I Z C x 0 4 + 2.2.2.2.2.2.2.2.2.2.2.2.2.2.2.2.2.2.2.",
"2.2.2.2.2.2.2.2.2.2.2.2.2.2.2.2.2.2.O 8 k Z Z F K C j 3 * @ o o o o + # 9 k Z S F C k 8 + 2.2.2.2.2.2.2.2.2.2.2.2.2.2.2.2.2.2.2.",
"2.2.2.2.2.2.2.2.2.2.2.2.2.2.2.2.2.2.o 4 j x c Z K S x 3 @ o 2.2.2.2.2.+ * 5 r C J J C r + 2.2.2.2.2.2.2.2.2.2.2.2.2.2.2.2.2.2.2.",
"2.2.2.2.2.2.2.2.2.2.2.2.2.2.2.2.2.2.o j J J K F C 9 * @ O 2.2.2.2.2.2.2.+ # 5 0 r x j 9 + o 2.2.2.2.2.2.2.2.2.2.2.2.2.2.2.2.2.2.",
"2.2.2.2.2.2.2.2.2.2.2.2.2.2.2.2.2.2.O r G J J Z k 3 @ + o 2.2.2.2.2.2.2.O @ 4 8 r c c j * O 2.2.2.2.2.2.2.2.2.2.2.2.2.2.2.2.2.2.",
"2.2.2.2.2.2.2.2.2.2.2.2.2.2.2.2.2.2.O 8 z Z C z 8 * @ O o 2.2.2.2.2.2.2.O @ 4 k C J K Z 9 + 2.2.2.2.2.2.2.2.2.2.2.2.2.2.2.2.2.2.",
"2.2.2.2.2.2.2.2.2.2.2.2.2.2.2.2.2.2.O 2 9 r r 5 2 @ O 2.2.2.2.2.2.2.2.2.O + * 8 r z x z 4 + 2.2.2.2.2.2.2.2.2.2.2.2.2.2.2.2.2.2.",
"2.2.2.2.2.2.2.2.2.2.2.2.2.2.2.2.2.2.O 2 9 r 0 3 * @ O 2.2.2.2.2.2.2.2.2.o + * 4 0 z x z 8 + 2.2.2.2.2.2.2.2.2.2.2.2.2.2.2.2.2.2.",
"2.2.2.2.2.2.2.2.2.2.2.2.2.2.2.2.2.2.O 8 x G z 0 2 @ O 2.2.2.2.2.2.2.2.2.O # 4 r x J J S j @ 2.2.2.2.2.2.2.2.2.2.2.2.2.2.2.2.2.2.",
"2.2.2.2.2.2.2.2.2.2.2.2.2.2.2.2.2.2.O 3 r x x z 8 & o 2.2.2.2.2.2.2.2.2.o @ * 5 0 x C c 9 @ 2.2.2.2.2.2.2.2.2.2.2.2.2.2.2.2.2.2.",
"2.2.2.2.2.2.2.2.2.2.2.2.2.2.2.2.2.2.O 3 9 r z k 8 # O 2.2.2.2.2.2.2.2.2.o @ & 2 8 r z z 8 + 2.2.2.2.2.2.2.2.2.2.2.2.2.2.2.2.2.2.",
"2.2.2.2.2.2.2.2.2.2.2.2.2.2.2.2.2.2.O 9 z r 0 4 * @ O 2.2.2.2.2.2.2.2.2.o @ * 8 r z C Z r @ 2.2.2.2.2.2.2.2.2.2.2.2.2.2.2.2.2.2.",
"2.2.2.2.2.2.2.2.2.2.2.2.2.2.2.2.2.@ 8 x Z C z 9 3 @ O 2.2.2.2.2.2.2.2.2.o @ 5 r z Z S F c e + 2.2.2.2.2.2.2.2.2.2.2.2.2.2.2.2.2.",
"2.2.2.2.2.2.2.2.2.2.2.2.2.2.2.2.+ 1 x S J S c j 8 & o 2.2.2.2.2.2.2.2.2.o & r k c S J J J C & + 2.2.2.2.2.2.2.2.2.2.2.2.2.2.2.2.",
"2.2.2.2.2.2.2.2.2.2.2.2.2.2.2.O 9 x x x x r 9 5 2 @ O 2.2.2.2.2.2.2.2.2.O @ 4 9 r e k x c c r 2 o 2.2.2.2.2.2.2.2.2.2.2.2.2.2.2.",
"2.2.2.2.2.2.2.2.2.2.2.2.2.2.2.O 1 5 5 5 5 1 < , & + o 2.2.2.2.2.2.2.2.2.o + & * 2 1 3 4 5 5 3 & O 2.2.2.2.2.2.2.2.2.2.2.2.2.2.2.",
"2.2.2.2.2.2.2.2.2.2.2.2.2.2.2.o O o o O o o O O o + o 2.2.2.2.2.2.2.2.2.o O O O O O O O O o O o O 2.2.2.2.2.2.2.2.2.2.2.2.2.2.2."
};
