/* XPM */
static char *bc164c9a88ae447edb93a0a0133cbdafOwz2ycuBx2Nfp6Gk[] = {
/* columns rows colors chars-per-pixel */
"64 64 248 2 ",
"   c #683919",
".  c #743D19",
"X  c #6D340A",
"o  c #5D2C0E",
"O  c #7C420B",
"+  c #7A4419",
"@  c #7A4827",
"#  c #83451A",
"$  c #8C4E1D",
"%  c #854818",
"&  c #934F1E",
"*  c #8C5118",
"=  c #97561C",
"-  c #86430C",
";  c #844B24",
":  c #8B4E22",
">  c #864D29",
",  c #8C542B",
"<  c #895428",
"1  c #935425",
"2  c #955924",
"3  c #9C5B26",
"4  c #92552C",
"5  c #955A2C",
"6  c #9B5B2C",
"7  c #995527",
"8  c #8D5A34",
"9  c #895533",
"0  c #915630",
"q  c #945B34",
"w  c #9B5D32",
"e  c #945D3B",
"r  c #995E3A",
"t  c #93573B",
"y  c #864D32",
"u  c #A25E2B",
"i  c #A25A23",
"p  c #A05F36",
"a  c #9D632C",
"s  c #90602F",
"d  c #9C6334",
"f  c #96603B",
"g  c #9C633B",
"h  c #9A6737",
"j  c #A3632D",
"k  c #A9632D",
"l  c #A86627",
"z  c #B7732A",
"x  c #A36434",
"c  c #AB6633",
"v  c #A56A34",
"b  c #AB6C35",
"n  c #A4663B",
"m  c #A46A3C",
"M  c #AB6C3B",
"N  c #AB6739",
"B  c #B26D34",
"V  c #B16E3C",
"C  c #B86B38",
"Z  c #AD7235",
"A  c #AD723C",
"S  c #A6753B",
"D  c #B37335",
"F  c #B2743C",
"G  c #BB763D",
"H  c #B47A3D",
"J  c #BB7B3C",
"K  c #B87735",
"L  c #AD6F2B",
"P  c #C37D38",
"I  c #9D6541",
"U  c #9C6943",
"Y  c #956343",
"T  c #A46C43",
"R  c #AB6D43",
"E  c #A36C4A",
"W  c #AA6D4A",
"Q  c #A36747",
"!  c #B16E42",
"~  c #AC7344",
"^  c #A5704B",
"/  c #AC734B",
"(  c #AD794A",
")  c #AB7745",
"_  c #B37443",
"`  c #B97642",
"'  c #B47A43",
"]  c #BB7C44",
"[  c #B2754B",
"{  c #B47B4B",
"}  c #BB7C4B",
"|  c #BA774B",
" . c #AD7552",
".. c #A87755",
"X. c #B27551",
"o. c #B57C53",
"O. c #BB7D52",
"+. c #B47D5B",
"@. c #B97E59",
"#. c #C27B44",
"$. c #C27E4C",
"%. c #C17F53",
"&. c #D07F50",
"*. c #BC813C",
"=. c #C7823B",
"-. c #D3893E",
";. c #E28D3A",
":. c #BC8244",
">. c #B4814B",
",. c #BC834C",
"<. c #BC894D",
"1. c #B98648",
"2. c #B68354",
"3. c #BC8353",
"4. c #BD8A53",
"5. c #B6825A",
"6. c #BC835B",
"7. c #BF8A5A",
"8. c #B48B59",
"9. c #B98E56",
"0. c #BA8766",
"q. c #BD9566",
"w. c #C28345",
"e. c #C3844C",
"r. c #C48A4D",
"t. c #CB8B4B",
"y. c #CA8946",
"u. c #D98F44",
"i. c #CD934B",
"p. c #D2954C",
"a. c #C38453",
"s. c #C98654",
"d. c #C48B54",
"f. c #CA8C54",
"g. c #C3865A",
"h. c #C38B5B",
"j. c #CB8C5B",
"k. c #C9865B",
"l. c #D28E5A",
"z. c #C49154",
"x. c #CB9355",
"c. c #C5925B",
"v. c #CC935B",
"b. c #CC9B5D",
"n. c #C79954",
"m. c #D29455",
"M. c #D2945C",
"N. c #D39A5D",
"B. c #DA9C5D",
"V. c #D89A56",
"C. c #E59C52",
"Z. c #DAA15B",
"A. c #E2A15D",
"S. c #C28660",
"D. c #C38C63",
"F. c #CA8D62",
"G. c #C98D6B",
"H. c #C69363",
"J. c #CC9464",
"K. c #CD9B63",
"L. c #C4926C",
"P. c #CC946A",
"I. c #CD9B6B",
"U. c #C69A64",
"Y. c #D39563",
"T. c #DA9661",
"R. c #D39B64",
"E. c #DA9C63",
"W. c #D3966B",
"Q. c #D49B6B",
"!. c #DA9D6A",
"~. c #D99669",
"^. c #CD9C72",
"/. c #CA9775",
"(. c #D39C73",
"). c #D99E73",
"_. c #D39B75",
"`. c #D18E61",
"'. c #E19D67",
"]. c #CEA168",
"[. c #D5A165",
"{. c #DAA365",
"}. c #D5A26B",
"|. c #DBA46C",
" X c #DCA96E",
".X c #D6A968",
"XX c #CCA47B",
"oX c #D3A373",
"OX c #DBA573",
"+X c #DDAA72",
"@X c #DCA57A",
"#X c #DCAA7A",
"$X c #D5A779",
"%X c #DEB278",
"&X c #E1A46C",
"*X c #E4AA6C",
"=X c #EBAC6E",
"-X c #E7A767",
";X c #E3A574",
":X c #E3AC74",
">X c #E9AD74",
",X c #E3AC7A",
"<X c #EAAD79",
"1X c #E5A676",
"2X c #E4B176",
"3X c #EAB275",
"4X c #E4B37B",
"5X c #EBB47C",
"6X c #EBB97E",
"7X c #E5BA79",
"8X c #F1BA7D",
"9X c #F3B579",
"0X c #EDB06E",
"qX c #DCAD83",
"wX c #DAA684",
"eX c #DDB284",
"rX c #DCB28B",
"tX c #DAB490",
"yX c #E3AD82",
"uX c #E7AB82",
"iX c #E5B383",
"pX c #EBB483",
"aX c #EDBA83",
"sX c #E3B48A",
"dX c #EBB48B",
"fX c #EBBB8B",
"gX c #E7B88E",
"hX c #F2BC84",
"jX c #F3BC8C",
"kX c #F6BB88",
"lX c #E6BA95",
"zX c #F3B589",
"xX c #EBC286",
"cX c #F3C285",
"vX c #F5C48C",
"bX c #FAC98D",
"nX c #FAC388",
"mX c #ECC299",
"MX c #F5C592",
"NX c #FDCB93",
"BX c #F3C39B",
"VX c #FAC896",
"CX c #FFD39B",
"ZX c #F9D196",
"AX c #F7CDA6",
"SX c #FDD4AA",
"DX c #EFCBA9",
"FX c #FFE1B4",
/* pixels */
"  ..0.e Y ..L.^ 8 0...0.wX0.L.I.uX6.8.sXgXsX#X,XiXVXvXiXlXmXlXlXtXlXBXiXI.fX#XQ.pX#Xh.c.+X5X[.|.1X~ $XXXL._.qX5.).E g q @./ ; E ",
"y Y 0.; / g.o.6./ D.X./ 7.f T { D.o.( 8.L.qX^.( h.3.c.^.0.wXlXXXrXXXeXc.,.R. XQ.}.OX+X+XR.:XH 3Xv.,.oX6./.yXD.3.D.+.X./ X.r q I ",
"+.0./ . n _ x } } F.F.g.@XO.} f.P.#XI.^.lXBX^.3.) #XpXfX/.lXrXlXmXmXfX>. X4Xb.) ,.J.' :XR.{ { :Xm.>X3.J.).o.R o.5.I T o.O.g r I ",
"E ^ 4 1 n v u Y.Y.W.h.o.Y.j.a.M.dXyXiXfXgXBXiX7.) I.4.oX_.rX/.SXSXAXiXd.:X>.' 4._ J.v !.|.A :XN.M.r.,.OXP.6.[ uXwX ./ T X.X.r T ",
"9 o q m } _ 1 !.Q.@XP.7.D.Q.h.E.3.K.}.OXfXMXiXJ.OXQ.}.@Xq.wXlXrXlXsXP.K.!.!.MXQ.|.5X5X>XN.v.&X' f.,.k.W.@.G.X.G.+.S.6.n R O.0 , ",
"f ; [ ~ j._ M ' 5 3.D.I.P.Q.d.Y.v a d.|.h.j.;XR.<XR.5X#Xo.0.wX5./.^.H.jX<Xa.5X1X5X|.5X,Xe.R.v.] !.1XQ.).).P.X.W f D.O.| g.{ g , ",
": 6 6 3 b x A 2 a ,.h.Q.J.c.e.m.m.x.V.f.e.F f.*X5X,.<.}.#X^.sXgXsXVXOX|.{.f.N.d.v.1.1.v.a.v.N.N.a.' f.3.Q.J./ +.T 3.n ~ ~ x w 5 ",
"u u u ` G f.F f.e.f.f.R.R.] K P w.i.t.J e.r.r.K ' :.z.c.H./.XX^.U.c.x.w.:.J t.r.z.c.R.a.v.d.x.d.z.4.,.d.J.) I.8.( 3.F.j.,.j.3.3.",
" .q T > ; 6.X.R d.,.jXS.S.dX5X!.n.R.v.R.kX|.8X8X8X4X[.aX,X).dXmXBXH.+X|.:X5XR.|. X&X1X[.%X!.E.OXf.R.F.(.wXwX/.@X_.o.q o.@.E T I ",
"= * 3 j Z b J w.j v.Q.o.h.pX|.j [.f.v.R.<X' NXR.Z S >.bX1Xo.5.lXfXh [.:.>XkX_ F d.|.v.,.d.b.d.j.D v.Y.{ _.G.D.P.F.o.4 O.T R n q ",
"M # # 6 ` ` l.f.b d.Q.dXfX5X' ] +X|.OX;X_ ,.NX XN.5X:X+X3.P.^.AXqX#XR.r.9Xe.N.r.e.6XR.l.l.c.4.T.w.&X&XF.X.6.D.D.P.;XO.J.H.P.O.g.",
"n # O.n R Y.Y.a.` v.OXiX#XOX` T. X5XkX<Xx R.R.hX|.aXpX}.J.uX(.qXsXI.|.v.&Xe.&Xm.f.:Xa.T.1X4.1.1XD m.a.g.D.P.6.@XW.g.[ h.Q.).W.[ ",
"1 2 |.v ' :Xf.,.a.k.h h h h k.s.OXc.hX&Xv.v.A 4XkXaX4XJ.Q.yX^.qXBXh  XR.,.R.*XN. XY.F b.hXr.r.5XM.} j.P.@XG.G.+.T X.g g @.W g R ",
"~ { 3.d P.dXQ.Q.j.O.H.yXiXH.W.Y.+X,.R.E.*X|.v.}.j.I.4XI.,XjXgXmXBXI.:X3XR.R.>X3X2X1XE.2XvXM.T.aXR.1X)._.dXwX_._.F.F.D.P.[ [ o.S.",
"6 M R R S.S.@.G.1.A Y.j.j.v.,.d.R.R.x.E.x.:X:X X#X}.%X4XiXiXrXmXlXeX4X X,X,Xx.N.R.:X>X+X[.v.N.[.|.;X#XyX7.H.h.h.F.g.[ { O.a.~ [ ",
"=.D m.-Xf.a.v.!.z.x.f.f.t.r.r.1.<.{.v.N.J r.r. XOXI.U.].}.qX$XXXrXI.+Xc.{ z.N.r.a.4.<.` b 9.z.w.H ' 4.7.J.,.{ A _ v ,.] } ' ,.F ",
"+ T o.: Y.j.6 M.!.!.' f.:XE.B.B.zX7.%XfXVX,XpXMXfXfXMXNX#XoXAXDXfXfX4X5XaX6X5XhXnX3X8X4XhXaXpXaXjX(.iXiX#XJ.j.W.{.E.E.~.~.o.Q.3.",
"d g.~ d h.a.A d.} a.v ] :Xx.r.E.s.* b.hXvXd.|.K.2.2.4.2X>.q.eXDXOXI.OXR.5XNXa.v.N.v.*Xa. XNX4.c.5Xd.d.{ x x M 6 e.&XY.j.%.T J.[ ",
"h.R._ M M e.] r.* A e.v.5X|.aXaX] ` a hX&X] m.r.vXK.K.bXoX$XeXFXOX) #X5X5X:X' v.v.x.|.v.:XhXA :Xx.f.v.R.,X<X&X] d.<Xa.| _ R Q.O.",
"~ ~ m 1 2 v.f.'.f.f.M.R.NXaXfX#X%.v.5X5Xf.e.w.*XVX,.c.OXvXVXAXSX;Xc.6X5XNX_ ' <X:X+XR.R.|.a.b >Xw.*XN.d.5X:XY.a.d } ~ O.~ o.D.T ",
"+ w R 6 n j.$.f.F G j M hXh.2.iXQ.H.fX#X~ E.|.4XdXh.oX7.fXSXSXlX}.c.3X:X5X,.<X|.:X+Xv.v.|.d.v.R.r.5X!.,.Q.j.J.1X1X@X;XQ.~ h.H.{ ",
"_ F.| w M _ Y.T.B.=X&XR.,X~ h OXyX$X) I.h.5XpX}.CXpXMXiXiXfXsXqXb.R.}.J.|.:X{.R.R.v.R.|.5X5X5X:X|.1X,XQ.Q.F.F.h.a.a.Q.W.} ;XQ.o.",
"2 M M M _ b ] D b D ] e.v.v.h.h.J.c.I.,.!.!.K.b.}.c.].OXI.I.I.#X4X}.:X:Xc.[.n.z.N.b.|. X:X XQ.}.!.c.J.7.H.K.j.} [ _ ` F F j.h.{ ",
"v 3 F e.:.] K D w.w.` ] f.v.,.a.<.z.c.,.F ] N.4.n.z.b.b.].+X+X XOX}.}.}.b.b.Z.Z.n.{.z.c.4.4.4.3.,.4.4.S { 1.' ] ~ O.,.e.f.} { 3.",
"v.!.6 $ Y.f.M.E.~ o.Y.R.,XdXdX/.uXQ.j.|.3XN.*XcXR.:X+XVXMX4X4XMXd.2X+X' vX5X+X4XnX4XaX4XpXvX5X5X2X5XvX5X3X&Xf.;XH.m Q.1X_ [ H.D.",
"v ,.m 6 a.x $.r.n _ d.!.v.3.3.Q.pX3.R.N.3XN.b.3Xb.|.}.CXOXU.4XxXb.K.b.|.+X' R.:XxX].!.s.zX<X4XxX4.5X4Xc.aX|.x e.6 $ M f.M | n m ",
"O 1 x n k.M } F ;X<Xm.B.r.E.Y.<XN.A |.f.3X[.{.hXv.|.|.4X>.}.aXvXNXCXNXvXv.b.:Xb 2 c.<X!.J.1XJ.U.{ hX,X) #XJ.A !.j.a.j.l.e.k.d ~ ",
"m ~ R x k.M } _ !.!.e.E.f.v.,.,XH w.&X:.{.f.N.:XN.R.+X3.>.aX}.hXvX4X6X}.H 8X9XF G j :XZXxXI.Y.$.Q.pXpXh.iXOXK.#X;X!.;Xa.v.j.R O.",
"# 1 1 $ ` j } j.J.Q.,.,.R.pX,X#XF N.&X:.B.x.r. X:Xc.:Xb.OXjXc.+X9. X6X:Xx.nX>XE.&.E.K.S ].+XY.$.Y.a.d.3.dXpXpXpXOXH.@Xa.h.O.g q ",
"1 v b b e.b ` e.5 v ,.|.|.{ ( I.d.N.&Xm.=X3Xx.nX6X}.5XpXpXaXaX+X4.CXCXcX:X5X|.E.2XR.m.m.] R.+XK.|.;X|.J.|.} { Y.( m { 3.g.P.o.T ",
"V b k c D D ` e.` ] e.f.r.} | o.v.a.E.N.{.&Xv.*X+X+X4X4XOX2XvX+X%XcX7X:X4XOX+XhXxXN.=X=X0XB.3X}.w.>X8X:XR.F M f.d.} } d.s.j.j.| ",
"u = l K B G y.e.t.w.K G B V N x n n ` ,.F Z d.H c.K.I.I.I.I.4.K.K.<.K.<.c.c.{ 4.:.1.r.*.L Z :.` H w.:.' ' ,.e.` B k B k B 7 N u ",
"M ,.2 ,.N.!.w F.Q.m d._ !.3.,X,XI.3.d.zX1.{.[. X}.VXaXOXR.v.5XvXK.NX3XR.m.x.=X9X0X0X=X{.=X9XV.r.>Xd.>XN.&Xa.M.T.V f.e.J #.#.} O.",
"n { O M 1Xk.# F.Q.w x a OX{ 3.fXH.[ OXJ.v :X{.n.' bXxXc.|.N.b.OXS hXcX|.[.{.*X:.q.8.2.U.CX3XJ J *Xb {.:.9Xe.` D - ` :.b c k u w ",
"o.[ w | k.w n uXK.d m d 1XQ.) ) H.{ K.a b |.{.v._ f.aXR.1.v.,Xb.K.aXhX6XNXbXcX1.;.-.-.V.8X:.] |.K w.=XN.|.F e.f.l.j.F ] '.T.j.Q.",
"(.[ n R / 4 o.o.3.n m ~ OXQ.3.J.j.H.~ 2 R.v.N.{.` v.+X>.f.,.1.[.d.b.[.d.1.' 6XnXbXhXaXvX5X:.r.x.l E.B.R.R.' <X!.u m.d.b c u u M ",
"T ~ q 4 F.~ T 5 n [ 5 a Y.d.~ I.{ Q._ _ 5Xx.v.R.,.:.cXhXhX5X6XaX' v.5X8XnX5X3X:.<.4.1.R.K.v.N.M.D -XR.a.Q.~ <Xj.= m.v.' $.j.s.} ",
"$ ~ x w W.| ~ 3.j.W.' ,.|.j.' v { R.!.v.R.|.:X|.N.d.}.d.r.f.R. Xm.N.N.w.r.r.N.H ;.C.=.u.t.m.x.3Xr.E.&XY.Y.} j.s.k m.v.' M N V M ",
"M M x x e.` ' r.Y.] ] m.t.D ' ,.~ { c.1.' K.K.c.n.b..Xb.[.E.b..X[.{. X{.Z.N.*X*X$XoXU.]. X{.r.B.m.x.v.R.f.v.} ] c M.v.' M ! V 1 ",
"j j V ` $.e.:.r.e.y.t.J t.B.N.E.}.I.I.R. X XI.}.{.b.b.b.n.v.b..Xn.b.b.b.b.N.n.r.=.z u.V.i.m.x.x.:.1.z.:.H Z w.D c x j A M x x 1 ",
"+ < # : J.T f L.uXh.d !.!.R.1X[ XXL.^.fX4XI.}.#X#X4XoX>.pX,X,XvX5X:X}.K.R.!.:XpX7XbX6XaX4.] F H r.&Xr.G T.e.$.s.F w.j.a._ } V _ ",
"m d d R a.M w h.).O.~ 3.A v { _ D.P.) Q.' d.3.OXd.c.<.b.v.R.|. XR. Xb.z.z.v.R.E.+XaXR.[.:.H *.L w.F l D b J b A b ` !.d 6 M 3 3 ",
"O.~ | | n a.O.Q.o.m 3.J.|.;XJ.3.Q.OX3.,.a.f.f.E.f.x.[.5Xd.>X:X2XR.6X:X+X2X X:Xv.c.kXj.f.3XV.i.p.8X[.Z Z J r.O a f.M s.5 _ a.` F ",
"o.o.h.g.x [ d d h m J.h.R.!.h.` jXdXQ.{ dXR.|.R.f.e.5XR.e.hXv.4XK.5X X+X4X+X:Xa.|.<Xj.e.&X*X0X0X[.[.:X:XE.v.2 ' Y.R 5 w o.s.s.} ",
"  . ; I T g U ( d ~ h.,.a.a.a.} qX#X6.o.OXQ.c.J.Y.,.4X Xf.hXK.4XR.:Xb.I.R.v.;XR.a.R.v.' :X;XR.pX,.Y.|.k.;Xa.x } | M x M a.s.k.a.",
"U U f f E q g ^ 3.{ 3.J.OX!.!.v.oX#XI.@XiX#X}.,X:Xb.}.vXv.:X XOXJ.:XR.}.R.j.&X>X:.:X{.A ,Xd.X [ j.W.c X s.x & x M $ _ R k._ n A ",
"+ 5 h w W / T R 3.{ _ ~ d v b A ) >.7.h.c.{ a.r.m.r.<.{.r.r.x.r.f.N.N.N.N.r.f.m.m.x.B.t.m.t.B f.f.#.G c #.G #.` a.u _ _ a.n 1 6 ",
"d d } } %.k.| j.c.K.Q.a.M d.d.d.N.N.N.Y.f.f.B.V.t.V.Z.*.A.V.A.Z.Z.Z.p.p.V.p.y.=.f.D #.=.z z z P J K l l l L = i j j % 1 1 w d 5 ",
"X.X./  .e y 9 ( / o.H.@X).,Xd J.dXD.7.(.H.pX3.oX2X4X~ : P.Q.Q.<X( s dX}.aX}.I.MXd.[.N.N.x.-XB.m.t.m.B.*.y.B.*.J ` k B B B #.V B ",
"r g ( X.E  .r { @.o.,.!.Q.o.d |.R.~ h.OXOXQ.' K.2X4XJ.K.h.Y.j.a.{ a d.R.,X,.|.|.} J.!.k.` kX1X`.| _ j.} ` Y.a.} ` c e.F s.j u 6 ",
"8 , T g e @.4 ~ / [ { Y.~.6 m !.3._ Y.v.!.F ] <X:X+XOX<X,X!.v.,.A A ' f.x.:.&XH s.W.;X&XM k.O.| k.[ W.W.%.F.O.p n 6 R M h.1 w w ",
"e 0 g q 0 O.5 A [ O._ F } 6 a.1X{ 3.!.} j.v a.|. X4XOXJ.OX|.Y.] v f.:XN.] r.E.e.E.N.Z B.r.m.&X|.] v f.x.w.f.` a n 5 : x m 1 x w ",
"> > , h g { x _ W O._ x M ! k.!.o.h.I.7.OXh.h.3.d h.{ T d @X;X} k.j.v.R.v.f.} j.v.5Xf.{.x.b.R.Q.d.H e.w.r.m.d.} s.` j ` 6 3 ! w ",
"9 q q T ~ / ~ ' [ O.O.} O.g.3.j.S.S.H.H.OXK.h.h.h.#X7.2.6.;XW.f.R.h.v f.&XR.f.Y._.yX(.P.Q.).w > F.g.a.| O.O.[ W M b c F 3 1 V 7 ",
"t q 5 5 n f n m W W m n R T ~ { [ m ~ m A v M 1.,.3.m ~ H.,.F w.` ,.Z :.J K w.f.6.3.h.,.a.a.M } s.a.s.} ` _ R n 6 x n n x 6 T w ",
"Q Q ~ T 6.+.6.2.+.7.6.6.P.6.H.h.Y.,.M.f.v.f.f.m.m.N.z.:Xd.R.V.V.B.m.V.p.=.w.y.y.r.w.J L L z z L D L D L = = 3 = 0 f : : , ; . ; ",
"y 9 @ U ^ f / ( ..5.o.R { P.+.L.P.o.h.).Q.@Xa.! Q.~ : Q.3.H.Q.d.3.3.H.Q.w F.T I /.^ S.F.a.v.H L ] f.u u } F c & V N c u i i & % ",
"  @ @ Y E q U ~ U / 3.m 6 ( +./.(.o.7.!.R.} ` s.H.h.I.P.!.3.K.Q.N.N.N.z.a d.f.,.7.3.x ` ` F j * - V c F $.x 3 1 7 X w ~ 7 1 w # ",
"9 Y Y ^ E 8 g / > q O.m q W +.0.g s ~ 3.f.v F a.H.Q.3.,Xh.I.K.;XOXOXOXh.~ h.).D.' d.b F $.Y.a.j.} a.j b $.M M V O.g ( g 4 > > 8 ",
"@ @ @ e f 0 r g f d m : 5 / +.+.5.6.{ 3.v.1.f.E.@X7.h #XP.7.OXc.D.K.Q.P.D.G.wX0.3.J.a.' ` a.} W.f.M.` ` ` 6 N %.n . 8 > 0 W Y @ ",
"o   . 9 T I f r T ) ~ q [ o. .E 5.5.m 3.h.{ { Y.OX3.( #X#X~ H.~ O * = D H ,.c.{ D._.6.} M % v a ` j.f.d.M # & M T 5 ~ w x n @ X ",
"@ @ @ 8 E E r q / 2.T < s m ^ +.T O.) 3.d.h.a.J.c.J.c.OX|.R.{ d.,.] F f.e.e.a.{ 0.+.g.3.,.b 1.A x M x v n 5 x { 6 n n 4 p 4 o @ ",
". . + + < 4 , 0 0 I f 5 5 h T ) m | A a j A A ` m A ' M { a.A ' | _ R | _ } a.o.o.m d.F ] r.` } } a.} ` M w x R w # $ h w T >   ",
". @ 9 8 q w w T / W g ) T 2.3.3.e.' r.] r.J F ] { ' 1.,.} ,.f.F F D G J J J w.H H ] D l i k u 7 2 6 6 5 6 4 1 1 : q > f > e @   "
};
