/* XPM */
static char *_6252fa3c9de4862815bda3b6c4a6727DGwsrSbExPLqPs5q[] = {
/* columns rows colors chars-per-pixel */
"64 64 157 2 ",
"   c #724623",
".  c #7B4F2C",
"X  c #73512E",
"o  c #79532E",
"O  c #765433",
"+  c #7C5430",
"@  c #7E5D3A",
"#  c #805532",
"$  c #845835",
"%  c #845F3D",
"&  c #86623E",
"*  c #8C623F",
"=  c #876444",
"-  c #8D6542",
";  c #8E6944",
":  c #8D6B4A",
">  c #926643",
",  c #936B47",
"<  c #936D49",
"1  c #97724D",
"2  c #9B714E",
"3  c #957352",
"4  c #9B7552",
"5  c #9E7A56",
"6  c #9D7A59",
"7  c #A17653",
"8  c #A27A56",
"9  c #A97D56",
"0  c #A47E5A",
"q  c #AA7E5B",
"w  c #A5825E",
"e  c #AB825E",
"r  c #B0845F",
"t  c #A68462",
"y  c #AC8562",
"u  c #AE8A65",
"i  c #AE8C6A",
"p  c #B18663",
"a  c #B28A66",
"s  c #B48D6A",
"d  c #B98E6B",
"f  c #B5916D",
"g  c #BA926E",
"h  c #B69471",
"j  c #BC9572",
"k  c #BD9A75",
"l  c #BE9C79",
"z  c #C1976F",
"x  c #C19573",
"c  c #C39A76",
"v  c #CA9E77",
"b  c #C49D7A",
"n  c #C99D7B",
"m  c #C5A17D",
"M  c #CBA27E",
"N  c #D1A77F",
"B  c #C5A282",
"V  c #C7A383",
"C  c #C5A380",
"Z  c #C5A481",
"A  c #C6A481",
"S  c #C5A483",
"D  c #C6A582",
"F  c #C7A582",
"G  c #C7A683",
"H  c #C6A584",
"J  c #C5A380",
"K  c #C9A581",
"L  c #C8A482",
"P  c #C9A583",
"I  c #C8A683",
"U  c #C8A784",
"Y  c #C9A784",
"T  c #CAA684",
"R  c #CBA785",
"E  c #C9A686",
"W  c #CAA686",
"Q  c #CCA581",
"!  c #C9A885",
"~  c #CAA885",
"^  c #C9A887",
"/  c #CBA986",
"(  c #CBAA87",
")  c #CDA985",
"_  c #CCA886",
"`  c #CDA987",
"'  c #CCAA87",
"]  c #CFAB87",
"[  c #CDA984",
"{  c #CBAA89",
"}  c #CDA989",
"|  c #CCA888",
" . c #CDAB88",
".. c #CEAA88",
"X. c #CFAB89",
"o. c #CEAB8B",
"O. c #CDAC89",
"+. c #CEAC89",
"@. c #CFAD8A",
"#. c #CFAE8B",
"$. c #CFAD8C",
"%. c #CFAE88",
"&. c #D1A683",
"*. c #D2A985",
"=. c #D0AC8A",
"-. c #D1AD8B",
";. c #D0AE8B",
":. c #D1AD8D",
">. c #D1AF8C",
",. c #D0AF8C",
"<. c #D2AE8C",
"1. c #D3AF8D",
"2. c #D1AE8E",
"3. c #D4AD89",
"4. c #D9AD8B",
"5. c #D2B18E",
"6. c #D3B18E",
"7. c #D3B28F",
"8. c #D4B08C",
"9. c #D4B08E",
"0. c #D5B18F",
"q. c #D4B28F",
"w. c #D7B38F",
"e. c #D5B18D",
"r. c #DAB18E",
"t. c #D2B190",
"y. c #D3B090",
"u. c #D5B191",
"i. c #D5B390",
"p. c #D6B290",
"a. c #D7B391",
"s. c #D7B393",
"d. c #D5B491",
"f. c #D6B592",
"g. c #D7B592",
"h. c #D6B594",
"j. c #D8B492",
"k. c #D9B593",
"l. c #D8B693",
"z. c #DAB692",
"x. c #D9B794",
"c. c #DCB491",
"v. c #D9B895",
"b. c #DBBA97",
"n. c #DEBA96",
"m. c #DDBB95",
"M. c #E1B693",
"N. c #E3BA96",
"B. c #E3BD99",
"V. c #E9BE9B",
"C. c #E4C09E",
"Z. c #E5C19F",
"A. c #E7C19C",
"S. c #E9C19E",
"D. c #E9C5A3",
"F. c #F0CCAA",
"G. c #F5D1AD",
/* pixels */
"3 i h s t i J y b C h ..y s i b ..i l l s 3 4 y i 6 : 0 : = h b : = J b J J h C = O U k h ..h b h i h 3 6 h l i b i Z : O h h w ",
"t.h.! { $.t.t.h C l J <.J h l i.h U i.h ..i.C i i u b t 3 s f l t t $.h f U h h % 3 l i k <.t h l h C h h C G k l i l : O 6 : O ",
"k ! Z J m k m J h m w.k b t h <.b b b h <.h y K w.i._ 3.D.F.Z.U g.Z k.#.Z k.J ..! ! w.Z i 3.k f g.m #.g.m ! Z m J m b.! h l t @ ",
"! #.l h m m k k k 5.w.0 h s b J b L J t f s s b h 3.l l k...g...! h m ..b <.k ! <.b m m u ! w.l b.m G t.h C b b ! m Z Z k l C u ",
"h 5.5.k f k m 5.m 3.h 6 h 3.[ b h k J w f <.3.i l U k.3 s w.b ..h k K m h g.! K l J m b x.<.....Z k l m i m m m J k f h f f m h ",
"l h i w l b.#.m ! ..h l J 3.K <._ h J b K [ 3.m m m ..y ..i.b b h h b l f Z J K ! l U b ! h h s b b Z m k ! C C Z b l U Z l J b ",
"#.m U l l $.Z m i...m ..K J m <.K U <.h J <.k.i.b m <...Z.h l J K h J [ U m U <.w.h <.3.h m [ l m Z #.l U U m ! Z k h f s h b #.",
"l t h h h C k h #.f 0 w s l h t w y t 4 K i.[ <.3.y b 4 h k 6 0 t y k i h h b i s l K b h K y h k l m s U m l 5.l h l k h k k ! ",
"h k t w m k h f f w k k 0 < 4 m h t 1 f k.q.8.[ n.m [ 4 f k 4 u 0 5 X 4 f s t 4 s 5 ; K h m t f l k f f i i i i k 5 5 1 f u k u ",
"b.b.m k %.h l [ Z m K K [ [ [ w.w.k.f h b 3.m k h h n.w 3.K K w.k.3.u [ w.m m K w.m u K f K b K [ Z Z m m %.w.! %.k k ! K %.#.m ",
"q.! f f m y f m m l t u m m b k u K w s s [ m 3.m [ K b K 3.k b M w.f g h b M k c c j M k 3.[ K k u h b h m K k m h m M w y b b ",
"f m ! ! #.i k [ q.5.f m w.b b 3.m k.h m k k i m [ w.h w.[ k.m w.m w.h g h 3.3.h M b h s y h b j k 0 f [ m b m h w.k w.k t 0 3.m ",
"q.( l f G m %.! k m i l =.k l [ b ! k m 8.! m =.k K m b m m k.n.c.[ k 3.=.[ M M Q k j g h j c g k t k [ c m [ h [ u m s a a 3.f ",
"m.m i y m ! 8.k m K f i l K =.3.M K k k M m ! k h [ k i w c m f c f s M j g f h j s j K *.Q m g b c m k u l M y ! b M b w h =.m ",
"i l q.m.m.m [ m q.[ b i f ! %.=.K l s m m %.=.b c m f l a w.b s g f g c s M b h [ b h j g c c h %.3.8.K k m m h g k c f 4 y m m ",
"G i w f l f m m K f m c h k f l K i 5 8.l m k k m f ! ! %.b k k *.a e c k Q c j g h g c h K m j g s h m m f a k w 5 y 4 f h ! i ",
"k k k i f f b b k b m b b y 4 h f 1 o 1 w y 8 s b j f m 3.*.M h c g m M M Q 3.w.3.Q c j u [ ` 3.m b b f u w.b u h b [ K h b k w ",
"7.G m f b b ! m K 3.[ m w.3.b w.g j b b m f s k b a j [ w.*.j b s c &.c g M M g j g b w.Q 3.c n m s 3.k ; f K h k f k m b b m f ",
"l m 3.m K b K K w.w.[ b Q m s m K [ 3.c 3.Q 3.[ *.b 3.h j 3.j c j g m c g c j c b j b L x L c L K k w.k s b b f K s f m b b b k ",
"f m k.8.8.m [ [ K K K m Q k s 3.Q m g w j M K k b j b e y K k k M s c c k b c Q b M *.c d C b j K h K h 3.w.k t K f f m k k b b ",
"! Z K l K Z [ m m [ K k M M c c.K w.[ K b m h g b s s m *.K K 3.Q c M f s *.b j b b Q s s c n k K 0 K k u b [ s b h b m k b K b ",
"m m Z k b k K K [ 3.c 0 f M j m j [ M 3.M Q g g [ b f b m k m b c e j p y b a a 3.b Q c n _ 4.4.Q f 3.b s b m k K m [ [ b K [ b ",
"u l w.m k s m 3.j h y 8 j n j _ 3.3.c k Q c.*.b c.c.3.j j Q *.M w.g Q b b *.c 3.M c 3.*.c.4.3.n f k [ k h K f h m b m m k k b u ",
"u f h w 0 4 s k y 5 4 y j y 8 Q M c y - 8 y y < 0 4 a 8 8 g a c g 0 g < - y e s a e y ; 3 y u 3 , < h h < f k s s w t s u u u 5 ",
"m [ K s s K Q b u 3.S.V.B.3.M *.b c M Q Q s 1 y , 1 n Q c.j c s 7 1 s f e a * 4 j d s s c g L n [ w.k K k [ k.f w.w.[ 3.k [ s & ",
"K 3.[ b k.G.B.3.k c.3.c M *.M L 3.3.3._ w.w.Q N.L d *.b *.b *.3.&.g [ &.b [ a Q 4.&.3.Q 0.3.0.4.3.[ K [ b [ f < w.m k m h [ m s ",
"t K 3.b *.w.b b y b d q j n n 4.k b n c Q 3.b Q b y 3.Q w.Q c b c g M [ v M 0 p c.Q c.L 3.3.Q _ M f k f t K u 5 w.k f b h m m b ",
"< k 3.k b b h 3.c w.3.*.r.c g c.c L *.Q 3._ g c M e Q k b b s M 3.[ &.k s *.j c c.M c.c L 3.n [ 3.K 3.K f w.3.3.[ b b K b b b h ",
"k 3.*.k *.3.b w.c w.c.c.c.j p &.x c n x c j p b Q s M.3.*.&.a x s g M [ Q w.g s L g L u d c k L m m m K s h h s K b K K m K [ k ",
"n.n.3.c [ *.c Q g Q &.&.4.w.4.c.M Q *.&.&.n g 3.3.c 4.c x M c *.3.v c &.M *.c *._ b 3.j n _ 3.4.3.K m [ k m k u [ k m k k b [ b ",
"b m Q m K Q M w.a d d s d b n j d c &.Q &.n a c d d Q M n *.n x M M M 3.M M s a c c Q j n n _ L w.k m K h 3.b b 3.k b b b h m h ",
"s s c b b b j c y q a j s a d a 8 s x s x c a s Q M n k j *.3.b b r.=.c s Q c a j M *.M 3.L 3.n Q u [ b u m t h 3.h m 3.w.k b f ",
"w.w.b b b m *.M b [ 3.L 3.3.c n 3.3.3.s j w.*.3.c.*.c.s y M s c c s m e g c =.M 8.e k m u j [ b g e s u 0 t y e e e c t - 0 j s ",
"m 3.b k m m 3.w.k K *.b M M k _ c m 3.c c [ b =.M Q w.K m [ c k &.c [ f g c *.[ M j k c m K m 3.w.b K [ *.w.K f Q k b s e k c y ",
"f 3.[ K 3.b b Q m M M c n n j _ Q g c c M M j c.Q *.b j g j b m g d &.&.*.[ M c w.&.*.&.3.*.n *.M f c b c Q K b Q h h h b w.3.b ",
"w K m m k.[ M 3.K b j g b b s k M Q Q y y b g j M Q M g s M M M c g m M M *.M [ b y b *.c Q *.b b s j h f b b c *.m m b b K b b ",
"k 3.k f [ K m *.[ Q K b *.Q j b g j M j c M x *.c j M 0 e 3.Q 3.M d g j g v g j c y b Q c M M j w.k b K [ 3.b y 3.Q [ m c c g j ",
"w.B.K m w.3.Q Q b *.w.L Q Q c *.3.j j j M M a j M g M 8 e 3.M r.M z [ M &.&.m g *.w.3.M 3.L a j *.k M Q M [ b s [ c m b b [ K m ",
"1 t t s k h g s g b n s g c d c 8 e a < y c.Q g c j *.M Q c.b M f r c y g g c g b Q M c *.*.g M n j _ _ b L Q M c.b M b k *._ j ",
"s m K [ m k b k Q [ c y j *.c j j g *.3.b e 2 c j s s c b b b Q e p r.m &.c v a *.c Q Q M *.Q n n g Q 3.3.w.L g 3.j n c s Q *.j ",
"B.w.K K w.w.Q Q K [ b g B.y 8 *.*.n 4.c 3.e e c x x c p d j c x r a p p 9 c v r.*.j x Q d a p n c j s g *.*.g j L c s y d _ b 8 ",
"m ! K K [ [ K Q j K j g 3.g u *.x j &.n w.c c r.*.r.N.n &.r.r.M N.N c g s N v c M d g n j x g M a s j k M M g n j s j M L M M c ",
"s m 3.[ [ K Q *.[ c.Q M *._ c 3.a x Q Q 4.Q c 3.Q M Q p d n M v &.z M N g M M g 3.b b *.Q w.&.3.c.4.3.b b M L N.4.n M *.M j c Q ",
"h [ w.3.3.3.3.w.*.w.*.n Q M c M g M &.&.M M a c r.x n g c n M r.&.z *.&.s c &.N &.n b M c 3.n c c j c c L *.c b w.Q M c c Q *.M ",
"Z 3.3.K 3.w.3.3.m c L c *.j b M c *.M n c &.g M n p c j n n x N c a M M d c &.n n c c c d Q x g *.M &.*.4.r.Q b Q Q Q n M 4.*.j ",
"[ [ m m K [ K Q K b *.b c.g n *.M *.n x j &.c 4.n g &.d x &.c c p 9 c z r p c n n c n M x &.n n 3.M Q x d c n M &.M Q &.n n M n ",
"[ [ K K [ m b Q K Q *.n 3.g j *.M &.n x c M x &.&.j &.e d &.c c 4.v *.d q q c r.M c n M x &.n n d d &.Q c Q Q Q Q x c M n c &.4.",
"K [ 3.w.w.m b 3.K k.3.Q *.b c c.c M &.M *.&.x n 4.x r.c &.4.n &.c d M n r.*.N M r.&.M &.n 3.n n c.*.r.*.x M M c 3.L Q Q M b x s ",
"c k c b [ g b c y b a s *.c a x p 8 d a M j a M x q g M x a d n c x c &.q j 4.&.c d d n x &.d a 0 g b g a j c u b M c Q g j g t ",
"M *.[ K w.b M M M *.y < a n c M c g M j Q c a b &.x M c e q p x &.c &.x a x c n x d x n c 4.Q Q q y g j j m M j Q k a c g s c M ",
"m w.[ c 3.b M M M Q M s M r.c c M b *.c *.&.g M n M M.*.g c &.&.*.c M.x &.&.g c x x n n x *.&.*.3.M Q w.w.3.*.M M M b c c c *.c ",
"k 3.b u M c c b M j Q c b n a &.M b M j &.3.x n 9 p M n d c N M c d M x n M x c n c M c g M n b c g j n M b b c M Q 3.Q *.b *.g ",
"m w.c y Q m M Q Q j M c c c a w.M b b g n *.d g M c *.&.c n &.&.4.n n *.x &.M.4.n x M c c Q M c n b M M b Q Q b w.j j Q *.a b *.",
"[ w.m f *.Q 3.*.b M *.b 3.4.j n Q M b c M 4.d c &.x &.&.c x x x n g g 4.p g &.g n g n n M M n x b M Q c g b M j *.c j M b a b Q ",
"M =.K c [ m *.Q b Q c g &.n d b b M M M Q 4.g &.n d M &.n n x d n g M 4.c c x d M d n n &.n n x g c M b c Q 3.M b *.Q M j b Q j ",
"c M [ M K j Q M b *.c Q c.g y &.j b M M c M p M &.c &.n d x x x *.x &.d n n g M n d M M 4.M Q &.n M Q Q b M M c M *.b Q g b Q M ",
"u m g s g u y g s a y 8 q e , 7 8 a y e e d 8 c p d c d p d x n M a e 7 q M d x n e n d d M &.c p 8 d c n &.x e q 0 x M a c x n ",
"b k s % k y c j j c j e x 4.n c c g c j x a # a n n &.c x n n n d e d g a x p M M g 8 > - n g c b j Q M g x x x j j c x q j j g ",
"[ *.f < c M M b b Q Q j &.r.c j Q j b s g a + c r.Q &.n n &.n n g x x p q M x n x &.*.n 7 &.x n x a c n c n c g c M n b d &.r.M ",
"*.m.c s j *.j *.g j j c M x p g g j c e d g 7 c.4.n &.M c M n c M M x p p M.r.4.*.d c x e n *.g x y j c c n x a c M c n j x &.a ",
"b Q w.M 3.Q g c Q M g j c d p x g Q M j 3.M j 3.c d n n d x c x &.n x M x x d M c e x *.4.*.&.x M.M *.M d d g x c n n &.n g n a ",
"w.[ 3.b k w.3.N.c.N.Q M 4.&.c g Q 3.M Q V.4.*.Q *.M M.r.n 4.r.&.r.&.n 4.&.*.c c *.r.M *.*.*.n M.r.n *.*.c n n M 4.&.4.r.4.Q r.Q ",
"1 w w.k.m A.&.g b *.j c &.M Q Q j M Q g n &.4.Q c d Q n d n n p a d q a x c.*.x c c n c c n x > 7 2 x 4.3.4.&.n 4.n &.c c M &.x ",
"o o K ; 4 e *.e b b e 0 8 > y *.- a w.8 4 x M j n d n x a n c 2 n &.n *.&.*.M c c q M.p * 7 M..   $ g 4.M c x n p 7 a 8 a &.&.x "
};
