/* XPM */
static char *bigger[] = {
/* columns rows colors chars-per-pixel */
"64 64 61 1 ",
"  c #160E0D",
". c #180F0E",
"X c #19100E",
"o c #1D1410",
"O c #211510",
"+ c #271911",
"@ c #2C1C12",
"# c #311F13",
"$ c #362114",
"% c #3C2515",
"& c #402717",
"* c #422917",
"= c #452A18",
"- c #4B2E19",
"; c #4E301B",
": c #53331C",
"> c #59371E",
", c #5C391F",
"< c #633D1D",
"1 c #583720",
"2 c #5E3A20",
"3 c #623D21",
"4 c #67401E",
"5 c #6B431F",
"6 c #71471F",
"7 c #72481F",
"8 c #654022",
"9 c #6F4620",
"0 c #704720",
"q c #754A21",
"w c #7A4E22",
"e c #7E5123",
"r c #835525",
"t c #875826",
"y c #895A27",
"u c #8D5D28",
"i c #905F29",
"p c #95642C",
"a c #98672D",
"s c #9B692E",
"d c #9E6C30",
"f c #A06E31",
"g c #A47334",
"h c #A87737",
"j c #A97738",
"k c #AB7A3A",
"l c #B07F3E",
"z c #B1803F",
"x c #B58442",
"c c #B88745",
"v c #B98846",
"b c #BD8D4A",
"n c #BF904D",
"m c #C0904E",
"M c #C39552",
"N c #C79957",
"B c #CA9D5B",
"V c #CDA15E",
"C c #CFA361",
"Z c #D1A663",
"A c #D2A865",
/* pixels */
"::%%::;1111;111;;11:1:::1::1:::>:>>:1:;;****&*:-:112%%-==%==&&1;",
"::$%---;12;11;1;::;%&:1:11:1        1>1:%%*111-;:1111*111:;:&*1:",
":%%3=---221111338;;%&:1:11  hzZZzxce  11:::::1;211113311:;-:1*&:",
":&%2---331;38211::-:::1:  jxVVVxxAZCeeX>:::11;;8:1--3211::::1==;",
":::--:-32:1231;;::::1:11 199jxAZZAh4-%%o::13::211:;-=333-:13:%-:",
"::-----:1:1:31;18::8221 *pbVq999qqqqvce :1181:821111=233::12:&::",
":-%=-==:11::21123:;3211 88jxAZZZZZZZVf4$ ;1388::-111=:13:;;1;%;:",
":-%---2111;:211321::111 :xbVAAAAAZjxzk0q ::138:;=1111:111:=11:;;",
":;%;;-222;;2122211;1::: &-raAChmnnAAgq== ::>1:--=3381;>11:=112::",
":;%22;;82-;112;;;1::;11 7tsasfdp443errre >>>1===-3222;;21::12-;:",
":%%11;;28-;11;883111:;: %=  .         == >>>2-==1;:88;;%%::12-:;",
"1;%1:;;23;211182311111;Xe=    .$$     ;r 2>-1-=%11:82>>%=:::1;;:",
";:%::;;;1;1:;;81;111,>: 7p. ..%&%$X  Xei 2>-;-8821;12>;:%:;11;;;",
"::;%%=;1:;1;;-11;>1;;:: &ephzhmmAAZgjfa;X%-;;;88311;>2;1>:=1:%::",
":::$%=-22;28;::1>>>:::: #&tgCZAAAVAsq::$X%>:--2221:::;22;;%1;%%;",
"1::%%=-22-28:::::32,,::: pf6pgh7eeeeyrw =->>-11382881;221;=2;:%;",
":::%%333;;33:131;33111:: %*<<4kVCNzzr<& -::>32;::288:=21:;-2::%;",
"::;%&332;::;;331;:11,: . XrfhVVVVge777X XX:>:::>;:88;=22;;=-:;%;",
":%%::-3-;::;;33;::1:  rq7XX%&;,7tgd67% ;-7X.:::::;2;;;2-;;=;8%%;",
";%%-----;13;-11;-:: qqgBk;  5rkhgg>;  6icg:>X::<;;===;>-=;;;,%;:",
";%%::3=-33,-;==;;> -llVNep>  +=%&;*XO7lCv7tg< :<8;==;;;=83;;:%::",
";$%>22--33;;:==::> 33rgjwMa;..   XXX7pAcu575- ;;8;=;2;;=32;;;$::",
":%%>2>--31:;=::>:: qjxy<<Bgw>*%$&*<7hkgi<pZfr ::833:2;;;33;;;%:>",
":;%,2>-233;-;:>3: 0wBCCf&puBgkNff7umlky:fZAg7 ::28;::;;;;2:;;%::",
":;%332=333-->1>1: -,<qyrX<tfZgsq7sNzz7:t755<=& :;:,-:=-:;;>,;%;:",
";%%=32=33:;-;;-1: rfBBx:...ihfwwggs46=$>mZACfu ;--,---33;;,3;%;:",
";%%=32-33;-;--33: 0lfhgthl-.2:wdke XXXXtBkAzp7 ;:33-=&33;;,3:%::",
"::%*3-*---;;3333; =rr63:tVf@X&*%  &fz5.65,<>:= ;:;::==33--2;;%;;",
":;%*:-*----33331: <jNCf%wfyq%Xo+7sskVp&$:cBlpq.--:::==---:--*>::",
"::%*;-*;3--32-33; fjNrwO+-X $tkgMVshb4XX5<ubkw -=3,-*::::3--%%::",
":;&*3---1:-33=-1:.<<isy=o%tlxkCkChs6%X7fMBs5dt.:->3**<3,:3-::%::",
";;%-3:-->>;32;-::.#tsfpwVB0VChBtf4%@,r5dZCNw6:.:->3=-333:3-32%;;",
":&%=3:-;;:,3>;3>> .ii7fNgBrMg<pr-O$ysrkdehzp=# ::;,<--2333-<-%%:",
":;%:,,=-;;33:;3::>.7r:lBdga,y<- .*<7p4mz6tpf4 ;:::3<-=3383=>-%-:",
":;%>,,--::33;:3::: ;<<ffi<7*,%   .#;<<pas7:7* :::-33::-,---:-%::",
"::%>,>==>-;;::3:::: -<;rr;<$  %,>$ ..+:=46*&X:,>:*38>--:;-:>:%::",
":;&>>--<,=;:;:==:::;  %<%  O$#*--*$$#      X-:,3:*=:,------3:$:;",
"::%>,::33;;33>==<::><:   $:><ygggfpr777>% ::::83:*->--:3<--,:%:;",
":%%-;::33-;33>;3<:;::: @%<rdhhhghy<<;;&%% ,,::--;-:,3:;23;;,>%%:",
":%%-;:;;:=333:;3<::::; $%%%<;;>>:>ip7rs7* ::33:;:::>3-:<3:;33&%-",
";%%=,>:::;;33;;3<:;;;; wqay<fhkhhhd4rgfrr ::<3,;33:::=;:3;;33%&;",
":%%*,,=,3:;33::3<;:<3; wrggfr<hggg5-s74:* ;:<4>:33;:<*;;3:;:;%;:",
"::%=,,;<3;;:3:;;:-;<<: -<<rfru::67%>>:iu7 ::>:>;33-;-%::;;;:;%;;",
":;%-::;33:;:3:>;;;::,; rif<<<i<-%$<dkggf7 ::;:>>33=3-%::-;;:;%;:",
";;&;;;;33>;;;--31;::;: <dhMmr**  *uhk7e;* ::<;>:3:;3&&1,-;>1:%:;",
">;%;>=;33:;>:;-33;;;;; =<<fkdr<  56--;-77 ::<:;::;;33&=3;-33>%;;",
";:%:>=>:::-33;-33--;:; qaxx-**$  $$<7kzg7 ::,:<::;;3,&-3::><>&&;",
">;%;>=;;:;;33;-<33-;<; qgBNlp<*  $4szNNze ::;;,;::;><*-3>-;33*#;",
";%%;;3<;,::,,-;;<<,::;.&><hlu; %% =fxh<;- :;==>;33-:,*;,,-;::%%-",
"-&%-:<;:,2;:3;>-,<<-::.qykrq-% %% %:<yf<r :;=*;:33=>,=,:---;;%%=",
";%#-;>;:,3;-,;,---:::: rrfcl<; %% &rhhy<< ;-==;>33=,--3=--;:=%%-",
"::%==;::23--::32:-;:::.&qr<>q< %& <r;<;;= >:==;;<::;;-;,-:::-%%=",
":;%=:;:;;:-=-::><=;:<: <<mba%.$%%$ %;<gh< ::;;>>==;=-=-,,:-<:&::",
":;&=>---,,=&-2>><-;:;; qak<<%.%%%% =rglkq :;;<,-==3=-=-,<;;,-%-:",
":;&=>&&=2<:-:<:;;;:;;; *>;><* %%$% <<<,<; ;;:<<-=-3:-==,<;;<;&::",
"::&-<**-33--;2>;;;,-=; =rds<% %@@% $-<pd<.;-;;><=->3;=-:>:::;%;:",
":;-;:---<3=====-===*%* $*<**; %#@% <<r;*%.=*=*&--=><;==:>>-;:&;:",
":%$----%&&%%&=&==%%*=  rag<%* %%&& $*<ru< .**=&%&*&%%**%%&%%&#%:",
">$$$$$%$$$$%%%%&%%%% <mkaNr7< @@%# <<yxzhr< %%%%$$$$$$$$#$%%%#%:",
"%--;;:;:;:::--::;*% qgBBgai-< ++@+ <*agytprr.%%;::--;:;-;:;;;;$&",
"==-;:;::;::3<,&:%%% <rfci-<$% +++@ %<q<rgg<<.%%%::-=-;-;>3:;::;%",
":;,:33333::33:;:%%% #%><<$$O  O@+@  @*$-:&&% %%-:>3<33:33333<3>:",
":,<,3:;;>><3;:::;:%%        ########       .$&>>3333:::>>::33<;;",
";>:>,>::::::::::>::;;:::::;;:;:;;;:>:::::::::;:3>::>:;:;;::>::::"
};
