/* XPM */
static char *bigger[] = {
/* columns rows colors chars-per-pixel */
"64 64 82 1 ",
"  c #170F0D",
". c #180F0D",
"X c #17100D",
"o c #19110D",
"O c #1C1310",
"+ c #23160F",
"@ c #26180F",
"# c #291A0F",
"$ c #221710",
"% c #261910",
"& c #2C1C10",
"* c #311E12",
"= c #352113",
"- c #3D2615",
"; c #3F2815",
": c #402715",
"> c #432916",
", c #4A2D17",
"< c #472C18",
"1 c #4B2E19",
"2 c #4F3017",
"3 c #4E301A",
"4 c #54341C",
"5 c #59361D",
"6 c #5D391E",
"7 c #623C1E",
"8 c #683F1B",
"9 c #5E3A20",
"0 c #633E20",
"q c #67401C",
"w c #6C421B",
"e c #71461C",
"r c #75491D",
"t c #7B4D1E",
"y c #7F501F",
"u c #674021",
"i c #694222",
"p c #744920",
"a c #7D4F20",
"s c #7E5021",
"d c #81511F",
"f c #845421",
"g c #885722",
"h c #8C5A24",
"j c #8F5E28",
"k c #915E25",
"l c #956127",
"z c #956228",
"x c #996529",
"c c #9E692C",
"v c #A26D2E",
"b c #A5702F",
"n c #A36F30",
"m c #A67131",
"M c #AA7533",
"N c #AD7835",
"B c #B07B37",
"V c #B27E39",
"C c #CE6411",
"Z c #D06611",
"A c #D56B11",
"S c #DC7C11",
"D c #B6813B",
"F c #B9853E",
"G c #DF8512",
"H c #DF8A15",
"J c #E29316",
"K c #E59918",
"L c #E89F1A",
"P c #EAA51C",
"I c #F3BA23",
"U c #FBD932",
"Y c #BB8740",
"T c #BD8A41",
"R c #C18E45",
"E c #C39047",
"W c #C6954B",
"Q c #C8984F",
"! c #CB9D54",
"~ c #CFA25A",
"^ c #D1A55C",
"/ c #D3A760",
/* pixels */
"55::131194444491399939359494993999999933;><<<3349399<>1<>>><>>94",
"55>>411999149444343--995554  X X  XO 349;><9994439435<454444<>94",
"5>>713119949990iu33;;495   4pNDYBcnp;O 4544549309499965444339>;4",
"5>>01110919009993933999 hnDVhhzDY!QMnap 3395933039<;699945499<13",
"4434131094900914933955o,wlVD~~!pp555<112 499339493<1190033904;19",
"454113<494440439u44uu6osg77n~T!~TlnY!VctX49099993993<09044909;44",
"44:411199491019904300o-=<<<ppcQQT~!jgDsgwO90uu393999<39993194:44",
"44:111091934999004954owsfTTYvfljjjW!Me41-O999u941939999949199444",
"54:311000119999999399 wqMFF^^^^DY~~~BBNl7X9599311000914004199044",
"44:0041001<9991139943 4hglTT~~~DDssNDMllgo9991<11000044004499144",
"5:;9041004199100u9994 >==;qfvMFFxDMss6;-=X99933<93900441<1940144",
"94;94440049999i094999 XXCJPC5hjh<fgiCKSX=o9493135940094<<9399344",
"44:944419194199949996X#XSUUUHXXOXXXKUUH 2o5553uu05940944>4394344",
"444-;1194<91344949934X-XCJUUUSX%*CIUUPAX2o4543uu0944494999<44-39",
"945::1109199199155645XdyXZJJJO<yu$ZJKCXqeX5533900994449044>93::4",
"445::<10010044494u955X6lrXXoXqMND6OXXX6h6X66399u0000940094<039:4",
"454:>0093900499030949 88cbNxcT^^RTxllkke* 99003599009<00931099-3",
"444:100033433099349940.><2qdbMbvcgddt8>*o499543544004100931443-4",
"5::9440135543009939459 3dbMdoo221>.56gtt 90955554404140413110>>4",
"4:>4551139033001193  o..dhlXoXoooo..tkg:  ..55009411139134499<44",
"4:>5901100533>,444.5nt-.ryxoXooo.o..wk4.-7vd..700411149100449>94",
"5::5003100435>254.,>xc7:O2roo=&&**oodMd.eNMtvx.40111994100141-44",
"5::00933095335454.gl7v7eo2MoX>egh>+okd.:wvkkd4.70009044400344-44",
"44:500100743554 ..#dd7er;oyd-hTETM*ek,o24gRn7...X999944440444-49",
"45:000,0093457.7dlooe8kh6@>hNFEdevch,o4d2khg..dM8 57044594991:49",
"4:-10010054 ...2MRxo..twhd+@,txbvre*o,8kdg....EMR  . 47044003:44",
"4::300<004 av#..gMM.5v.8DN7>oooo. . 7txh2.gx=.kTd .85 0014904:44",
"55:103>39..xRg...weolRt.rhMx65;2>>>wdDMt.-Bg7.dd  rRg 0014914:44",
"54:151143  *bR.=- .oolv.wyyDFFe4rlMDEFdw.8N:.-  *.kbp.o433311054",
"54:191<4 5*O8e.r7-*ooo,o7hrwcTTN8wDVxg4,.=5..7887.rro&4.9044::44",
"54>1034: dd.. 55--w.>o.5rxxxr<dbVlr56tr,...--7hd82...hd 50459<45",
"44>1074: gVh+78:wxd+-*.#-242w2-;lFRTd5=#..+*.:2,,78.fv0X40100>44",
"5>;20555o#ddo:,tddq=-2o@drgbkkhk6wkBDMb4oX=2&-wr<=4oeqo26q3u3>>4",
"54>599444ooooo6>w5-5*o2XrhldDNFhd6=-rkd>X<o&e2-rr2ooXoX5qu293<45",
"54>579444Xwr:+O-==22X44X-;--2>->>>,>>***X<<X@>&&..o-qwX433353<45",
"55>5703564XXo51o.ooo254o6dhccxFdtlmMvte:X323oooo..>-XX3434995>54",
"44-9934u7446552<,;;3554o4qdkhclDDkt,:--*X333;<<<-;<55343424u9;44",
"55>69450q54u0911q235452o#---;2>>-*4edl88X33444u02>,5535uu4495;44",
"5>;14450u24uu94uq44554.-wq2dccwydvxxllt-,X5454342255q54uu5599>>5",
"5;>25433410u9930u53452.wrldy;lMNd8w>,>:*;X44ui445445u35u05500>>4",
"5-;39554943u0940u43344X&;rccw;6DDbxd2ttr-.25uu640045514404400>>4",
"5;-196199440045u944uuXqfdwwlrlr2rxt6txxer.46uu74uu459>4505354>44",
"54-105200544955443465o6dMMh2:rbcd44td4ww4-.46665uu394>4443444;44",
"54;3444uu449095344453o-26lbcw;qxxt:w2tlcd2.54565uu402>5533454;44",
"44-54440u433343u6455o2dbv82xt>w8ee22xvvx,=.5645595301<5532555;54",
"55>44130u4395439q445XqlNDlh<r2*8,*2ydd>5tq.5744594400<1644605;44",
"54>551549320u33uu445o&22wBd--.....5w,2rbMd> 55744340713054509>>4",
"55-55<444430u43q9u3X5rbvl2t8=.:::..=wdFFclq.557455599<4954500>-4",
"3>:9570405400335u00o7cDbMe-6.:::-:.:tdFde>: 445506559<5052444>;1",
"1>;4403490450154000 >2whht-#.:::---.>e5tTve.4455u9269<6534344;;1",
"4--1454500330404245owkhw552o::::::-.=-xDVMe& 4450939130333443;-1",
"49:1344550414400544 ,whhw:#X--::::--.752=-=& 4450553324645453->1",
"54:3555444314450q44 =-,>-=.-:-:::-::.8whkdre.4452252112064404>45",
"54>1911307113050q45 8wklr8.::**:-:::.=-2578=.771<302111004494>44",
"44<3011100434055454.&2t8,=.:-*::--:=.2dkd5-*.6721195111905493>44",
"44:3511100344055248.#->rr4.&-*:*&-:&.22,,4w5.46711963<1565495-45",
"5315533470111111,,,.*2:**-.*--:*=::&..=7r84&o,>,11671<1556454:45",
"4--1331>>>1>11<<,>-.#:>trw.:>*::>>:>.>2==*&&.>:::><>:<<<<1>>1-:5",
"5-:-:---:-::>>>>,-.>ww55-=.-****-&&>.#&,wtr7=o>:--:-:::-->>>>-:5",
":3334455445554454.55wled8-.#########.-rxkdttr,.444444545555555>>",
"11345555457000<5o5BDbd:er2.#########.2rw58Mmkro=444455456055554>",
"55050ii005500555o2ddld:=8-.####*####.&7=>ette4o-450iii5i0ii00i65",
"50000555500i5557*ooooo....@###**==**=....o....:5iiii0550955iii44",
"5757055555555555665545455554556555485555565555505556595569555554"
};
