/* XPM */
static char *_74eb5c9e00043a186c4e185259e31ffGoHjPjzgBZ2tn1H7[] = {
/* columns rows colors chars-per-pixel */
"64 64 242 2 ",
"   c #6D3910",
".  c #7B4518",
"X  c #7A4E2A",
"o  c #84491A",
"O  c #8C501C",
"+  c #80420F",
"@  c #8A4F20",
"#  c #955B2B",
"$  c #9B5D2B",
"%  c #945625",
"&  c #885A37",
"*  c #965E34",
"=  c #8C5426",
"-  c #99612D",
";  c #8C633B",
":  c #9C6234",
">  c #98663B",
",  c #A5652B",
"<  c #A66836",
"1  c #A46A3D",
"2  c #AB6D3C",
"3  c #A76734",
"4  c #AB713C",
"5  c #B4743C",
"6  c #9A6A46",
"7  c #9F7349",
"8  c #A46C42",
"9  c #A46C47",
"0  c #AD7344",
"q  c #AC754B",
"w  c #AD7A4C",
"e  c #A57646",
"r  c #B27544",
"t  c #B57944",
"y  c #B2764B",
"u  c #B47B4C",
"i  c #BA7D4C",
"p  c #BA7B46",
"a  c #AB7653",
"s  c #AC7C54",
"d  c #A67953",
"f  c #B47D52",
"g  c #BA7E52",
"h  c #B97F5A",
"j  c #A27D64",
"k  c #C17E47",
"l  c #CF8A3D",
"z  c #BD824E",
"x  c #BD8047",
"c  c #AD8252",
"v  c #AA815A",
"b  c #B58254",
"n  c #BC8354",
"m  c #B5845B",
"M  c #BC855A",
"N  c #BE895D",
"B  c #B4885C",
"V  c #A8804D",
"C  c #AB8469",
"Z  c #BC8662",
"A  c #BD8B63",
"S  c #B88A66",
"D  c #BC9367",
"F  c #AB8673",
"G  c #C3844E",
"H  c #C68A4E",
"J  c #D78C49",
"K  c #D9974B",
"L  c #C28554",
"P  c #C68955",
"I  c #CA8B55",
"U  c #C1865B",
"Y  c #C48B5C",
"T  c #CA8D5B",
"R  c #C88652",
"E  c #CC915D",
"W  c #CD9055",
"Q  c #DC9C55",
"!  c #D2935D",
"~  c #D59A5C",
"^  c #D99A5D",
"/  c #D69557",
"(  c #E59C58",
")  c #E1974C",
"_  c #DDA35B",
"`  c #D7A15B",
"'  c #E4A45B",
"]  c #E7A55A",
"[  c #F0A35B",
"{  c #C48C63",
"}  c #C98E63",
"|  c #C28E6B",
" . c #C18761",
".. c #C59164",
"X. c #CC9264",
"o. c #C6936A",
"O. c #CB956B",
"+. c #CE996C",
"@. c #D29563",
"#. c #D59964",
"$. c #DB9C64",
"%. c #D2966A",
"&. c #D39B6C",
"*. c #DA9D6B",
"=. c #D99763",
"-. c #CD9A71",
";. c #CC9670",
":. c #D39C72",
">. c #DA9E72",
",. c #D29C77",
"<. c #E19E69",
"1. c #DBA464",
"2. c #DDA26D",
"3. c #DEAB6B",
"4. c #D7A565",
"5. c #D5A174",
"6. c #DCA374",
"7. c #DDAB74",
"8. c #D5A27B",
"9. c #DBA57B",
"0. c #DDA97C",
"q. c #DEB477",
"w. c #E2A364",
"e. c #E4AB64",
"r. c #EBAC64",
"t. c #E3A46C",
"y. c #E4AB6C",
"u. c #EBAC6C",
"i. c #ECA764",
"p. c #F1AC68",
"a. c #E4B26D",
"s. c #ECB26D",
"d. c #ECB46A",
"f. c #F2B56E",
"g. c #E2A573",
"h. c #E4AB74",
"j. c #EAAC72",
"k. c #E1A67B",
"l. c #E3AB7C",
"z. c #EAAD7B",
"x. c #E9A775",
"c. c #F2AF73",
"v. c #E4B375",
"b. c #EBB474",
"n. c #ECB975",
"m. c #E5B37C",
"M. c #ECB47B",
"N. c #E3BB7B",
"B. c #EBBA7C",
"V. c #F1B573",
"C. c #F2B47C",
"Z. c #F3BB7B",
"A. c #F5BB77",
"S. c #F7C27D",
"D. c #E9C27D",
"F. c #DBA582",
"G. c #DDAB83",
"H. c #D9A985",
"J. c #DDB388",
"K. c #E3AD83",
"L. c #EAAF83",
"P. c #E1A984",
"I. c #E5B384",
"U. c #EBB384",
"Y. c #E6BA85",
"T. c #ECBB83",
"R. c #E4B48A",
"E. c #EBB58A",
"W. c #E5BA8C",
"Q. c #EBBC8B",
"!. c #F2B683",
"~. c #F2BC84",
"^. c #F9BC83",
"/. c #F1B689",
"(. c #F3BC8C",
"). c #F9BB8C",
"_. c #E4BD92",
"`. c #ECBD93",
"'. c #E8BB98",
"]. c #F3BD92",
"[. c #F3BF98",
"{. c #ECC284",
"}. c #EDC28C",
"|. c #E7C18F",
" X c #F3C284",
".X c #F3C38C",
"XX c #F5C78A",
"oX c #ECC394",
"OX c #ECC996",
"+X c #E6C39A",
"@X c #ECC49B",
"#X c #EDCA9C",
"$X c #E5C195",
"%X c #F2C493",
"&X c #FBC294",
"*X c #F2C995",
"=X c #F2C59A",
"-X c #F3CB9C",
";X c #FACB9C",
":X c #FAC699",
">X c #F3D09E",
",X c #FAD29E",
"<X c #EBC5A1",
"1X c #EDCCA3",
"2X c #EDCDAA",
"3X c #E7CAA7",
"4X c #F2CDA3",
"5X c #FBCCA4",
"6X c #F2CDAB",
"7X c #F4C8A7",
"8X c #EED1A4",
"9X c #EED3AC",
"0X c #F4D2A4",
"qX c #FAD3A5",
"wX c #F3D3AC",
"eX c #FAD4AB",
"rX c #F4D9AD",
"tX c #FBD9AD",
"yX c #ECCFB2",
"uX c #F3CEB2",
"iX c #EDD4B3",
"pX c #EED9BA",
"aX c #F3D5B3",
"sX c #F9D5B3",
"dX c #F5DAB4",
"fX c #FADBB5",
"gX c #F3D6B9",
"hX c #FBD6BB",
"jX c #F5DCBC",
"kX c #FBDBBB",
"lX c #F8E0BA",
"zX c #F5DDC2",
"xX c #FADDC3",
"cX c #F4DCC8",
"vX c #EFD9C2",
"bX c #F6E1C4",
"nX c #FBE2C4",
"mX c #F6E2CB",
"MX c #FBE5CB",
"NX c #FCE9CC",
"BX c #FDE9D1",
"VX c #FBE6D1",
/* pixels */
"E E U.I.6.Y #.@.X.X.*.E @.*.X.K.R.8.9.5.0.I.8.G.G.-.F.P.K.K.0.G.R.`.R.`.`.R.=XR.7X<XG.k.2.*.*.g.l.K.K.9.l.%.>.,.%.u : } >.>.n n ",
"X.k.E.0.O.X.6.T k.X.E g.E n U 9.O.O.:.:.9.9.A 0.5.+.8.F.G.G.0.0.`.R.G.=X`.`.R.R.7X@X8.l.*.t.t.g.2.U.K.0.g.} 6.,.&.X.} %.%.U q q ",
"U.K.+.O.N +.l.6.6.u y g.M 8 X.:.w A { O.+.O.f 0.9.;.8.G.-.A M o...N +.8.E...K.0.<X'.8.9.n z i r T n K.>.&.*.M :.6.Y q 6.T U : : ",
"5.9.P.E.O.+.{ %.l.u M k.M u 9.| o.M w N +.>.m O.N o.8.-.;.8.5.+.O.+.5.6.U.n (.U.'.H.8.:X0.K.l.6.@.n ].I.6.g.U E.U 0 * &.U >.f f ",
"-.,.G.G.o.K.{ O.U.0 &.9.+.+.E.O.9...N +.X.X. .O.:.o.-.8.G.R.G.0.U.U.0.0.&.&.l.l.5XF.8.5XE.I.K.>.X.9.E.E.X.n X.>.9.>.l.:.{ } +.f ",
"5.+.5.K.6.E.X.&.*.- T X...:.k.+.:.U &.7.X.n ..-...m O.8.G.G.J.`.5.:.].6.&.l.6.k.K.O.-.].9.:.P.K.9.].=X`.6.6.>.m >.X.X.{ y N { 8 ",
"&.+.M M 1 1 y 5.I < n n w { Y Y :.b N +.7.Y ..| Y 5.G.| A H.H.O.f f E.U &.T &.&.>.X.9.R.5.| P.L.l.G.'.`.K.&X,.s /.%.g :.q o.g * ",
"&.0.n L P X.7.&.p p n M 0 &.X.>...U +.&.7.u N :.5.N N o.F.W.J.H.0.I.K.+.5.Y U.&.6.X.6.P.K.5.E.k.9.9.H.'.G.9.,.S >.X.X.%.9  . .8 ",
"G.9.1 u *.I ! ! ~ 4 t t t E k.*.:.o.G.5.A 8 +.5.:.q -.K.9.O.m ,.K.&.m +.R.8.G.;.y &.+.l.I.{ I.K.k.>.6.l.%.k.9.f 9.9.:.O.s 6 s s ",
"-.{ y M T G @.$.t p I t n &.l.6.O.O.:.m 8 1 :.9.9.b o.9.,.o.o.K.R.I.0.K.U.&.7.&.q 9.+.N 9...K.9.k.6.k.k.>.%.9.M X.:.O.O.{ 6 6 a ",
"{ 8 q X.X.E T x 0 P X.M >.l.6.:.n ..T 8 = 1 &.+.X.n Y >.5.9.E.&X`.`.`.U.U.I ! H b 5.+.m 5.N K.6.6.&.&.&.:. . .q +.:.o.M | a 7 & ",
"f 8 M 7.2.@.E G I T &.>.U.6.{ +.T 2.&.n 1 M &.Y i M Y X.&.6.U.5.8.8.K.6.g.L @.T +.&.6.+.U n U.>.l.5.&.K.k.>.a 9 A f ;.A s a | d ",
"f f u &.l.2.h.g.*.z X.6.+.w y X.&.k.&.X.n X.+.n M Y M X.&.&.0.{ i n @.%.&.M 5.E.9.l.9.{ 0 { l.{ >.{ &.6.9.9.9 a O.> q h Z a Z a ",
"Y { u X.L.l.L.z.M.T &.5.X.b Y +.5.6.O.+...5.5.O.>.X.T 6.0.9.E.K.g.g.z.l.K.5.G.`.E.].K.6.:.l.>.X.&.Y L.>.K.P.{ ,.O.Z | Z { 9 9 a ",
"q n U M M f g { >.N ..{ | | O.o.{ { b N A o.O.....b f N m m { A T Y U M f n q q f f u f M i 1 2 y y Y g g g f h b f q 8 f h 9 8 ",
"9.6.L.>.} +.} %.| O.G.8.F.F.F.F.9.9.,.8.9.8.8.-.-.-.,.+.A o.O.A S -.8.9.%.k.*.&.o. .>.+.} %.>.%.X.>.%.>.} %.%.{ >.U  .{ } >.:.>.",
"f u u 0 2 2 t p r y u u u u i z 0 8 > 9 a f m m b f w q q q s f s f b n M M M n 4 1 : # # < 3 3 - # > > & & & X & X   . & ; & ; ",
"6 6 e d 7 7 d s e d d d s v s s b b b b b b b c c c s v B S A A D D ..A { N Y Y D D D S B B b w w w v S C C C v F C j j F F C F ",
"m.M.~. XT.m.v.M..X XQ.Q.Q.Q.T.T.m.Y.}.=X*X*X,XqX4X4X0XeXtXfXtXtXtXtXtXeX4X4X5X5X4X0X0X0X-XoXW.Y.m.m.Q.Q.Q.Q.}.Q.U.(./.M.z.z.g.x.",
"j.b.b.V.Z.M.M.~. X~.B.T.T.B.B.Z.Q.}.oX#X#X#X4X0X0X0X2XwXwXwX2X2X1X8XwXwX2X2X1X1X}.%X%X.X.X}.T.M.b.b.n.V.s.s.s.s.q.T.B.v.y.y.e.w.",
"Q.Q.I.W.oX-X#X4X@X+X+X1X2X1X4X4X-X-X4XwX6X2X1X4XfXdXwXaXdXdXfXfXdXdXjXbXjXjXhXfXqX-X-X-X-X-X=X=X X X.X Xn.n.Z.V.N.B.b.3.y.s.r.] ",
"j.M.h.h.Q.%XQ.`.Q.I.R.oX=X`.Q.Q.Q.oX4XfXkXkXfXfXrXrXdXdXdXfXfXlXfXjXjXzXzXjXjXkXjXdXaXdXkXhXaXgXiX9XwX0X#X#X-X-X^.^.b.y.j.c.i.( ",
") [ ] ( V.^.~.~.Z.y.t.M.~.M.y.u.m.Y.@X6XwXwX2X1X0XwXfXfXsXsXwXwXkXhXjXzXmXxXxXkXiX3X3XwXsXwXiXiXpXiXiXwX1X#X4X#X=X-X+X_.oX`.I.l.",
"w.A.A.y.T.%XoXoX&Xm.7.Y.%X.X~. X XXXqXtXtXwX0XqX#XwXfXkXkXsXwXwXsXaXjXzXMXxXkXgXqX>X-X,X,X-X-XqXwX4X-X*X.X(.(.T.b.n.B.B.n.b.y.w.",
"j.A. Xb.T.*X=X=X=X=X-X=XqX-X-XoXwX1X8XrX9X9XjXnXcXVXMXcXxXxXzXxXnXnXnXnXMXMXbXpXwX4X1X1X1X0XwXeXwX1X4XOX4X-X-XW.Q.I.I.Q.(.~.M.t.",
"v.M.T.Y.|.@X+X7XwX2XwX2XsXwXwX2X6X7X6XsXaXgXxXxXdXdXrX9XrXwX8XwXjXkXxXnXnXnXjXiXwXwXwXwXwXwX4X4XeX2X4X1X0X4XqX@XXX}..X}.N.b.b.a.",
"Q Q w.s.Z.Z.U.&X4X@X@X+X4X<X7X<X:X%X=X5XeXsXkXxXnXkXaXgXhXaXaXhXyXiXgXgXgXjXjXfXaXgXdXfXfXtXeXeX5X@X4X#X4X#XqX4X@X$X@X`.R.I.U.U.",
"J J ( i.V.j.j.!.~.M.M.m.T.U.~.T.T.m.T.}.oX-XwXtX0X#XOX#X0X#X#X0XaX9XwX9XaXdXkXkXkXdXwX1X@X`.Q.Q.Q.I.oX$XoXW.`.Q.`.R.R.Q.Q.Q.E.z.",
"h.z.~.Q.%X=XW.`.M.z.M.M.(.T..X.X.X.X%X*X#X4XwXrX4X4X1X0XqX4X-XeXwXwX6XwXsXaXdXdXsXwX1X$XW.I.m.m.m.7.U.T.T.7.h.7._ Q Q _ ' ' K l ",
"z.C..X(.%X-XQ.Q.W.J.W._.#X@X4X4X7X7XsXhXhXgXxXjXxXxXhXhXsX7X'.7X$X$X@X4XsXdXgXgXaXwX6X4X-X-X%X%XT.T..X.X.XM.M.y.] ] i.p.r.] ] ) ",
") ( u.u.M.~.M.M.W.J.W._.@X+X1X2X'.<X6XuX2XuXgXaX8X0X1XOX|.Y.q.v.Y.W.oX4XwXaXfXjXnXkXfXsXwX4X4X@X-X=X-X=X;XXXXXM.u.j.C.C.x.j.j.u.",
"t.h.M.T.%X=XQ.oX(.U.T.T.%XQ.%X:X#X#X4X4X@X#X0XqXiXaXwX1X0X;X*XXXXX%X-XqXwXaXzXMXMXMXzXjXfXaXaXaX4X#X1X+X@X=XXXM.A.n.b.v.y.y.s.s.",
"i.u.n.Z.Z.~. X{. X XXX=X*X-X-XqX4XwXwXaXwXwXaXdXzXbXbXmXnXxXxXkXsX0X0X-X4XsXgXkXnXkXdXhXkXfXwX7X>X#X#XOX$X}.W.}.Q.%X(.z.h.j.j.u.",
"p.s.n.Z.Z.n.n. Xn.n.T. X%X%X%X%X-X4XwXaXfXkXnXnXMXMXmXbXzXjXkXxXkXwX0X-X4XsXwXsXwX2X<X<X<X<X@X+X2X3X2X2X2X7X<X7XQ.Y.Y.m.2.^ ^ ^ ",
"A.n.n.S.Z.s.n.XXb.B.B. X X X X~.*X1X9XaXhXkXnXnXBXNXMXmXzXjXhXkXfX0X>X-X4XtXeXeX0X4X#X-X4X4X4X4XsXuXhXkXhXhXwXsXqX*XQ.B.M.j.u.s.",
"M.v.v.b.v.y.v.T. X{.}..X.XXX.X X@X4XwXaXaXgXjXlXVXVXMXMXMXxXdXaXsX1X#XOX-XeX4X0X*X*X*X4X0X0X4X4X-X#X0XwX0X>XoX%X-X-X}.m.b.Z.A.V.",
"T.T.T.T.T.(..X%X%XoXOX-X-X-X*X}.#X0XdXdXgXfXjXbXVXMXMXMXBXnXdX9XfX0X4X@X1X0XOXOXoXoX*X-X-X-X-X-X{.Y.*X*X*X%XY.T.Y.Q.Y.v.v.n.u._ ",
"h.m.m.m.U.(.`.W.}.OX#X0X0X4X#XOX4XwXfXkXhXfXjXnXBXMXmXMXNXMXjXgXkXwXwX0XwXfXwX0XqXqX0X0X4X4X4X0XoX`.7X6X6X6X=X-X%XQ.T.B.Z.V.d.r.",
"y.M.{. X.X%XoXOXI.W.oX#X1X4X1X-XwXdXjXlXhXhXfXlXBXBXmXmXMXnXjXfXjXaXdXsXfXkXfXfXfXwXwXwXwX4X4X4X@X+X6X6XsXwX7X6X;X}.B.M.n.V.f.f.",
"u.b.{.XX*X}.|.OXI.U.Q.`.@X-X0XeXsXdXdXjXkXkXkXjXMXBXBXBXmXzXzXjXjXaXdXaXgXkXgXdXaX9X9XwXsXwXwX4X>X#X0X8X8X0X#X#X}. XT.v.y.s.r.' ",
"r.y.T..X%XI.T.T.e.n.T.I.I.`.%X%X#X#X4XwXwXwXwXtXnXgXiXjXnXxXxXxX0X1XwX2XfXeX0X0XwXwXsX2XwX4X-XQ.-X,X*X}.XX}.T..X@XW.Q.q.3.b.y.^ ",
"s.a.~..X*XQ.}.B.B.T.Y.`.+XW.R.oXT.I.I.W.=X-X-X;X8X3X3X9XdXaX9X9X2X2XfXiXjXfXgXaXlXdXlXaXdX#XOXY.}..XT.B.B.M.v.M.Y.m.~.b.u.r.' K ",
"r.e.n.T..XT.B.v.T.Q.oX@X4X@X_.$XOX>X0XtX0X8X#X#X8X2X2X9XaXaX9X2XyXgXMXvXmXmXcXcXbXpXpXpXjX3X<X+XoX#X}.Q.T.Y.m.Y.T.B.T.0.4.2.w.' ",
"' Q e.b.B.y.e._ 1.y.v.Y.}.}.T.N._.#XrXfXwX2X1X8XsXsXsXuXsXhXkXkX6XfXMXjXMXBXMXmXMXcXcXcXMXgXgXsXwXwX8X2X2X#X+X+X}.|.<X'.J.R.7.4.",
"K J ' d.V._ _ Q K J K e.V.e._ e.z.z.U.E.(.%X&X&XR.R.I.G.K.R.Q.Q.I.Q.-X$X2XaX9X2XkXaXaXgXsX<X`.`.@X$X$X$X_.W.W.R.3.7.W._.J.I.2.~ ",
"r.' d.S.S.s.u.r.] ] ' r.f.r.] ] ' e.a.a.a.a.a.a.a.3.3.1.1.1.` ` 7.h.T.G.oX-X#X@X}.}.*XOX*Xm.3.1.j.t.y.j.t.w.w.w.K / t.h.z.C.r.] ",
"y.1.v.v.N.v.v.2.1.y.y.4.3.v.y.1.4.v.D.{.N.q.N.N.B.N.b.n.b.y.1.1.2.6.m.9.R.W.W.Q.m.q.Y.Y.Q.v.3.^ 1./ ^ $./ / / / J J $.h.h.j.w./ ",
"u w c e V c b 8 B B m B D A A ..Y { { { A | A M S S A O.-.o.{ { n M ..m ..A A o.A S D S D Z N g z w w b w e u w u 8 e > ; > > > ",
"T L q h -.U : I X.E 2.*.#.E &.&.#.E I ! @.@.! ! $.^ ^ u.c.t.t.u.x.t.j.t.<.g.w.^ $.$.#.*.>.*.>.*.<.*.>.g.! ! l.>.k.6.{ f %.g g m ",
"+ o .   o @ O r % o O O O % # # < $ $ < % % y r 2 < , < 3 3 2 r p 2 3 , $ 3 3 5 , $ $ $ , $ $ $ % % o @ $ O + . . o   . 1 0 1 a ",
"! L } } n 0 r 2.X.Y I P p G I ! T @.*.l.>.X.>.:.6.>.%.@.%.*.*.g.$./ ^ $.$.*.! ~ E E ! I ! I I T @.%...Y @.L 2 u r u > * r p * 6 ",
"! r 0 n M *.#.*.l.T I L #.*.@.R I $.#.%.l.6.+.K.K.K.l.k.U.z.g.x.^ / ^ 1.z.).!.M.g.z.M.$.y.y.u.j.).E.:X(.z.z.k.K.$.*.{ 0 T T n M ",
"i 2 0 E r T z T 7.T *.G #.T I R x P E P 2.g.E U.l.6.6.6.M.h.I W W W I I g.).l.#.@.t.h.P / w.t.u.M.&.K.l.*.*.6.I.j.@.n 0 I i 2 q ",
"L i X.z.i 0 : T &.i T t z.z.6.6.E E M.M.h.h.@.2.U.z.h.2.M.h.H H $.1.~ I k.).6.E X.g.t.I W w.$.j.!.k.l.U.g.I E &Xt.z # T @.T u g ",
"n L T i n 6.6.z.g.g.l.E h.k.O.E.k.6.6.g.*.@.@.#.M.M.z.%.z.!.E E 2.t.#.P 6./.l.h.2.z.z.t.$.t.T z.z.2.6.l.T 2 z g.$.G $ @.=.! T u ",
"n L T 4 z L T 6.T @.E M &.l.N E.K.E.{ X.l.&.g.g.6.U.L.@.z.&X6.*.2.M.M.h.U./.6.2.*.g.t.h.$.@.5 <.z.%.6.M.R k *.T <.#.g @.! I *.1 ",
"n X.k.y T X.@.*.I X.I T 7.K.M E.U.U.k.X.U.6.@.z t.C.z.E E ^.t.w.G.E.m.g.6.).&.6.@.z.l.&.6.T R t.2.#.g.U./.l.z.2.g.*.t E @.2 < L ",
"b U &.u &.>.&.*.l.2.*.&.g.k.M 9.k.&.&.i g.6.X.E #.@.l.N l.6.M.I H.qXl.M 6.&XX.2.6.6.;XU.u T ^.j.y.#.6.L.l.@.2.@.g.*.L T T P 2 i ",
"M +.6.0 0 0 g } g 1 r X.7.6.{ L.2.#.*.n l.U.&.l.l.9.I.I.E.R.Q...H.5X9.X.L./.n g.X.&.&X(.>.g.).t.2.@.*.@.i 2 T P T @.p T T @.L n ",
"{ &.>.y g X.6.l.>.&.6.7.U.k.U 9.#.2.h.*.U.k.&.E.Q.Q.Q.&X9.:X&X-.'.E.U./.z.>.T z.*.6.7.0.].k.@.*.$.2.^.!.*.E *.P P #.t g.@.L E L ",
"n { +.M Y X.6.L.U 0.9.T 7.k.} >.@.z.g.6.9.Y X.K.&.X.T.%...I.].O.=XE.U.g.L } *.2.2.X.&.I.&X6.#.g.2.@.2.z.g.*.h.#.E P 2 6.T $ $ # ",
"} } &.&.{ f X.I.o.P.>.n >.+.N 9.6.(.k.9.:.b +.K.T T ~.P T l.U.&.E.l.2.E L &.g.$.! P E &.l.&.#.*.! R *.^.C.T ! #.g.i i *.#.u # < ",
"%.U n X.&.:.6.K.G.K.6.+.0.X. .K.R.`.K.R.P.:.P.I.6.K.(.g.6.U.U.I.l.2.$.t.z.z.M.z.$.$.P u X.X.E E t.#.$.g.*.p I g.*.z ! @.6.@.0 0 ",
"9.k.9.l.9.9.9.:.8.R.E.:.l.9.9.9.R.H.G.`.`.Q.K.l.`.[.`.I.E.l.E.`.6.I ~ z.h.l.~.7.$.t.h.2.z.!.!.g.z.j.t.t.M.$.*.g.h.x.z.*.g.&.U 0 "
};
