/* XPM */
static char *torch1new[] = {
/* columns rows colors chars-per-pixel */
"64 64 193 2 ",
"   c #0F0C07",
".  c #120E07",
"X  c #190F06",
"o  c #120F08",
"O  c #161007",
"+  c #1B1107",
"@  c #161108",
"#  c #1C140B",
"$  c #21160B",
"%  c #23190E",
"&  c #2B1C0D",
"*  c #291607",
"=  c #331D0B",
"-  c #3A1E0A",
";  c #3D1B07",
":  c #251C11",
">  c #2A1E12",
",  c #35210E",
"<  c #3C210B",
"1  c #2D2114",
"2  c #2F2418",
"3  c #332516",
"4  c #3A2614",
"5  c #372817",
"6  c #3B2916",
"7  c #322618",
"8  c #36291A",
"9  c #3C2C1B",
"0  c #3F301F",
"q  c #3C2F20",
"w  c #3E3020",
"e  c #43250C",
"r  c #4A250B",
"t  c #47280E",
"y  c #4B290D",
"u  c #5C2409",
"i  c #532C0C",
"p  c #5A2C0C",
"a  c #55270D",
"s  c #58300E",
"d  c #452610",
"f  c #432C15",
"g  c #4E2A12",
"h  c #412F1B",
"j  c #502F12",
"k  c #44321D",
"l  c #4A351E",
"z  c #4D381F",
"x  c #533313",
"c  c #5E3713",
"v  c #50361A",
"b  c #543B1F",
"n  c #5B3D1C",
"m  c #5F3A16",
"M  c #632609",
"N  c #642C0A",
"B  c #6D2D0C",
"V  c #682709",
"C  c #752D0A",
"Z  c #792C09",
"A  c #63330D",
"S  c #6D300D",
"D  c #78340D",
"F  c #6A3C14",
"G  c #653B14",
"H  c #793A10",
"J  c #443421",
"K  c #493721",
"L  c #4D3923",
"P  c #4F3D28",
"I  c #523D24",
"U  c #583F22",
"Y  c #523F29",
"T  c #62401C",
"R  c #7B4716",
"E  c #764A1C",
"W  c #564026",
"Q  c #5B4325",
"!  c #554129",
"~  c #5B452A",
"^  c #5E482C",
"/  c #5E4A31",
"(  c #614624",
")  c #644926",
"_  c #6A4A24",
"`  c #634A2A",
"'  c #694E2B",
"]  c #654724",
"[  c #6C502D",
"{  c #7A562B",
"}  c #76542B",
"|  c #624D31",
" . c #6C5332",
".. c #725632",
"X. c #755935",
"o. c #7C5D34",
"O. c #7A5F3B",
"+. c #7F6036",
"@. c #7D603A",
"#. c #8B3209",
"$. c #88390D",
"%. c #9D3F0B",
"&. c #973709",
"*. c #A43D09",
"=. c #9B400C",
"-. c #804614",
";. c #A7430C",
":. c #AF4309",
">. c #AC4A0E",
",. c #B44409",
"<. c #BD4608",
"1. c #B94A0A",
"2. c #B9500E",
"3. c #AA621B",
"4. c #BB681A",
"5. c #845E2F",
"6. c #885722",
"7. c #855F30",
"8. c #876434",
"9. c #8A6636",
"0. c #8D6A39",
"q. c #806238",
"w. c #906A37",
"e. c #99713A",
"r. c #C44D09",
"t. c #CD4E09",
"y. c #C04608",
"u. c #C5510B",
"i. c #CE540A",
"p. c #CE5C0C",
"a. c #D35609",
"s. c #D45B0B",
"d. c #DC5D09",
"f. c #DC560A",
"g. c #E25E0A",
"h. c #D6620C",
"j. c #DC630B",
"k. c #DC6B0D",
"l. c #DC720F",
"z. c #D46F16",
"x. c #CE741A",
"c. c #DF7611",
"v. c #E3640A",
"b. c #E9640A",
"n. c #E56B0B",
"m. c #EB6A0A",
"M. c #F06F0B",
"N. c #EC730B",
"B. c #EB780E",
"V. c #F2740C",
"C. c #F27C0C",
"Z. c #B4843D",
"A. c #F2820D",
"S. c #F58C0D",
"D. c #F7940D",
"F. c #F8950E",
"G. c #F89B0E",
"H. c #F7990E",
"J. c #F28811",
"K. c #F59314",
"L. c #F79B15",
"P. c #F89C14",
"I. c #F8A30E",
"U. c #F9A312",
"Y. c #F9AC13",
"T. c #F9A71B",
"R. c #F9B114",
"E. c #FAB318",
"W. c #FABD1B",
"Q. c #F8AC23",
"!. c #FAB923",
"~. c #F8B52B",
"^. c #FAC422",
"/. c #FAC925",
"(. c #FAC32C",
"). c #FACC2A",
"_. c #FBD22E",
"`. c #FACA33",
"'. c #FBD433",
"]. c #FBDA3A",
"[. c #FBD339",
"{. c #FBDD43",
"}. c #FBE244",
"|. c #FBE24C",
" X c #FBE654",
".X c #FBE95D",
"XX c #FBEC65",
"oX c #FBEE6D",
"OX c #FBEF73",
"+X c #FBF177",
"@X c #FBF17A",
"#X c #FCF483",
"$X c #FBF58D",
/* pixels */
"> > > # # # % 2 7 2 2 7 % 1 7 1 # # % # : # 1 & 1 > > > 3 6 6 9 J L K h 6 1 : : 5 6 h 9 q 9 q q 7 3 5 5 $ $ 1 1 # @ : > 1 1 7 2 ",
"> : > : % # % 1 7 7 7 2 1 1 1 1 # # % % : : 1 % 1 & > > 7 5 6 9 J h l h 6 1 & 3 6 h 9 9 9 J 9 9 7 3 7 7 : % > 1 $ # > 1 > 7 7 2 ",
"1 : : 1 7 7 7 0 5 7 I L L Q k K l l z k k l f f l b b Q L L K L J J K *.3 > > 3 L k h 9 9 ` o.) ) L K 9 6 6 3 > : % 1 J 0 5 1 1 ",
"# # % 5 0 0 9 9 K k l l I ^ ~ Q z l h k k z z l } ' ^ L k k J k J Y P C 5 3 3 l K J L ! X.q.) X.k K I U k h 3 & : % 7 L P ! w q ",
"% # 9 J J J K J K 0 5 9 L ~ L z K U ' ' ) Q 9.{ _ ( ^ k 9 ! L w K J ,.M - 1 4 I K L X.' 7...! L K K Q Q I z 3 3 3 3 L w w L 9 9 ",
": % 9 8 0 k k w 0 8 0 0 0 z L L K l k l I ) @.@.` ~ k k W ~ L L Y ! r.<.d > > K I I O.....~ I L K L ! | z I 6 7 3 7 l 5 0 0 9 8 ",
": % 2 7 9 J ! J 0 0 K ! W I W L l 6 9 l l k J X.^ W L ) W Q z L S r r.t.a 3 > L ` /  .Y ~ ^ L L h J L ~ W k 5 1 3 3 k l k k w J ",
"# # : 7 9 0 L K 9 0 K I L L L z L l l k k b ( Q U L L I W L k k %.;.j.i.C > : Q I K K ! I Y L J K I I I I ^ 5 1 3 3 l l k 5 0 9 ",
": % 7 K K 9 0 K J 9 J I W L I ! ~ L I K J k I U U L l L L K h h p.h.B.n.S 2 3 I I I L ! L I L h L ! ^ ! W [ 9 % > 5 l z k 6 9 3 ",
": : 9 L L k 0 w K 0 W I ! ! L ! ~ ! ! Q I b ( Q L L I I f h 6 g p.B.B.*.8 q 9 J Y Y ! ^ Y Y ! J L ^ J 0 L ~ 0 # $ 4 z ~ Q 6 4 7 ",
": # 9 l Y J 5 5 K L ` ^ ~ L J ! ! ~ ~ I ~ W Q I I I $.a - 5 5 Z d.Q.v.:.J 5 ; k P P ~ ~ L L ` ! W ! W l [ I k # # 2 z l ) Q 7 1 ",
": # 8 7 P J w 7 J W W b ^ ! l l ^ ! P ^ ! ' ` ) Q I >.>.f 9 4 ,.b.L.m.,.5 6 #.k f J L | ^ Y ` ~ L ! I W ` ) 6 % # & f l U [ l & ",
"% # L P L J w w L K z I I z l k L I ! ^ ^ ` ) ) ( Q *.1.s.1 M v.N.K.M.t.#.> d k h L I J L J K | ! ~ ~ ` ^ ( 9 # # 1 f I ~ W 0 1 ",
": : L J w 9 w P ! K z z b ` 3 7 k k ! ~ ` ) ) ) ( L h a.i.7 u B.T.L.V.g.r.u.d f h J k 6 L L L | ^ ` b z W ` 0 $ $ 1 6 l k l 9 9 ",
": : w J 7 5 K L L J f l ' ~ 6 1 3 k h h ! ( ) ' I 6 > :.;.5 : i.V.K.P.b.g.<.M 6 f J 5 l Y Y I K 0 ( ` Q z k k # # 1 6 l l L 9 6 ",
": # L P J L L J k 9 k l z 6 3 6 J J I I I Q Q Q U J L q 9 8 9 # n.C.F.V.b.t.&.r 3 q J ! Y Y I L 9 Q [ } ) l f $ # 3 6 L K I 6 6 ",
"1 : 5 5 J J 0 9 6 h z z 6 h 3 5 5 5 6 k h k f 5 3 1 e =.h.2.: 1 a.m.W.R.M.f.,.d > p 3 k L L z h 6 ( ` l k 9 f # # 6 9 k W z % 1 ",
": : % # # $ % % % : > : % > 3 7 3 > : > & > % % % % C 2.B.1 # & j.S./.W.b.y.g.4 & #.% 1 > > & > 6 % 1 2 1 1 > # # % # % > # # 3 ",
"2 : @ # # $ # # # : % # $ $ $ @ X + # # % % % % $ $ :.A.k.@ 3 s.C.I.[.).R.m.r.M # r.&.1 > 1 : 3 > # # % 1 % % > 2 1 > 1 & # # # ",
"2 2 5 9 9 6 3 3 > : $ : # $ $ # $ $ 3 $ 3 4 3 & , # k.N.A.,.e v.C.R.}.].W.S.a.B r.a.Z > 3 f h 5 4 6 6 0 8 5 0 9 6 9 f l 9 k > & ",
"7 8 J J J K K I Q ( ' ) U h 6 % $ & v ( _ ) ( ( b <.m.A.v.s.,.n.S.}.}.}._.U.g.,.g.b.t.6 Q ) 9.w.0.9.+. .w ( o._ Q ^ z W U l 1 1 ",
"7 q q q w I I L K h h 6 l Q ( % % 1 ( T ) [ l 6 l <.S.H.D.S.j.Y./..XXX/.G.C.V.b.C.V.n.L ~ ~ Y ~ ` ' O.W ~ W ^ 0 l k K ! W z 1 1 ",
"1 2 9 J Y I K k I K K K h W L 6 % 3 b Q Q ~ 6 6 % #.S.D.I.Y.C.).].XX'.'.H.H.S.U.Y.B.h.J I ! L ! [ '  .^ L ^ 8 0 0 0 K L 0 7 1 1 ",
"7 5 9 L I K J J J 9 5 k h k b L % 6 b b z 7 1 # % X #.I.R./.U.!.|.$X+XW.W.^.W.D.m.a.L K I I k I L ` ^ ^ ^ 0 0 0 0 0 J w 8 1 5 1 ",
"7 3 6 ! P J K L h 5 6 L h h ~ > % 5 b k 6 # 1 E T x + k.L.).^.[..X@X X)./.).}.C.g.&.l L K L I k l ' ( ^ ^ k 0 0 J 0 J w J 0 0 1 ",
"7 > 9 L 9 6 J K 3 l ! K 9 I Q > % 5 z k > # > 6.k 6 # u.U.{.{.|.XXOXoX[.}.'./.R.N.r.I L L I | ) [ L l k l l 0 0 K 1 K K K 8 7 1 ",
"3 1 k h 6 K L L 9 k I I L I I > # k l f % # & R x 4 # a.E.'.{.XXoX@XoX#X+X].].E.A.:.I I I ~ l z W [ z 6 L k k l J 1 2 w z > 2 2 ",
"3 1 k 6 k L ! Y ! L ! ~ L k L , # f T z > # , R t , $ 1.T.'. X#XOXoXoXoXoX.XE.U.H.*.k z I I l h 0 ' ( k k z z z k 1 1 9 W l 3 1 ",
"3 > k z l l L I L J L J h J l 5 # f ] z # + = R 4 t # =.E.(..XoX#X#XoX#X#X XS.N.h.< l l K K k 9 J ~ L k k 6 9 7 0 0 9 k 9 6 2 > ",
"3 > b U K 9 K K L L K k k I 3 4 # k b 9 % # & R < e # O x.!.{. XoX@XXXXX.X`.S.2.k 3 k W ~ W L l k l z k k 9 5 7 9 J 9 0 k 6 3 1 ",
"3 > L k 6 6 L P P Y K 9 L Y 3 3 # f f 4 $ + & c < t + * $ z.(.).XX@XXX[.L.K.h.J 7 6 k k W ^ ^ W L K k f 9 9 9 5 7 K 8 9 l z 5 $ ",
"5 q k 6 3 3 9 J L L I Y | L 3 1 $ 4 f k $ + & c t e O , $ * %.l.L.T.(.~.c.J . @ 6 9 3 z I I ^ L ~ 9 9 l K k 9 W Q W ` z z 6 > # ",
"2 2 l k L W ~ W ! ! ! W W k 1 , # 4 z k % O = F t < O $ O # # < N M ; * e f $.@ f 7 6 0 L U L L Q 0 9 z K 0 k z ` ~ 0 f W 6 7 > ",
"7 2 5 , 2 3 7 > # # : > 7 6 > % + & 1 & + O = T i < O O , # t S C { { Z.4.H > @ 3 1 9 1 1 $ # 6 I 5 5 6 6 5 7 7 7 1 6 6 b 0 2 2 ",
"& % % # $ % , % # # % & 1 > # # + % % + + O = T e < O O # % & , 9 0 1 J 3 % $ O # # # # + # # # : 1 % % % % # # + # # $ , 2 & % ",
"> 2 l v U z 6 & & 1 > 3 7 5 , 1 # , 6 & # + , m e < # O # % 6 6 K k _ 5.T 3 & $ < 6 1 1 1 4 4 f K l 5 7 1 % # % % % 7 6 4 1 > > ",
"> 2 z z b Q k b n ' [ Q Q n b Q o.0.o.) % # = m < r e * # @ 1 0 ' 5.Z.e.X.1 $ 6 z b Q b U Q 5.e.8.8...[ W k % $ 6 f T _ Q 2 % > ",
"3 1 6 6 5 k 9 6 0 l z z 9 l U W b b ) I % O % 9 < e < % @ @ . . . . . . . @ 3 k W b z l l I [ l l L  .` W k % % f _ z z z z 1 > ",
"3 , k 9 7 0 0 5 0 k Q W 0 I W ' Q f 0 0 & O % 4 < r < , @ @ & , & i < p & + 6 k Q ~ l z z l k k k k l L Q z % $ f } 6 6 6 l 4 2 ",
"> 1 9 0 0 8 k 0 0 0 L k 8 l l 0 U k 9 l & O % e < e = , . . = < 4 i < A = O 6 l I l 7 K l l l L J 0 J J ~ k & # k _ b 0 7 0 3 > ",
"1 1 k 0 5 6 5 0 w W 8 ! J W l 0 0 6 L L & . & x < , O # O O % < t p r A % O 6 z z l k z K W W ~ q K w K W k # + z n 0 7 5 5 1 > ",
"$ > l k 2 1 3 0 W 9 J w J k L 0 8 6 6 k % . % x < < O < e # % & = - e < % # 2 l l k k l K ` X.I ! ! w L ! k > # l l 5 5 7 3 > 1 ",
"% % k 0 7 2 5 0 J ! ! l W ! W 8 6 6 0 k % . # x < < # < e i y i y F 3.R y & # 5 K k K K L ` ` ^ w K l l 0 7 > % 6 z l 7 2 1 > : ",
"% > k L l J k L J 0 8 l k ! l 2 l L l W % . # f , , # # # 4 4 9 z l n m 0 # @ 9 K K k 9 9 w I L J ! W L l 0 > 1 9 z z 0 7 8 1 % ",
"1 : 9 J 0 q w L W 2 0 0 l L I l I I z 0 # . # 6 , & * # + > 6 , f b _ k 1 # 1 J L ! w 9 0 J L L w z L k l 0 > # 9 U W k 0 5 3 # ",
"1 : J L K w 7 L W J W W ( l 9 l 6 l L 9 # . % f < & & @ O O O + + + + + @ # k K ! 8 8 K K K L J 0 0 0 L W 0 : % 6 I z 5 6 k 3 # ",
"1 # 6 k 3 2 2 L W w / / 7 9 L ! l W W 0 # . # f e & * * + O + < = A < $ @ # 9 0 w w K J P L K 9 5 6 0 5 k 8 # % 2 9 z 0 0 k 1 # ",
"1 > > k 6 2 7 K ! w W l 8 7 > 0 W 0 0 6 % . # < t * * , # . + * e N r # # 1 l K L 8 2 9 9 9 5 0 L 0 5 2 1 1 # + # 0 0 k 0 0 # O ",
"% % # 2 1 % % % # 1 7 9 k k > > > & > > % . o : , & & < # O + = e A < O # % 3 3 1 1 1 1 5 6 9 0 k 0 % # # # # @ @ # # # 2 7 # O ",
"O # # + # # # % # % % % # # # + + # # % O .     # & & < # . + < i r < O # # @ # # # # + # # + O @ . . O # # # # # # # # # # O O ",
"# + # # # # # # # # % % $ # $ # @ % 1 & . .       # < < *   + , p r & O 1 # > % # % # % 1 2 2 > 2 > > 1 3 1 # # # # # # # # # # ",
"> & 2 5 6 l ! W ~ z 9 5 4 & $ # & 9 0 0 L 6 # @ . . # & + . # , A r # @ 0 8 5 3 > > > 3 0 z W L z k k 0 8 8 k 0 0 0 5 5 7 1 # # ",
"1 1 0 0 0 k 8 2 2 2 k l z 9 1 # > 0 9 9 k k 1 #     o o @ o + * s < + O 0 6 6 3 2 5 W ' W w 2 2 f 8 0 w 0 8 9 w 6 0 8 0 0 7 # : ",
": 1 0 0 7 9 7 2 4 2 1 5 k 5 7 # % 0 6 9 0 0 7 2 #         o # $ < * O # 0 0 0 7 k b z ~ L 8 8 7 0 k 0 q 7 8 7 9 8 0 8 0 8 8 1 1 ",
"% % J 0 8 2 2 9 7 1 2 2 0 6 % # : 0 0 8 7 7 7 8 1 @ o     # @ # + O . # 8 8 0 W W 0 J k W 8 5 7 8 0 9 8 8 8 2 7 0 0 8 8 2 2 2 1 ",
"# % 2 8 9 8 8 8 5 8 2 2 2 6 % # > 0 0 8 2 1 1 7 8 7 % o   # & , & & . # 8 8 8 L 0 8 k 0 8 7 8 7 8 0 8 8 9 8 7 7 8 0 1 8 2 1 : 1 ",
"# # 1 1 8 8 8 2 2 7 2 1 1 7 # # 2 0 0 2 1 2 2 2 8 0 2 # . O 1 6 4 &   1 0 8 8 8 w 0 0 8 0 l 0 0 2 2 8 8 q 8 8 2 8 0 7 q 1 1 : 1 ",
"# : 7 1 7 q 8 2 8 8 7 1 1 7 # # 2 q 0 7 2 0 L w 0 8 7 # @ . % : % + @ 0 0 0 8 2 8 q 0 0 7 L 5 2 7 7 2 8 q 8 q q 0 8 2 8 2 2 : @ ",
": : 7 7 2 1 1 : 7 1 1 1 1 2 # # : 8 q q 0 2 8 8 w w 0 > # . # 1 $ O > k 0 9 7 2 2 8 8 q 8 k 2 2 7 8 2 2 7 7 2 q 9 7 2 8 2 2 : # ",
"# : 1 2 7 1 : 1 2 1 1 : 1 7 # # # 8 2 q 8 2 2 8 0 0 7 1 # @ # : # O 3 7 2 8 0 7 8 7 2 7 8 2 2 2 8 k q q 8 7 2 2 w 2 1 2 2 2 : : ",
"1 : 2 2 1 1 7 7 2 1 1 2 7 1 @ O : 8 2 8 q q q q 7 2 1 : # o o o o @ 2 8 2 2 7 2 2 8 8 2 2 2 2 q 0 0 7 7 2 2 2 2 q 8 2 2 2 2 : % ",
"1 : 2 1 1 1 7 7 5 2 2 1 2 1 @ @ # 2 2 8 7 2 2 8 2 1 : 1 : @ o o @ : : 2 2 7 1 1 : 2 q 2 : : : 2 7 2 1 : : : : 8 8 8 q 2 2 1 1 : ",
"2 1 7 2 % # % % > % > 1 2 1 # @ @ : : : : : : : : : : @ @ : # : : # : : : : # # 2 2 2 : : @ : # : % # : : : : 2 2 2 2 : : : : : ",
"2 2 : : # % # % % # # # # # @ O # # # # # @ # # # # % # # : # # @ @ : : : # # # : : # # : # : : # % @ # # : # % 1 : 2 : # : : : "
};
