/* XPM */
static char *torch2new[] = {
/* columns rows colors chars-per-pixel */
"64 64 185 2 ",
"   c #130E07",
".  c #140F08",
"X  c #171007",
"o  c #1A1007",
"O  c #161008",
"+  c #1C130A",
"@  c #21160D",
"#  c #23180E",
"$  c #2B1B0D",
"%  c #271507",
"&  c #331D0B",
"*  c #3A1E0A",
"=  c #251B11",
"-  c #2A1E13",
";  c #301F11",
":  c #37200E",
">  c #3D210C",
",  c #2C2115",
"<  c #2F2318",
"1  c #332315",
"2  c #392615",
"3  c #3D2817",
"4  c #332619",
"5  c #382718",
"6  c #36291B",
"7  c #3C2B1B",
"8  c #3D2F20",
"9  c #43220B",
"0  c #4A250B",
"q  c #4C280D",
"w  c #532709",
"e  c #552A0C",
"r  c #5B2D0C",
"t  c #59270B",
"y  c #432712",
"u  c #422A16",
"i  c #4C2C13",
"p  c #422E1B",
"a  c #482F1A",
"s  c #532E13",
"d  c #5F2E12",
"f  c #45311E",
"g  c #4B341E",
"h  c #533216",
"j  c #593113",
"k  c #51361E",
"l  c #55391F",
"z  c #59391C",
"x  c #642D0C",
"c  c #692B0D",
"v  c #7B2D0B",
"b  c #63310D",
"n  c #6B330D",
"m  c #7B3D0C",
"M  c #7A360C",
"N  c #683611",
"B  c #633D1B",
"V  c #663612",
"C  c #7B3E12",
"Z  c #733D12",
"A  c #453321",
"S  c #4A3622",
"D  c #4D3924",
"F  c #4F3C28",
"G  c #533C23",
"H  c #593E23",
"J  c #513E28",
"K  c #7F410D",
"L  c #794013",
"P  c #7D4C1D",
"I  c #564026",
"U  c #5B4125",
"Y  c #564129",
"T  c #5B4429",
"R  c #5E482E",
"E  c #5F4930",
"W  c #624525",
"Q  c #664927",
"!  c #6B4A26",
"~  c #624728",
"^  c #654929",
"/  c #6B4D2A",
"(  c #714F29",
")  c #6E502D",
"_  c #73522D",
"`  c #7A562D",
"'  c #7E582D",
"]  c #644C31",
"[  c #6D5130",
"{  c #785730",
"}  c #7A5830",
"|  c #745631",
" . c #822A07",
".. c #8C2C07",
"X. c #832D09",
"o. c #8A2F09",
"O. c #822706",
"+. c #89350B",
"@. c #973007",
"#. c #94340A",
"$. c #9A3509",
"%. c #9B380A",
"&. c #A23609",
"*. c #AA3708",
"=. c #A53A09",
"-. c #A93B09",
";. c #B33E09",
":. c #B33C07",
">. c #924B0D",
",. c #9C450C",
"<. c #874C15",
"1. c #874A12",
"2. c #8A541B",
"3. c #93591C",
"4. c #9A5C1A",
"5. c #AC4F0F",
"6. c #B5400A",
"7. c #BC4309",
"8. c #BD4107",
"9. c #A4510F",
"0. c #A65911",
"q. c #A3621A",
"w. c #80592E",
"e. c #925E24",
"r. c #805C32",
"t. c #986021",
"y. c #B27727",
"u. c #C44609",
"i. c #CC4B09",
"p. c #C64508",
"a. c #D34D08",
"s. c #DA4907",
"d. c #CC540A",
"f. c #D35309",
"g. c #DA5409",
"h. c #D65909",
"j. c #DC5C0A",
"k. c #E55D0A",
"l. c #E5570A",
"z. c #D9630B",
"x. c #DD6B0E",
"c. c #D17C17",
"v. c #E3640B",
"b. c #EC6C0C",
"n. c #E36C0B",
"m. c #ED720C",
"M. c #ED790D",
"N. c #F07D0E",
"B. c #EE810F",
"V. c #F3880F",
"C. c #F18C11",
"Z. c #F29413",
"A. c #F59C15",
"S. c #F5A117",
"D. c #F5A418",
"F. c #F7AC1A",
"G. c #F7B21D",
"H. c #F9B41E",
"J. c #DF9F23",
"K. c #CD9430",
"L. c #F7B620",
"P. c #F8BD23",
"I. c #E2AC33",
"U. c #EAB839",
"Y. c #F9C226",
"T. c #FAC629",
"R. c #FACB2B",
"E. c #FAD12F",
"W. c #FAD333",
"Q. c #FBDB35",
"!. c #FCE23B",
"~. c #FCE442",
"^. c #FDE74A",
"/. c #FDEB4D",
"(. c #FDEB53",
"). c #FDEC5B",
"_. c #FCED63",
"`. c #FDF062",
"'. c #FCEF74",
"]. c #FCF07A",
"[. c #FAEF80",
"{. c #FCF182",
"}. c #FBF28D",
"|. c #FBF494",
" X c #FCF69B",
/* pixels */
"@ = = + X o + = = , , , # = , - + + # @ < = , , , , , = 5 5 5 1 7 p p 7 3 5 - - p p f f p S 7 u 2 2 5 5 @ @ 1 ; + o = = = - < , ",
"@ = - + + + o = , , , , - = , = @ + @ = - = , - $ = , = 1 3 5 5 p 7 A p 6 3 - , p A p p p p p p 1 5 1 1 @ @ 1 , @ + = - = , , , ",
"+ = = = = , 4 3 7 3 S g G W f g g A f p f u u g 3 f g U S A D S A A A 2 1 7 p ..S D A S S Q Q / Q g G 5 3 3 1 - = # 5 S 7 7 = = ",
"+ + @ 5 5 5 4 3 g f g f g T ^ U k g p f p p k k W U I f f 7 8 f 7 A A 7 7 c ....A S S H _ _ / Q S G G G a u 1 - = ; 2 S A F 8 7 ",
"+ + 6 6 7 p G 7 A 7 3 3 U T G f f g Q W U U r.} ) ^ T p 1 F A 8 S J p 2 1  ...p.q S [ ~ _ / I S g G H H g H 1 2 2 2 G 3 7 J 7 3 ",
"+ = 6 6 7 7 7 5 < 4 7 3 p S G G f f 3 f l G } ` g S 7 f G T D A F Y y y @.o.=.*.u g | _ _ U U H G G G / S H a u 2 2 f 7 8 8 8 7 ",
"= = , , 7 A D f 4 4 f G U S G k g 3 2 g k g f ^ I G A U U I f I G G y y $.-.&.-.3 g ^ U ^ T I G p A S H H G 5 1 1 2 g S A 3 p f ",
"+ + , , 7 7 D A 7 3 g G S g S g g S f p f l ^ Q G g g S S S f I J 7 ; c x 6.%.3 u i S I I U S 7 A G G U H ^ , 1 1 2 g g A 6 A 7 ",
"= @ , f f 7 7 f f 5 g S I G S I G S A A S f g W G S F p p f S J 7 4 ;.8.z.z.=.S d H G J H J I 3 D G / U U / 7 = $ 2 g g k 5 p 2 ",
"= @ 5 l S 7 7 f f g U G U T D Y T U H Y G G T Q ~ S A c O.p p f x ;.8.j.j.x.S d j J J ~ G D T S J ] F f H / p $ $ 2 l l l 7 , , ",
"+ + < f U 3 5 < f g W ~ T R f F Y R Y S T T T W ~ H J t O.8 A y &.7.v.n.i.p 5 3 5 H H ~ H G Y T f ~ G f ) G 7 - @ 1 g k l H - - ",
"+ + 1 6 U f 3 , 7 ^ G G T S A f F D D Y U Q Q Q U J T &.&.a 0 :.g.j.V.j.*.s S S 6 S S T U T ~ Y S Y G U ( / 3 + @ $ g g W ^ g = ",
"+ = D A U f 7 7 Y I G I H G S f f D D E T ^ Q / Q T #.&.-.i c i.g.Z.C.v.;.g H H X.$.G A S S S / ) G H ) / ) 7 @ @ ; g g U U 7 - ",
"+ @ A D 7 7 7 I Y I G G G W 5 3 g S F T ^ ^ / ^ H G +.j.-.p p.k.A.C.C.N.u.@.a u *.v u 7 G S S Y T _ S H G / u @ + $ u l 7 S 7 7 ",
"# = F 8 6 3 S G I g k G / U 3 1 1 g g f H T / U U c c N.m.v 7.m.F.F.N.k.u.v a 3 l.&.5 7 S Y S g 3 ) ` / U g l @ + & 2 g g U p 7 ",
"= # A A S D G g 7 g g g k p 2 3 f D D G U H U H G c +.b.B.7.u.D.H.F.N.b.l.:.F s.s.$.i g S J G G 3 T _ _ ` g u + + 1 u H G Y 3 1 ",
", = 6 6 7 A 8 3 7 f G l 7 p 3 3 p p 3 g k g a i 1 - %.N.A.A.B.L.T.P.A.A.g.i.&.k.k.=.1 f D k g f 7 ~ Q g g g u + + 2 3 f G H = , ",
"# + O + @ @ = = # - - $ $ # : 1 # $ $ 1 , - $ = = = h.v.A.C.M.F.R.Q.A.D.N.f.k.b.m.6.- , # % @ , 2 @ # 1 - , @ + @ o + = - + # $ ",
"# + + @ = + + + + @ # + @ @ + + @ o @ + , + + + = - f.b.Z.C.Z.H.W.W.H.D.L.A.D.D.b.:.: # - - # $ # @ # $ = @ + 1 2 $ $ $ @ + + @ ",
", < 6 4 7 8 7 3 - , # # @ # # + @ # # # 1 7 7 1 1 + = -.v.Z.H.H.E.^.W.F.L.C.F.D.b.u.@.5 2 p f y u u f g 7 7 7 f 2 2 p g p a , @ ",
"7 7 7 8 8 A G G G l W W W 7 a # # # k H ) ) ^ ^ ^ w 1 -.f.Z.P.L.W.).).Y.T.Z.P.P.m.N.7.z l U ' _ w.w.` ( p ^ / / U U g l l H 1 - ",
"6 A 8 A A G I G f f f 7 H U Q # # : W ! U U Y 7 S 1 = v k.D.P.R.^. X_.~.T.F.P.P.m.M.i.C G U G I U ! _ U U G ^ 7 g A S U U G , , ",
"4 , 3 D I T S f G f S 8 3 l T p - 3 f I I g < , = O + O =.D.T.^._. X|.'.R.Q.~.R.B.=.7.S I I f G / ^ / U g W 3 7 7 p S A f 4 , , ",
"6 6 A S U A f A S 5 1 f f 3 l f # 3 f G k , O O . . + n.X.D.(.]. X X|.].(.).|.R.N.i.g.G U I g U l W U ^ U p 7 7 3 A D A 3 1 7 , ",
"< , 6 S S 3 8 A 7 3 8 S 7 g H , # 3 H g , + + z <.j O M.Y.T.^. X X X X[._.|. XP.N.i.a S U G G g g ^ G ) Q f 3 7 F 8 D A f p 7 , ",
"1 = 7 S , 6 D D 6 f U S p Y T - + 3 g a , O # t.3.0 O B.R.W./.}. X|. X|. X|.'.A.M.f 3 G I I / ) ) g f 7 g G S f A 4 D G S , , , ",
", , f 1 4 A D F 6 p D G D Y I $ + 3 g a + O # <.e e - x.E./.}.|. X X X X X XQ.A.v.7 I U U I k S Q ) k 3 G p g l S 4 4 f l , , - ",
"< , 6 4 f A F F F A Y Y A A G 1 O y Q p O O % 1.q r & a.F./.|. X X X|.|. X(.L.C., f g G W I 3 7 A _ ! p 3 g z k f 1 1 7 p f , $ ",
"1 < f f f f D D A A A A A A g , o p Q a O O % >.0 r : & d.G.!.!. X{.].(.`.~.M.n - g l G D f 8 7 3 ^ U 7 2 7 2 1 f 7 p 7 3 p - - ",
"< , S A A 7 A A A D A 7 A Y 5 - o 2 k f + O + m i 0 @ o o a.Z.G.R.!.!.Q.H.J.# # , 3 5 l I G I g f S I g p 6 5 1 6 f a 3 7 a 2 $ ",
", - k 3 , 7 S F F F F 8 S J 3 = o 3 y 2 + O # K r q O 9 > % 9 n 9.5.,.e 9 # 9 + ; f 3 u I G / I g z f u a p 7 1 7 D f a g g 1 = ",
"6 6 g 3 , , 5 A A F Y Y ^ D 5 = o 3 k 3 + O + b b 9 o % + w >.9.` y.K.U.I.t.$ X ; f 2 U I I G D l p p f S G 7 U U U U p l 5 , + ",
", 1 3 7 f D I I I S I D f p - - + > k g +   o m b 9 o $ O @ q N W w ( 4.2.: - O 1 3 2 3 A I 7 l l p 3 f S f f G l G p u l 5 5 @ ",
"4 , , - , + , , + + + - , 1 # % o # # # +   + m x > O X # > q V B w L q.V ; #   ; , 2 # $ + + 1 g , 2 3 2 1 5 $ - # 2 5 f 3 , - ",
"@ # @ @ + + # + + + @ # = = + o X + o O o   # 1.0 0 + O O # 3 a m <.q.! 4.g o + @ o o + + @ @ + # # @ o + @ o o + + o # 5 , - @ ",
"+ 1 a f f 8 2 ; , 1 , 2 3 3 1 ; # 2 : # o X $ L w 0 $ + O O o o @   X o + + # 3 2 , = , , 2 3 3 g f 3 2 = = o o @ $ 2 3 2 - , @ ",
"# , 7 g g D 8 g l H U G l G H W ) { _ g + X # L 9 w w & O + @ + $ > % & O O 1 f g u W z l l ! ' ' ` ( ! G 3 @ @ 3 9 U U l , - = ",
"# # 3 6 4 A 4 , 7 8 H 7 1 f k D k k Q f + X $ i > r 9 # O O $ > q b 0 b @ O 3 k l U z p p g ! p 3 p T U Q 7 + + u W p 7 7 f = @ ",
"# , f 7 1 f 8 4 5 8 G k 1 f I U H p 3 a + X + h > b > & O O + > h b 0 n $ O 1 3 U W 3 f g f 3 7 7 7 8 A W p @ # u ! 3 4 6 f , < ",
"+ # 3 7 7 7 8 f 7 7 f 7 2 p 8 f l 3 3 p @ X + e > 9 X $ + O + > q n 9 r # + : f G 3 3 g f f f S A g 8 g T 3 , o u Q S 3 - 7 , - ",
"# , l 3 < < 1 7 S 8 7 f f f 8 7 6 3 p a @ X o e 9 > O 0 - # + + # s 9 9 @ 2 O 3 g g p g f I I T 6 8 7 S G f + + a l 1 7 , , , = ",
"X , f 7 , , 4 8 D 8 8 g p 8 8 7 7 5 7 p + X + r > > O + $ N b +.L 3.c.q.k = O p u p g f f / _ G F D 7 g g f @ O 3 3 5 5 1 , , , ",
"o + k 7 , , 6 8 g 8 f f f g f 5 7 4 f 7 #   o s > 0 O # + + 3 2 A g P 9 : + X 7 S f k f g I U T D 7 f f 7 5 = + 3 3 f 6 , , , = ",
"o @ 3 8 7 8 8 g 7 8 5 8 f l g 6 g l k f # X + > > 9 @ X O # 6 5 A k 1.i # O , 7 S A f 4 5 7 D f D A l f p p @ = p g l 3 7 3 1 # ",
"# + 3 f 7 < 6 g f < 8 f 3 f 7 8 f D l 7 +   + h & > % o       o   + + o o + 7 D D D 4 4 f 8 D g 7 f f 3 k f + + 3 W G f 7 3 4 @ ",
"@ + g f 6 6 8 f g f 7 g H a p S 5 l k 7 +   + i > & > % X X o * & w w o X + 6 A A < 4 A 8 g f 7 6 5 6 f g 2 + + , g G 5 7 p 1 + ",
"+ @ : 8 , , , f f 8 Y S , 1 g Y g l f 5 O   + i r $ > & o   o 0 & n 0 o O + 3 6 8 < 6 8 f g f 3 5 1 5 p f , X O = g g 6 7 7 < + ",
"# # # 3 7 , 4 4 4 8 8 7 , , 1 5 A 8 8 8 + X O : t > @ & o   o & w b 3 o X + 6 A A 3 , , 6 5 1 7 g f 1 , - , O + + 6 7 g 8 7 + + ",
"@ + # # # , @ @ + # $ , 3 7 - = , , $ = # O O + 9 9 @ 9 + X + 9 9 r :   + + 1 = = , = - 1 1 1 2 p 7 - = + @ X O + @ @ + < 4 + O ",
"+ o + o o o o + + + + + + + + O + + + + X O   O = , > * + O o 9 x 0 #   + +   o + + + + o o + o o o X X @ @ + + o + + + + + + + ",
"o o + @ + @ + + @ o + + o + + o O @ , # O O O O O + 0 * + X o & b 0 %   + @ @ o + + + @ - $ 1 , $ ; 1 $ 1 1 - + + o # + = + @ + ",
"@ + , 2 7 8 f g l 3 2 5 1 # + + + 3 3 3 g g , + X X + * % X o $ b & @ + 3 7 - - , @ + < f k l g f u g 7 3 7 g S f f a 3 7 = = @ ",
"= # 7 7 f 7 , , , = g g 3 3 , @ @ 7 5 5 7 g 5 @ O O   O @ O o % r $ o o f g p 1 , 5 l G G 8 , , 3 1 f 8 3 7 7 7 3 3 6 A 7 4 + = ",
"# , 8 f 6 7 , , < , = 4 p 2 , + , 7 5 1 6 7 7 5 + + O O O O o @ 2 $ o , S 3 7 5 l G G G 7 , , , 7 8 6 7 < 6 4 7 6 7 6 8 7 < = = ",
", # f 7 6 < 4 7 6 - = < 7 3 # + + 7 7 , < < 4 , < + O O O + O + X     o 3 4 7 Y G 3 7 7 7 , , < 4 6 4 7 6 4 4 6 6 S 6 6 < , , = ",
"+ @ 6 4 4 6 4 7 3 3 , < , 3 $ o + 5 7 4 < , = , 6 5 + O   X # 9 > 2   + < 4 3 7 A 3 7 7 < , 6 < < 3 < < 4 6 4 4 7 7 , 4 , = @ = ",
"+ + = = < 6 6 < < 4 < , , 4 = O , 7 7 , , 4 4 , < , , O     + , u @ O , 3 6 , , 8 6 7 7 4 f 7 , , , , , 6 6 4 8 6 7 < 8 = = = = ",
"+ + < < < 6 8 6 6 6 6 = = , + O , 7 7 4 1 g D g 7 < 4 + O   O O X X O < 7 8 , , < 4 6 < 4 g , , , < , 3 7 7 8 8 3 7 , 6 , , + # ",
"O + < < < < , = < , = , , , + O + 8 8 8 8 , < , A 8 4 + +   # # # X @ 7 7 6 < < , < 4 < 4 7 = = < 6 , 4 6 6 6 8 8 < < 6 < , = = ",
"@ # = < < - # = , , = = - < O + + < 5 6 7 , , 7 8 8 4 , +   O 4 @ o = 4 < < 6 < < , < , < , , , < A 7 3 6 < < < 8 < , < , , = + ",
"= + - < = = < < , , = , 4 = + O + 6 < 6 8 8 8 7 8 , # , O . . . . + = , , , < , , , , , , , , 6 6 6 4 < < 6 < = 8 6 < < , = = = ",
"= = < - = , < < < < , , < = + O + 6 6 8 7 8 6 6 , , = # = + O . + # = , 4 < = = = < < < , + = = = < = = + , , 8 8 8 6 < = = = = ",
"= = , = O + @ , = + + = = = O O + + + = # , , = + , + + + = = @ @ + , = = @ + + = , = @ + O @ = = + O + + = = < = = , = + = = = ",
"= = = = # # @ = @ + + + + + O + + + + + + + + + + # + + + + @ + + O @ # + + O + # # + + + + + + + + + + O + + + + = = = O + = = "
};
