/* XPM */
static char *d379916cf522409ac94d7ecf105afc58eqUbj38kkdmKfbF4[] = {
/* columns rows colors chars-per-pixel */
"64 64 177 2 ",
"   c #442F1A",
".  c #46321E",
"X  c #4D331D",
"o  c #52351E",
"O  c #56381C",
"+  c #5D3B1F",
"@  c #6C3B15",
"#  c #653C1E",
"$  c #6C3F1C",
"%  c #783916",
"&  c #453224",
"*  c #4C3524",
"=  c #4E3925",
"-  c #4A3728",
";  c #4C3A2A",
":  c #533622",
">  c #583724",
",  c #553B25",
"<  c #5B3C25",
"1  c #513728",
"2  c #543C29",
"3  c #5B3E29",
"4  c #623D24",
"5  c #693E25",
"6  c #633E29",
"7  c #6C3F28",
"8  c #713E21",
"9  c #63411E",
"0  c #6C431F",
"q  c #764117",
"w  c #7D4417",
"e  c #74451E",
"r  c #7B451C",
"t  c #77491C",
"y  c #7D4A1D",
"u  c #5E4125",
"i  c #56402B",
"p  c #5C412B",
"a  c #5E4330",
"s  c #654225",
"d  c #6C4424",
"f  c #6F4925",
"g  c #63432A",
"h  c #6B452A",
"j  c #67492D",
"k  c #6D4A2B",
"l  c #734523",
"z  c #7A4624",
"x  c #754A24",
"c  c #7C4C24",
"v  c #72462A",
"b  c #7C462A",
"n  c #744B2A",
"m  c #7B4D2A",
"M  c #7E5125",
"N  c #77512C",
"B  c #7D512B",
"V  c #644530",
"C  c #654934",
"Z  c #6B4B31",
"A  c #704630",
"S  c #724B31",
"D  c #7B4D31",
"F  c #765333",
"G  c #7C5231",
"H  c #834715",
"J  c #864B16",
"K  c #894B17",
"L  c #82471B",
"P  c #8A471D",
"I  c #834C1D",
"U  c #8A4D1D",
"Y  c #8C511E",
"T  c #94541E",
"R  c #9B531D",
"E  c #94591F",
"W  c #99581E",
"Q  c #834E24",
"!  c #894E23",
"~  c #824E2A",
"^  c #8A4E28",
"/  c #855125",
"(  c #8B5325",
")  c #8D5924",
"_  c #84532A",
"`  c #8B552A",
"'  c #87592D",
"]  c #8D592C",
"[  c #925524",
"{  c #995723",
"}  c #945926",
"|  c #9A5A26",
" . c #97562C",
".. c #95572E",
"X. c #92562A",
"o. c #99562B",
"O. c #9B5728",
"+. c #905829",
"@. c #925A29",
"#. c #91592A",
"$. c #91582B",
"%. c #975928",
"&. c #965829",
"*. c #945A28",
"=. c #975B29",
"-. c #95582B",
";. c #945A2A",
":. c #935E2A",
">. c #945C2B",
",. c #905A2C",
"<. c #935B2C",
"1. c #915B2F",
"2. c #94592D",
"3. c #945C2D",
"4. c #945A2B",
"5. c #99592B",
"6. c #995B2A",
"7. c #9B5B2B",
"8. c #995D29",
"9. c #985C2A",
"0. c #9F5C28",
"q. c #98592D",
"w. c #9B5F2D",
"e. c #995C2F",
"r. c #985E2E",
"t. c #9B5E2F",
"y. c #9B5C2B",
"u. c #855531",
"i. c #8B5630",
"p. c #865930",
"a. c #885830",
"s. c #8A5A34",
"d. c #8D5A31",
"f. c #915630",
"g. c #915C30",
"h. c #935C33",
"j. c #945E30",
"k. c #975F30",
"l. c #945D31",
"z. c #995E32",
"x. c #9B5D31",
"c. c #905E3B",
"v. c #A55F23",
"b. c #A15E27",
"n. c #A15B25",
"m. c #A05C2D",
"M. c #A05E2E",
"N. c #A15E2A",
"B. c #94602E",
"V. c #9D612B",
"C. c #9E602D",
"Z. c #9D612D",
"A. c #8F6036",
"S. c #976133",
"D. c #956134",
"F. c #9B6131",
"G. c #9C6232",
"H. c #926138",
"J. c #996338",
"K. c #9B6938",
"L. c #A16026",
"P. c #A86227",
"I. c #AF6327",
"U. c #A0612B",
"Y. c #A2622D",
"T. c #A8632A",
"R. c #AA652D",
"E. c #A06432",
"W. c #A26634",
"Q. c #A26432",
"!. c #A96534",
"~. c #A96533",
"^. c #A46834",
"/. c #AB6831",
"(. c #AB6A34",
"). c #A26838",
"_. c #B36D39",
/* pixels */
"& & ; * : 4 5 h 0 _ ' e @ z Q ! Q X.t.T U.{ { } !.b.| | | *.*.( } K 0.(.T.b.{ | I.v.T | M.o..._ r m v x ` <.j.' ( <.` ( Q c B n ",
"& & 2 2 3 h d d l l x n v l x ` ~ _ ! L Y ( ) ( [ X.8.V.} } <.@.3.U [ { { | *.G.P.L.E =.5.[ ` / ` a.m _ ` ) ] ` @ c Q _ m v k 4 ",
"& & 2 2 g h s d h s d n S 5 5 x x c c / / ] ` _ I Q ] :.) } @.} ` ` <.@.<.@.I Q | =.) ) ) U ( / I c e c I H I Q _ s.' m d s g g ",
"& & 2 , < g 5 h d x x k k A h d x Q _ F.) 3.@.( ` / ( ( ) *.8.X._ ` ( Q @.k.` k.*.>.( ) X.( ` / ] ] _ <.*.| F.<.e _ c m m k Z g ",
"- * 3 3 < s 4 h l m B x v D G c Q / X.w.K Y ( X.j.$.X.X.[ 5.M.| ( @.*.X.C.W.*.t...-.( X.5.5.t.] ( ` _ ` { 5.z.c Q / c x m m G k ",
"* * 3 3 < 4 4 d x z z x z z z Q r I ( } Y U Y [ ( X.x...! [ O.O.( X.y.y.U.U.U J X.` / ` ..-.5.) c _ _ ( X.x.J.l F.j.c e e x B c ",
"1 * : : < s 4 d n l 0 v v 8 e Q e r Q ( t.@.( ( I ) <.X.! ( *.} ] I Y Y [ 8.} @.Q ` / / ! ! ] Q x x x / ! X.c.d q z z c m c m e ",
"p * X o < h g k k d d v D D ~ _ u.m z r j.` _ _ ) ( ] ( / ] :.) j.Q ] >.@.>.` ( / ' _ _ Q Q _ Q B n N ' / / s.d z _ B B n n B c ",
": p p < g h d d x m x l c Q / ( ( ! ! L L X.| U.{ &.[ [ ( ) X.@.( ` X.X.X.-.] ( ) / ) ! @.I ! <.Q / / / ) -.z.m ( I ( ' m m l x ",
": : o : g h h D x x x m ~ Q Q ` ` ` h.` X.5.{ } w.x.z.z.k.3.3.*.) X.*.-.-.*.@.@.@.3.3./ ` Q / Q 5.k.] B.E.!.x.% ` / / ' m m m x ",
"C p : : 4 4 # d x x x _ _ c y ( ` _ ] ! ( -.X.*.) ( / / ! / ! U ) X.-.*.*.{ -.*.( *.3.Q / _ d._ z.` r J b._._.P ` ` y c m v B x ",
"p 3 : : < 4 5 v x x x m ' Q c Q Q I Q Q Q ` / ) <.] ` ` ` @.5.w.` / / X.X.( ) @.X.*.3./ Q Q ~ l r ` ] X.T n.Y.! ~ d.r z m d B c ",
"* 2 2 : < h n m x _ m c ` ] ( / / / ` ` ] ` I I Q / / / Q / X.5.] / Q _ ` _ / _ [ ( ) ) Q _ _ m c a.' ] | U.E.! c c.Q Q m l B c ",
"* a g < 4 v m m c ' _ y ( 1.@.( @.) 1.] ] ] _ ` Q / ` ` ` ( X.5.] _ / _ _ _ ` _ } Y ( t.( ` ] ` a.' z Q | ^.).Q z h.( / ' m _ _ ",
"X 3 3 < g v m _ Q ` ( / ) @.*.-.>.) @.( ! _ ` J.` _ / / ( ( X.{ X.X.` ( ( ] X.X.^.8.*.W./ ( / I I ' k.E.| T X.I r j.@./ ` ` _ / ",
", p < < s d l z Q ` ] @.*.} *.E.} [ >.` ( ! Q <.z.` Q Q ( X.t.t.T } =.) Y [ 8.y.} Y [ C.Y *.8.X.[ ! U { P.T.^.] r ` } I ` d.Q / ",
"& & : p g s s f x t / 1.` Q / / _ / / _ _ _ _ _ ) / / / Q ` <.! _ ' / / ] ! Q _ ( ( ) } ( Q Q a./ M y / | R.Y.| ( ` / / r _ _ s.",
"* , 3 g h v x n B c ` 3.$.` ] ] ] ` / Q Q c ~ _ ( ( ` _ / ` X.) / 1.` / <.z.` / ] ] @.@.` ( / _ ] ` / @.| R.b.{ L Q ( ` Q c l l ",
": 3 g d d b m b m y Q X.^ ! ` ( ( / Q Q Q c _ ' ( ] ` ` ` ( ( -.[ =.) I / X.( / ` ( ( / ( ` ( Q ! ` Q ` [ N.O.[ ` ` ] ` ` Q _ m ",
"< < g 5 d n b b _ Q / ` ` ` f.@.@.@.] ` _ c c x ] ] ` _ ] _ / 3.5.8.1.3.@./ ( ] ! ! ! ! ( -.3.) { -.Q ` ! Q.7.x.<.( ` Q _ c ' a.",
"< : < s h d d x B c / ` ` ` ] ] X.@.@.] ` ' _ B ` ` Q / ` _ Q X.X.( <.J.z.X._ _ ] f.] _ ` k.G.t.} 1._ / I 8.*.X.) / ` ` f._ _ _ ",
"p : < g h h d k z l y M c / / / / / / Q / ` ` ' ` / Q c _ / Q ( ^ Q c Q ! f.] y ` ` _ Q Q ( ( [ Y / M c / } } Y @.( ` ` f._ _ Q ",
"< < < g g h d d b x / / / _ ` / 1.] ` Q Q / Q y ` / _ / c _ _ / f.Q Q Q ! -.5.( Q Q c Q Q Q I U Y ( ' c 3.y.R.{ *.( I / Q Q c c ",
"> 3 6 5 d v v d b m _ ` _ ` ` / / / / ` <.D.j.` ` ` a.' c _ ] ( ( Q ] K.*.Y T ) ( Q Q ` d.d.$.X.5.` d.r 5.| R.R 3.X.Q ] _ ` Q _ ",
"< < 4 g h h d 5 d z m _ ` Q Q ( } } *.*.} { { [ U.y.z.` f._ ` / W | { | U.{ Y B.[ ! ( Q @.} y.{ ( X.*.5.5.O.n.| X.[ ! ( [ -.-.[ ",
"< < < 4 h k h d N m m _ ' / Q ] / / ` ] ` X.X.` =.*.-.^ _ Q ` / >.Z.5.-.5.X./ / ( Q _ _ ] <.3.8.( ( ) X.5.w.M.O._ ( / / _ ] ` _ ",
"3 < < < 4 s s 5 s d d x B c t z x c _ ' _ _ ' ' ( ( d.Q m z _ _ _ d.' ` j.D.] ` Q c c _ Q Q I / ` ( ( ) @.5.*.[ ` _ ~ Q ~ _ ~ ~ ",
", , < < < < 4 4 9 s d n _ _ z c c c ~ ~ m m _ _ / / ' x m x m c ' a.` / _ ] ` / <.` / j.` <.( @.` ( / / ) X.X.( ] _ Q Q c x b m ",
". = 2 p < < s g v v d l m ~ _ d._ _ / Q c c _ _ _ _ ' m _ m m x / / Q ! ! / ) ) *.[ K } [ *.[ } / ( ( ( ( ` @.*.X.( ( ( / Q c c ",
". = p p 3 < s h h v l l m c Q _ ` ` / / Q _ _ ' _ _ ' c ' _ _ c / Q ( <.X.@.F.F.C.y.| y.| y.} X.) @.-.@.) X.*.5.[ [ X.x.z.] _ ^ ",
"* 2 2 3 < < 4 g s k v m B m c c ` / Q Q B _ B B _ _ ` Q _ _ ` _ f.<.k.k.] ] ] Q ( X.8.{ { ( / w { t.x.5.[ [ { *.` ! ( $.h.$.` ` ",
"* * : : < < 6 g u g h d x x x B _ c c m B B m n / / ` Q / Q ] ] c Q ` _ Q i.' $ r ( G.@.t.] j._ [ 5.5.5.&.{ -.5.` Q r z Q Q Q _ ",
"= : , 3 3 < g Z l x v v n x x m a.x l m B m m B c B c _ ' r ` ( t _ ] D.1.) ) S._ ` / Y @.*.) <.I ( _ m m ` ` / x m l l ~ m x _ ",
"= = , p V g < < # d n m B m z x _ c c c _ _ _ Q M c _ z _ Q ` ] Q _ ] 3.3.) ( z./ ` ) X.-.X.[ X.E.t.( Q _ 3.5.{ ` ] _ _ ] ] ` ] ",
"i 2 , 3 3 3 p u d v v n m m c ' Q _ _ / ` ] ] ( ' _ A.c Q ` ` <.` _ ` -.z.( ! 5.` X.5.w.{ &.-.[ | y.5.X.[ { { { { [ X.{ { { { ! ",
"= 2 3 3 < < s Z k v d v n x c ' c _ _ ` ` ] ] ` _ _ H./ ` ] ` ` d.` ( ] 3.X./ X.@.X.t.E.5.5.x.-.{ y.G.t.-.{ 5.y.5.[ X.*.X.-.5.[ ",
"  = p g 4 < 4 s d d x x m x e z v x c _ _ / _ ' y _ ` Q ` / d.Q ' ' ( / ] :.` ) ] ( @.t.*.3.z.` 5.X./ Q ( @.-.*.@.! ( ) ! ) <.( ",
", , < s g h h d x n x x m x x m k x x _ _ / B ' ( ] _ / _ y d.Q / ] ] ( ) :.} } ( / ( [ X.@.] ( ` ` ( ( ( ` ` ( ` Q Q Q Q _ ` _ ",
"p p < 4 h v n v _ B x x x x n G k n B / ( ` ' _ 1.] ] / ` Q ` / ( 3.>.} | | | 8.) } [ [ *.X.( ( ) <.F.F.3.@.` ` ] ` _ _ ` d.` d.",
"X < g h h v l l z c c m m n x m f M _ / ) >.] / ( I ] _ d.d.` ] -.t.w.U.U.| | ~.} G.C.y.w.*.( X.-.X.( [ } *.X.( Q _ Q Q ` _ Q _ ",
"s s s d d v v z h n N n v v v n c _ ' _ ' d.<.<.@.1.k./ / j.<.@.] ] @.X.-.3.3.] ~.5.-.h.Q c ` d.} 5.y.y.| | n.b.:.3.*.X.{ 5.<._ ",
"< < s s g s d h d x x l d h x l x c c c c Q _ _ ] Q Q c Q Q I ` ( ) *.-.X.X.X.@.[ [ ) ` ] / Q ( I Q ( *.t.w.5.5./ ) X.[ { -.$.Q ",
", , p p 3 s s h d l x l x n n x x m m m c c c c Q y _ _ _ / Q ` ) } *.*.{ X.X.) J Y L I S.B.} G.<.` ( ( ` <.@.X.) X.-.{ -.X.( c ",
"2 3 p p < 4 h k x x x c m B B B c _ ' ' ' _ B c / _ a._ _ d.] ` *.-.X.-.7.x.*.( E.C.} X.8.| T | J.3.` ) ) X.X.[ X.*.*.o.*.@./ c ",
", < g g s d d n x x x c m m B / / ` ] ' ` ` _ / ] _ M e c d.] / >.*.{ 5.w.E.5.[ { Y { w.y.b.T.v.Y [ { t.w.w.*.{ ) X.X.{ *.<.` _ ",
"o < g h h d d d v l x c m m c M _ ` _ / / ` ` ] ` / ' ' _ / Q ` X.*.t.5.5.5.5.*.M.{ w.x.[ { b.R { | y.y.y.5.{ { @.@.X.-.-.$.` _ ",
"* : 3 g s g d d d f x N m b c M c B B m c _ _ _ Q ( D.D._ Q I -.) *.t.5.{ { } *.X.X.X.X.) *.G.U.W.G.5.X.( ) X.X.1.] X.X.-.` _ Q ",
"; ; = , < s g h d d x N m n c M s k n n n m n x ) ( / r y ] @.@.:.>.} } *.*.} ) ) B.1.] S.] / ( ] ( ( / ( ` ] d./ / / ( X.` Q Q ",
"3 : < s k v n n 0 d v B n z / ` ~ c ` ] / / Q _ / Q ` _ ` ( / ) Y Y 8.y.X.-.k.! | { 0.| y.T b.(.} [ *.( ! ` ( ( / 1.j./ c _ _ m ",
": , 3 < s h v d v d d f l x / _ c.m c c c ' ` ' _ _ ` ` ` ` ( ` G.>.[ Y [ t.h.! { } C.| y.{ 0.b.Y.| -.( X.k.) Y / ! Q ( _ ~ m _ ",
"* 3 p < < s h d n h h h d l m _ _ x _ _ c _ _ a._ _ ' ' ` <.] j.@.Z.Z.8.*.-.X.` t.C.^.w.U.w.E.y.(.C.x...x.G.@.) x.X.! ` ` Q c ~ ",
"& 2 p , , < g h s g k k d 0 x m l e ' ' M c x c c c _ Q / ` ` d.w <.G.C.G.-.( @.*.@.*.( } { 5.} { { 5.X.( [ / X.X.[ ! Q _ i.u.~ ",
"& & = 2 , < < s 4 s h h s d x l B e c c c B x l c c / y y / Q / Q ` / / *.*.( ` @.U / U *.( X.} { { w.-.[ ( / X./ / Q c c c m m ",
"& & * 2 3 < < s k s s s h n m l ' c / / c / c c c c ` / ( <.` ' ` ` ( ( ) ) ) X.3.( X.5.W.5.8.8.Y.y.C.w.t.t.X.<.1.` / _ c e 0 x ",
"- * * : 3 g g s n d d h d n B x / c ] ] / / c _ c _ 1.@.*.F.j.D._ ` j.3.X.) @.@.*.[ *.*.C.} | } y.} 8.8.*.@.( X.` ( _ ` ` ~ _ a.",
"- ; * X : g g s d x m v d l m m ] / / / / ` _ _ c / @.) [ } / / ' c Q ) X.3.F.@.t.5.8.[ | } | { [ [ V.8.[ ) ( k.! -...! Q ` _ z ",
", 3 < : : : u g g j k d d v v k n c _ ( ) ] Q m x m B ' ' ` ` / 3.<.] ] ] ] ] / t.-.@./ L ).w.y.8.8.8.w.w.w.*.} 3.@.X.@.` Q Q ( ",
"* * * * = 2 , : < s h d d d d d x x B Q Q _ x x x l x c M c Q ` / I w / ( ( ( ( ( ( ( ] y w I X.` ( / / ` ` ( / r e r c ~ Q Q ` ",
"* & & & ; 2 , X o < g d d x m m m m B c c ' m N B x c _ _ c / d.d./ / ] ] ) ( @.) ( / D.h.Q J.k.` ( Q Q _ _ Q z h d d v n n z b ",
"; ; * * 2 i 3 , p j Z k x v x z m x B c c B c N m x c _ _ c c _ d._ _ ` ] ) ) X.:.:.:.@.z.) z.! 3.-.$.$.] ` m z S k h v n m b b ",
", , 2 , , p u u u g j h d x x c m c _ / / _ M M x c M _ ' _ / c / / / / ( <.:.X.[ Y V.[ [ Y [ ! *.5.t.-.` ~ Q c k h d v m m _ u.",
"X : 3 3 < < < 4 O < u s g v m B c c ' M / _ c c c c / / _ ' ' _ Q ` ` / ( k.S.@.B.J } } | y.{ x.T { *.-.( Q c x v v d d l z z z ",
". = 2 2 , , < < g g g g g h h 0 0 0 x d f x l e c c c c c c c _ / ( ( / ( ` ( / D.( / } } >.( / ( ) ` _ Q x n n v v v d d d d $ ",
"; ; ; ; = 2 p p + < u p g k k d g g j h k F N G ' _ _ ' / e x a.( ( ` ] ] ` ` ` l p./ ` y ( d./ ` ` / m n v h k s h k k v v S k "
};
